{
.appVersion = "1342";
DisplayStrings = (
"+/minus ×÷=/notequal ></greaterequal/lessequal ±%/approxequal ~¬"
);
classes = (
{
automatic = 1;

glyphs = (
{
color = 1;
glyphname = A;
lastChange = "2020-07-12 10:38:17 +0000";
layers = (
{
anchors = (
{
name = bottom;
position = "{260, 0}";
},
{
name = ogonek;
position = "{509, 0}";
},
{
name = top;
position = "{396, 697}";
}
);
layerId = "F91D9E91-C1BC-4259-B0D8-112C0CBA2B8E";
paths = (
{
closed = 1;
nodes = (
"23 0 LINE",
"395 691 LINE",
"497 0 LINE",
"509 0 LINE",
"404 697 LINE",
"385 697 LINE",
"11 0 LINE"
);
},
{
closed = 1;
nodes = (
"472 215 LINE",
"470 225 LINE",
"138 225 LINE",
"132 215 LINE"
);
}
);
width = 616;
},
{
anchors = (
{
name = bottom;
position = "{285, 0}";
},
{
name = ogonek;
position = "{631, 0}";
},
{
name = top;
position = "{421, 697}";
}
);
layerId = "957254E3-B7AD-4837-9092-D4428001DE8E";
paths = (
{
closed = 1;
nodes = (
"119 0 LINE",
"386 463 LINE",
"471 0 LINE",
"631 0 LINE",
"478 697 LINE",
"363 697 LINE",
"-63 0 LINE"
);
},
{
closed = 1;
nodes = (
"479 118 LINE",
"456 262 LINE",
"245 262 LINE",
"168 118 LINE"
);
}
);
width = 664;
}
);
leftKerningGroup = A;
note = A;
rightKerningGroup = A;
unicode = 0041;
},
{
color = 1;
glyphname = AE;
lastChange = "2020-07-06 17:21:03 +0000";
layers = (
{
anchors = (
{
name = bottom;
position = "{389, 0}";
},
{
name = top;
position = "{525, 697}";
}
);
layerId = "F91D9E91-C1BC-4259-B0D8-112C0CBA2B8E";
paths = (
{
closed = 1;
nodes = (
"23 0 LINE",
"122 185 LINE",
"383 185 LINE",
"347 0 LINE",
"765 0 LINE",
"767 10 LINE",
"360 10 LINE",
"425 347 LINE",
"777 347 LINE",
"779 357 LINE",
"427 357 LINE",
"492 687 LINE",
"899 687 LINE",
"901 697 LINE",
"385 697 LINE",
"11 0 LINE"
);
},
{
closed = 1;
nodes = (
"393 687 LINE",
"481 687 LINE",
"385 195 LINE",
"127 195 LINE"
);
}
);
width = 873;
},
{
anchors = (
{
name = bottom;
position = "{417, 0}";
},
{
name = top;
position = "{553, 697}";
}
);
layerId = "957254E3-B7AD-4837-9092-D4428001DE8E";
paths = (
{
closed = 1;
nodes = (
"108 0 LINE",
"190 143 LINE",
"376 143 LINE",
"348 0 LINE",
"838 0 LINE",
"866 142 LINE",
"534 142 LINE",
"561 282 LINE",
"854 282 LINE",
"880 414 LINE",
"587 414 LINE",
"615 559 LINE",
"947 559 LINE",
"974 697 LINE",
"362 697 LINE",
"-63 0 LINE"
);
},
{
closed = 1;
nodes = (
"429 559 LINE",
"457 559 LINE",
"405 293 LINE",
"273 293 LINE"
);
}
);
width = 929;
}
);
leftKerningGroup = A;
note = AE;
rightKerningGroup = E;
unicode = 00C6;
},
{
color = 1;
glyphname = B;
lastChange = "2020-07-06 17:21:03 +0000";
layers = (
{
anchors = (
{
name = bottom;
position = "{263, 0}";
},
{
name = top;
position = "{399, 697}";
}
);
layerId = "F91D9E91-C1BC-4259-B0D8-112C0CBA2B8E";
paths = (
{
closed = 1;
nodes = (
"272 0 LINE SMOOTH",
"429 0 OFFCURVE",
"530 83 OFFCURVE",
"530 232 CURVE SMOOTH",
"530 308 OFFCURVE",
"489 355 OFFCURVE",
"416 365 CURVE",
"506 391 OFFCURVE",
"562 473 OFFCURVE",
"562 566 CURVE SMOOTH",
"562 649 OFFCURVE",
"503 697 OFFCURVE",
"397 697 CURVE SMOOTH",
"217 697 LINE",
"81 0 LINE"
);
},
{
closed = 1;
nodes = (
"160 357 LINE",
"383 357 LINE SMOOTH",
"472 357 OFFCURVE",
"520 311 OFFCURVE",
"520 232 CURVE SMOOTH",
"520 91 OFFCURVE",
"427 10 OFFCURVE",
"274 10 CURVE SMOOTH",
"93 10 LINE"
);
},
{
closed = 1;
nodes = (
"225 687 LINE",
"396 687 LINE SMOOTH",
"497 687 OFFCURVE",
"552 643 OFFCURVE",
"552 566 CURVE SMOOTH",
"552 460 OFFCURVE",
"476 367 OFFCURVE",
"363 367 CURVE SMOOTH",
"162 367 LINE"
);
}
);
width = 621;
},
{
anchors = (
{
name = bottom;
position = "{261, 0}";
},
{
name = top;
position = "{397, 697}";
}
);
layerId = "957254E3-B7AD-4837-9092-D4428001DE8E";
paths = (
{
closed = 1;
nodes = (
"319 0 LINE SMOOTH",
"496 0 OFFCURVE",
"595 105 OFFCURVE",
"595 245 CURVE SMOOTH",
"595 312 OFFCURVE",
"570 353 OFFCURVE",
"517 379 CURVE",
"587 415 OFFCURVE",
"616 477 OFFCURVE",
"616 547 CURVE SMOOTH",
"616 635 OFFCURVE",
"544 697 OFFCURVE",
"418 697 CURVE SMOOTH",
"158 697 LINE",
"22 0 LINE"
);
},
{
closed = 1;
nodes = (
"236 293 LINE",
"362 293 LINE SMOOTH",
"384 293 OFFCURVE",
"436 289 OFFCURVE",
"436 236 CURVE SMOOTH",
"436 179 OFFCURVE",
"401 140 OFFCURVE",
"334 140 CURVE SMOOTH",
"206 140 LINE"
);
},
{
closed = 1;
nodes = (
"288 557 LINE",
"390 557 LINE SMOOTH",
"429 557 OFFCURVE",
"452 540 OFFCURVE",
"452 511 CURVE SMOOTH",
"452 466 OFFCURVE",
"420 432 OFFCURVE",
"367 432 CURVE SMOOTH",
"263 432 LINE"
);
}
);
width = 618;
}
);
leftKerningGroup = B;
note = B;
rightKerningGroup = B;
unicode = 0042;
},
{
color = 1;
glyphname = C;
lastChange = "2020-07-06 17:21:03 +0000";
layers = (
{
anchors = (
{
name = bottom;
position = "{336, 0}";
},
{
name = top;
position = "{472, 697}";
}
);
layerId = "F91D9E91-C1BC-4259-B0D8-112C0CBA2B8E";
paths = (
{
closed = 1;
nodes = (
"472 -5 OFFCURVE",
"578 66 OFFCURVE",
"644 171 CURVE",
"635 176 LINE",
"571 74 OFFCURVE",
"468 5 OFFCURVE",
"339 5 CURVE SMOOTH",
"192 5 OFFCURVE",
"107 95 OFFCURVE",
"107 250 CURVE SMOOTH",
"107 478 OFFCURVE",
"251 692 OFFCURVE",
"476 692 CURVE SMOOTH",
"598 692 OFFCURVE",
"678 632 OFFCURVE",
"703 524 CURVE",
"712 527 LINE",
"686 638 OFFCURVE",
"602 702 OFFCURVE",
"476 702 CURVE SMOOTH",
"245 702 OFFCURVE",
"97 482 OFFCURVE",
"97 250 CURVE SMOOTH",
"97 90 OFFCURVE",
"187 -5 OFFCURVE",
"339 -5 CURVE SMOOTH"
);
}
);
width = 728;
},
{
anchors = (
{
name = bottom;
position = "{347, 0}";
},
{
name = top;
position = "{443, 697}";
}
);
layerId = "957254E3-B7AD-4837-9092-D4428001DE8E";
paths = (
{
closed = 1;
nodes = (
"481 -18 OFFCURVE",
"612 62 OFFCURVE",
"672 189 CURVE",
"543 253 LINE",
"499 175 OFFCURVE",
"431 132 OFFCURVE",
"347 132 CURVE SMOOTH",
"248 132 OFFCURVE",
"191 198 OFFCURVE",
"191 309 CURVE SMOOTH",
"191 452 OFFCURVE",
"294 566 OFFCURVE",
"423 566 CURVE SMOOTH",
"502 566 OFFCURVE",
"543 524 OFFCURVE",
"562 454 CURVE",
"715 496 LINE",
"687 632 OFFCURVE",
"586 717 OFFCURVE",
"436 717 CURVE SMOOTH",
"212 717 OFFCURVE",
"33 529 OFFCURVE",
"33 293 CURVE SMOOTH",
"33 103 OFFCURVE",
"150 -18 OFFCURVE",
"333 -18 CURVE SMOOTH"
);
}
);
width = 689;
}
);
leftKerningGroup = C;
note = C;
rightKerningGroup = C;
unicode = 0043;
},
{
color = 1;
glyphname = D;
lastChange = "2020-07-06 17:21:03 +0000";
layers = (
{
anchors = (
{
name = bottom;
position = "{321, 0}";
},
{
name = center;
position = "{185, 349}";
},
{
name = top;
position = "{457, 697}";
}
);
layerId = "F91D9E91-C1BC-4259-B0D8-112C0CBA2B8E";
paths = (
{
closed = 1;
nodes = (
"254 0 LINE SMOOTH",
"516 0 OFFCURVE",
"681 178 OFFCURVE",
"681 437 CURVE SMOOTH",
"681 604 OFFCURVE",
"579 697 OFFCURVE",
"390 697 CURVE SMOOTH",
"217 697 LINE",
"81 0 LINE"
);
},
{
closed = 1;
nodes = (
"225 687 LINE",
"389 687 LINE SMOOTH",
"572 687 OFFCURVE",
"670 598 OFFCURVE",
"670 439 CURVE SMOOTH",
"670 186 OFFCURVE",
"514 10 OFFCURVE",
"256 10 CURVE SMOOTH",
"93 10 LINE"
);
}
);
width = 737;
},
{
anchors = (
{
name = bottom;
position = "{285, 0}";
},
{
name = center;
position = "{186, 349}";
},
{
name = top;
position = "{421, 697}";
}
);
layerId = "957254E3-B7AD-4837-9092-D4428001DE8E";
paths = (
{
closed = 1;
nodes = (
"231 0 LINE SMOOTH",
"501 0 OFFCURVE",
"676 171 OFFCURVE",
"676 436 CURVE SMOOTH",
"676 604 OFFCURVE",
"557 697 OFFCURVE",
"368 697 CURVE SMOOTH",
"158 697 LINE",
"22 0 LINE"
);
},
{
closed = 1;
nodes = (
"287 553 LINE",
"337 553 LINE SMOOTH",
"438 553 OFFCURVE",
"516 523 OFFCURVE",
"516 416 CURVE SMOOTH",
"516 231 OFFCURVE",
"395 144 OFFCURVE",
"243 144 CURVE SMOOTH",
"207 144 LINE"
);
}
);
width = 667;
}
);
leftKerningGroup = B;
note = D;
rightKerningGroup = D;
unicode = 0044;
},
{
color = 1;
glyphname = E;
lastChange = "2020-07-12 10:34:38 +0000";
layers = (
{
anchors = (
{
name = bottom;
position = "{305, 0}";
},
{
name = ogonek;
position = "{529, 0}";
},
{
name = top;
position = "{441, 697}";
},
{
name = topleft;
position = "{108, 697}";
}
);
layerId = "F91D9E91-C1BC-4259-B0D8-112C0CBA2B8E";
paths = (
{
closed = 1;
nodes = (
"529 0 LINE",
"531 10 LINE",
"93 10 LINE",
"158 348 LINE",
"541 348 LINE",
"543 357 LINE",
"160 357 LINE",
"225 687 LINE",
"663 687 LINE",
"665 697 LINE",
"217 697 LINE",
"81 0 LINE"
);
}
);
width = 637;
},
{
anchors = (
{
name = bottom;
position = "{256, 0}";
},
{
name = ogonek;
position = "{490, 0}";
},
{
name = top;
position = "{392, 697}";
},
{
name = topleft;
position = "{101, 697}";
}
);
layerId = "957254E3-B7AD-4837-9092-D4428001DE8E";
paths = (
{
closed = 1;
nodes = (
"490 0 LINE",
"518 144 LINE",
"207 144 LINE",
"235 288 LINE",
"531 288 LINE",
"559 433 LINE",
"263 433 LINE",
"287 553 LINE",
"598 553 LINE",
"626 697 LINE",
"158 697 LINE",
"22 0 LINE"
);
}
);
width = 590;
}
);
leftKerningGroup = B;
note = E;
rightKerningGroup = E;
unicode = 0045;
},
{
color = 1;
glyphname = F;
lastChange = "2020-07-06 17:21:03 +0000";
layers = (
{
anchors = (
{
name = bottom;
position = "{267, 0}";
},
{
name = top;
position = "{403, 697}";
}
);
layerId = "F91D9E91-C1BC-4259-B0D8-112C0CBA2B8E";
paths = (
{
closed = 1;
nodes = (
"91 0 LINE",
"158 346 LINE",
"541 346 LINE",
"543 357 LINE",
"160 357 LINE",
"225 687 LINE",
"663 687 LINE",
"665 697 LINE",
"217 697 LINE",
"81 0 LINE"
);
}
);
width = 629;
},
{
anchors = (
{
name = bottom;
position = "{245, 0}";
},
{
name = top;
position = "{381, 697}";
}
);
layerId = "957254E3-B7AD-4837-9092-D4428001DE8E";
paths = (
{
closed = 1;
nodes = (
"179 0 LINE",
"235 288 LINE",
"544 288 LINE",
"572 433 LINE",
"263 433 LINE",
"287 553 LINE",
"637 553 LINE",
"665 697 LINE",
"158 697 LINE",
"22 0 LINE"
);
}
);
width = 590;
}
);
leftKerningGroup = B;
note = F;
rightKerningGroup = F;
unicode = 0046;
},
{
color = 1;
glyphname = G;
lastChange = "2020-07-12 10:38:33 +0000";
layers = (
{
anchors = (
{
name = bottom;
position = "{332, 0}";
},
{
name = top;
position = "{468, 697}";
}
);
layerId = "F91D9E91-C1BC-4259-B0D8-112C0CBA2B8E";
paths = (
{
closed = 1;
nodes = (
"454 -5 OFFCURVE",
"576 51 OFFCURVE",
"630 174 CURVE",
"630 175 LINE",
"596 0 LINE",
"607 0 LINE",
"673 341 LINE",
"479 341 LINE",
"477 331 LINE",
"665 331 LINE",
"662 335 LINE",
"646 253 LINE SMOOTH",
"611 73 OFFCURVE",
"464 5 OFFCURVE",
"337 5 CURVE SMOOTH",
"191 5 OFFCURVE",
"106 98 OFFCURVE",
"106 251 CURVE SMOOTH",
"106 475 OFFCURVE",
"250 692 OFFCURVE",
"475 692 CURVE SMOOTH",
"598 692 OFFCURVE",
"677 630 OFFCURVE",
"702 524 CURVE",
"712 526 LINE",
"685 636 OFFCURVE",
"602 702 OFFCURVE",
"476 702 CURVE SMOOTH",
"250 702 OFFCURVE",
"96 486 OFFCURVE",
"96 251 CURVE SMOOTH",
"96 93 OFFCURVE",
"186 -5 OFFCURVE",
"337 -5 CURVE SMOOTH"
);
}
);
width = 758;
},
{
anchors = (
{
name = bottom;
position = "{323, 0}";
},
{
name = top;
position = "{461, 697}";
}
);
layerId = "957254E3-B7AD-4837-9092-D4428001DE8E";
paths = (
{
closed = 1;
nodes = (
"424 -18 OFFCURVE",
"508 18 OFFCURVE",
"554 92 CURVE",
"520 112 LINE",
"527 0 LINE",
"635 0 LINE",
"710 387 LINE",
"403 387 LINE",
"376 247 LINE",
"580 247 LINE",
"548 290 LINE",
"539 259 LINE SMOOTH",
"511 167 OFFCURVE",
"431 132 OFFCURVE",
"347 132 CURVE SMOOTH",
"236 132 OFFCURVE",
"191 212 OFFCURVE",
"191 309 CURVE SMOOTH",
"191 445 OFFCURVE",
"287 566 OFFCURVE",
"423 566 CURVE SMOOTH",
"502 566 OFFCURVE",
"543 524 OFFCURVE",
"562 454 CURVE",
"715 496 LINE",
"687 632 OFFCURVE",
"587 717 OFFCURVE",
"436 717 CURVE SMOOTH",
"212 717 OFFCURVE",
"33 529 OFFCURVE",
"33 293 CURVE SMOOTH",
"33 103 OFFCURVE",
"150 -18 OFFCURVE",
"333 -18 CURVE SMOOTH"
);
}
);
width = 730;
}
);
leftKerningGroup = C;
note = G;
rightKerningGroup = G;
unicode = 0047;
},
{
color = 1;
glyphname = H;
lastChange = "2020-07-06 17:21:03 +0000";
layers = (
{
anchors = (
{
name = bottom;
position = "{305, 0}";
},
{
name = center;
position = "{410, 538}";
},
{
name = top;
position = "{441, 697}";
},
{
name = topleft;
position = "{108, 697}";
}
);
layerId = "F91D9E91-C1BC-4259-B0D8-112C0CBA2B8E";
paths = (
{
closed = 1;
nodes = (
"91 0 LINE",
"159 347 LINE",
"586 347 LINE",
"518 0 LINE",
"528 0 LINE",
"664 697 LINE",
"654 697 LINE",
"588 357 LINE",
"161 357 LINE",
"227 697 LINE",
"217 697 LINE",
"81 0 LINE"
);
}
);
width = 705;
},
{
anchors = (
{
name = bottom;
position = "{316, 0}";
},
{
name = center;
position = "{423, 557}";
},
{
name = top;
position = "{451, 697}";
},
{
name = topleft;
position = "{101, 697}";
}
);
layerId = "957254E3-B7AD-4837-9092-D4428001DE8E";
paths = (
{
closed = 1;
nodes = (
"179 0 LINE",
"235 288 LINE",
"506 288 LINE",
"450 0 LINE",
"607 0 LINE",
"743 697 LINE",
"586 697 LINE",
"534 432 LINE",
"263 432 LINE",
"315 697 LINE",
"158 697 LINE",
"22 0 LINE"
);
}
);
width = 725;
}
);
leftKerningGroup = B;
note = H;
rightKerningGroup = H;
unicode = 0048;
},
{
color = 1;
glyphname = I;
lastChange = "2020-07-06 17:21:03 +0000";
layers = (
{
anchors = (
{
name = bottom;
position = "{86, 0}";
},
{
name = ogonek;
position = "{91, 0}";
},
{
name = top;
position = "{222, 697}";
},
{
name = topleft;
position = "{108, 697}";
}
);
layerId = "F91D9E91-C1BC-4259-B0D8-112C0CBA2B8E";
paths = (
{
closed = 1;
nodes = (
"91 0 LINE",
"227 697 LINE",
"217 697 LINE",
"81 0 LINE"
);
}
);
width = 268;
},
{
anchors = (
{
name = bottom;
position = "{101, 0}";
},
{
name = ogonek;
position = "{179, 0}";
},
{
name = top;
position = "{237, 697}";
},
{
name = topleft;
position = "{101, 697}";
}
);
layerId = "957254E3-B7AD-4837-9092-D4428001DE8E";
paths = (
{
closed = 1;
nodes = (
"179 0 LINE",
"315 697 LINE",
"158 697 LINE",
"22 0 LINE"
);
}
);
width = 297;
}
);
leftKerningGroup = B;
note = I;
rightKerningGroup = H;
unicode = 0049;
},
{
color = 1;
glyphname = J;
lastChange = "2020-07-12 10:39:01 +0000";
layers = (
{
anchors = (
{
name = bottom;
position = "{247, 0}";
},
{
name = top;
position = "{403, 697}";
}
);
layerId = "F91D9E91-C1BC-4259-B0D8-112C0CBA2B8E";
paths = (
{
closed = 1;
nodes = (
"352 -5 OFFCURVE",
"439 79 OFFCURVE",
"474 257 CURVE SMOOTH",
"560 697 LINE",
"246 697 LINE",
"244 687 LINE",
"548 687 LINE",
"464 257 LINE SMOOTH",
"432 91 OFFCURVE",
"349 5 OFFCURVE",
"221 5 CURVE SMOOTH",
"105 5 OFFCURVE",
"45 75 OFFCURVE",
"59 190 CURVE",
"49 190 LINE",
"35 69 OFFCURVE",
"99 -5 OFFCURVE",
"221 -5 CURVE SMOOTH"
);
}
);
width = 588;
},
{
anchors = (
{
name = bottom;
position = "{225, 0}";
},
{
name = top;
position = "{371, 697}";
}
);
layerId = "957254E3-B7AD-4837-9092-D4428001DE8E";
paths = (
{
closed = 1;
nodes = (
"350 -18 OFFCURVE",
"448 52 OFFCURVE",
"483 228 CURVE SMOOTH",
"575 697 LINE",
"166 697 LINE",
"138 553 LINE",
"389 553 LINE",
"329 247 LINE SMOOTH",
"315 174 OFFCURVE",
"288 127 OFFCURVE",
"225 127 CURVE SMOOTH",
"162 127 OFFCURVE",
"141 163 OFFCURVE",
"146 240 CURVE",
"-5 225 LINE",
"-25 72 OFFCURVE",
"62 -18 OFFCURVE",
"212 -18 CURVE SMOOTH"
);
}
);
width = 543;
}
);
leftKerningGroup = J;
note = J;
rightKerningGroup = J;
unicode = 004A;
},
{
color = 1;
glyphname = K;
lastChange = "2020-07-06 17:21:03 +0000";
layers = (
{
anchors = (
{
name = bottom;
position = "{298, 0}";
},
{
name = top;
position = "{434, 697}";
}
);
layerId = "F91D9E91-C1BC-4259-B0D8-112C0CBA2B8E";
paths = (
{
closed = 1;
nodes = (
"91 0 LINE",
"140 251 LINE",
"659 697 LINE",
"644 697 LINE",
"143 267 LINE",
"227 697 LINE",
"217 697 LINE",
"81 0 LINE"
);
},
{
closed = 1;
nodes = (
"547 0 LINE",
"308 405 LINE",
"299 401 LINE",
"536 0 LINE"
);
}
);
width = 652;
},
{
anchors = (
{
name = bottom;
position = "{299, 0}";
},
{
name = top;
position = "{435, 697}";
}
);
layerId = "957254E3-B7AD-4837-9092-D4428001DE8E";
paths = (
{
closed = 1;
nodes = (
"179 0 LINE",
"221 214 LINE",
"794 697 LINE",
"588 697 LINE",
"259 409 LINE",
"315 697 LINE",
"158 697 LINE",
"22 0 LINE"
);
},
{
closed = 1;
nodes = (
"660 0 LINE",
"467 444 LINE",
"354 335 LINE",
"491 0 LINE"
);
}
);
width = 698;
}
);
leftKerningGroup = B;
note = K;
rightKerningGroup = K;
unicode = 004B;
},
{
color = 1;
glyphname = L;
lastChange = "2020-07-06 17:21:03 +0000";
layers = (
{
anchors = (
{
name = bottom;
position = "{256, 0}";
},
{
name = center;
position = "{225, 379}";
},
{
name = top;
position = "{222, 697}";
},
{
name = topright;
position = "{463, 493}";
}
);
layerId = "F91D9E91-C1BC-4259-B0D8-112C0CBA2B8E";
paths = (
{
closed = 1;
nodes = (
"431 0 LINE",
"433 10 LINE",
"93 10 LINE",
"227 697 LINE",
"217 697 LINE",
"81 0 LINE"
);
}
);
width = 529;
},
{
anchors = (
{
name = bottom;
position = "{244, 0}";
},
{
name = center;
position = "{182, 323}";
},
{
name = top;
position = "{237, 697}";
},
{
name = topright;
position = "{491, 493}";
}
);
layerId = "957254E3-B7AD-4837-9092-D4428001DE8E";
paths = (
{
closed = 1;
nodes = (
"465 0 LINE",
"493 144 LINE",
"207 144 LINE",
"315 697 LINE",
"158 697 LINE",
"22 0 LINE"
);
}
);
width = 508;
}
);
leftKerningGroup = B;
note = L;
rightKerningGroup = L;
unicode = 004C;
},
{
color = 1;
glyphname = M;
lastChange = "2020-07-06 17:21:03 +0000";
layers = (
{
anchors = (
{
name = bottom;
position = "{383, 0}";
},
{
name = top;
position = "{519, 697}";
}
);
layerId = "F91D9E91-C1BC-4259-B0D8-112C0CBA2B8E";
paths = (
{
closed = 1;
nodes = (
"91 0 LINE",
"225 687 LINE",
"227 687 LINE",
"388 54 LINE",
"399 54 LINE",
"806 687 LINE",
"808 687 LINE",
"674 0 LINE",
"684 0 LINE",
"820 697 LINE",
"801 697 LINE",
"393 61 LINE",
"397 61 LINE",
"234 697 LINE",
"217 697 LINE",
"81 0 LINE"
);
}
);
width = 861;
},
{
anchors = (
{
name = bottom;
position = "{397, 0}";
},
{
name = top;
position = "{533, 697}";
}
);
layerId = "957254E3-B7AD-4837-9092-D4428001DE8E";
paths = (
{
closed = 1;
nodes = (
"179 0 LINE",
"284 540 LINE",
"259 540 LINE",
"333 63 LINE",
"484 63 LINE",
"743 540 LINE",
"719 540 LINE",
"614 0 LINE",
"771 0 LINE",
"907 697 LINE",
"683 697 LINE",
"398 166 LINE",
"455 166 LINE",
"382 697 LINE",
"158 697 LINE",
"22 0 LINE"
);
}
);
width = 889;
}
);
leftKerningGroup = B;
note = M;
rightKerningGroup = H;
unicode = 004D;
},
{
color = 1;
glyphname = N;
lastChange = "2020-07-06 17:21:03 +0000";
layers = (
{
anchors = (
{
name = bottom;
position = "{296, 0}";
},
{
name = top;
position = "{432, 697}";
}
);
layerId = "F91D9E91-C1BC-4259-B0D8-112C0CBA2B8E";
paths = (
{
closed = 1;
nodes = (
"91 0 LINE",
"225 687 LINE",
"227 687 LINE",
"492 0 LINE",
"511 0 LINE",
"647 697 LINE",
"637 697 LINE",
"503 10 LINE",
"500 10 LINE",
"234 697 LINE",
"217 697 LINE",
"81 0 LINE"
);
}
);
width = 688;
},
{
anchors = (
{
name = bottom;
position = "{313, 0}";
},
{
name = top;
position = "{449, 697}";
}
);
layerId = "957254E3-B7AD-4837-9092-D4428001DE8E";
paths = (
{
closed = 1;
nodes = (
"179 0 LINE",
"275 492 LINE",
"242 492 LINE",
"441 0 LINE",
"602 0 LINE",
"738 697 LINE",
"581 697 LINE",
"485 206 LINE",
"520 206 LINE",
"318 697 LINE",
"158 697 LINE",
"22 0 LINE"
);
}
);
width = 720;
}
);
leftKerningGroup = B;
note = N;
rightKerningGroup = H;
unicode = 004E;
},
{
color = 1;
glyphname = Eng;
lastChange = "2020-07-06 17:21:03 +0000";
layers = (
{
layerId = "F91D9E91-C1BC-4259-B0D8-112C0CBA2B8E";
paths = (
{
closed = 1;
nodes = (
"443 -158 OFFCURVE",
"490 -109 OFFCURVE",
"506 -28 CURVE SMOOTH",
"647 697 LINE",
"637 697 LINE",
"503 10 LINE",
"500 10 LINE",
"234 697 LINE",
"217 697 LINE",
"81 0 LINE",
"91 0 LINE",
"225 687 LINE",
"227 687 LINE",
"492 0 LINE SMOOTH",
"494 -6 OFFCURVE",
"498 -14 OFFCURVE",
"494 -34 CURVE SMOOTH",
"483 -93 OFFCURVE",
"445 -147 OFFCURVE",
"364 -147 CURVE SMOOTH",
"347 -147 OFFCURVE",
"318 -141 OFFCURVE",
"298 -132 CURVE",
"293 -142 LINE",
"313 -151 OFFCURVE",
"344 -158 OFFCURVE",
"363 -158 CURVE SMOOTH"
);
}
);
width = 688;
},
{
layerId = "957254E3-B7AD-4837-9092-D4428001DE8E";
paths = (
{
closed = 1;
nodes = (
"519 -189 OFFCURVE",
"585 -89 OFFCURVE",
"604 8 CURVE SMOOTH",
"738 697 LINE",
"581 697 LINE",
"489 225 LINE",
"510 225 LINE",
"318 697 LINE",
"158 697 LINE",
"22 0 LINE",
"179 0 LINE",
"271 475 LINE",
"246 475 LINE",
"441 0 LINE SMOOTH",
"448 -16 OFFCURVE",
"446 -31 OFFCURVE",
"445 -39 CURVE SMOOTH",
"439 -65 OFFCURVE",
"408 -87 OFFCURVE",
"356 -87 CURVE SMOOTH",
"347 -87 OFFCURVE",
"338 -87 OFFCURVE",
"328 -87 CURVE",
"311 -186 LINE",
"337 -189 OFFCURVE",
"357 -189 OFFCURVE",
"379 -189 CURVE SMOOTH"
);
}
);
width = 721;
}
);
leftKerningGroup = B;
note = Eng;
rightKerningGroup = H;
unicode = 014A;
},
{
glyphname = Nhookleft;
lastChange = "2020-07-06 17:21:03 +0000";
layers = (
{
anchors = (
{
name = bottom;
position = "{301, 0}";
},
{
name = top;
position = "{423, 697}";
}
);
layerId = "F91D9E91-C1BC-4259-B0D8-112C0CBA2B8E";
paths = (
{
closed = 1;
nodes = (
"96 0 LINE",
"217 687 LINE",
"219 687 LINE",
"497 0 LINE",
"516 0 LINE",
"638 697 LINE",
"628 697 LINE",
"507 10 LINE",
"504 10 LINE",
"226 697 LINE",
"208 697 LINE",
"86 0 LINE"
);
},
{
closed = 1;
nodes = (
"30 -158 OFFCURVE",
"76 -109 OFFCURVE",
"91 -28 CURVE SMOOTH",
"96 0 LINE",
"86 0 LINE",
"85 -6 OFFCURVE",
"83 -14 OFFCURVE",
"79 -34 CURVE SMOOTH",
"69 -93 OFFCURVE",
"32 -147 OFFCURVE",
"-49 -147 CURVE",
"-50 -158 LINE"
);
}
);
width = 693;
},
{
anchors = (
{
name = bottom;
position = "{318, 0}";
},
{
name = top;
position = "{440, 697}";
}
);
layerId = "957254E3-B7AD-4837-9092-D4428001DE8E";
paths = (
{
closed = 1;
nodes = (
"185 0 LINE",
"268 475 LINE",
"232 475 LINE",
"447 0 LINE",
"608 0 LINE",
"730 697 LINE",
"573 697 LINE",
"490 225 LINE",
"526 225 LINE",
"310 697 LINE",
"150 697 LINE",
"28 0 LINE"
);
},
{
closed = 1;
nodes = (
"91 -189 OFFCURVE",
"166 -107 OFFCURVE",
"180 -26 CURVE SMOOTH",
"185 0 LINE",
"28 0 LINE",
"25 -16 OFFCURVE",
"23 -23 OFFCURVE",
"22 -31 CURVE SMOOTH",
"18 -54 OFFCURVE",
"-4 -87 OFFCURVE",
"-56 -87 CURVE",
"-74 -189 LINE"
);
}
);
width = 726;
}
);
leftKerningGroup = B;
rightKerningGroup = H;
rightMetricsKey = N;
unicode = 019D;
},
{
color = 1;
glyphname = O;
lastChange = "2020-07-12 10:36:18 +0000";
layers = (
{
anchors = (
{
name = bottom;
position = "{341, 0}";
},
{
name = center;
position = "{409, 349}";
},
{
name = ogonek;
position = "{399, 0}";
},
{
name = top;
position = "{477, 697}";
},
{
name = topleft;
position = "{108, 697}";
},
{
name = topright;
position = "{766, 493}";
}
);
layerId = "F91D9E91-C1BC-4259-B0D8-112C0CBA2B8E";
paths = (
{
closed = 1;
nodes = (
"571 -5 OFFCURVE",
"721 213 OFFCURVE",
"721 446 CURVE SMOOTH",
"721 607 OFFCURVE",
"630 702 OFFCURVE",
"476 702 CURVE SMOOTH",
"245 702 OFFCURVE",
"97 482 OFFCURVE",
"97 250 CURVE SMOOTH",
"97 90 OFFCURVE",
"187 -5 OFFCURVE",
"339 -5 CURVE SMOOTH"
);
},
{
closed = 1;
nodes = (
"192 5 OFFCURVE",
"107 95 OFFCURVE",
"107 250 CURVE SMOOTH",
"107 478 OFFCURVE",
"251 692 OFFCURVE",
"476 692 CURVE SMOOTH",
"625 692 OFFCURVE",
"711 602 OFFCURVE",
"711 446 CURVE SMOOTH",
"711 217 OFFCURVE",
"565 5 OFFCURVE",
"339 5 CURVE SMOOTH"
);
}
);
width = 777;
},
{
anchors = (
{
name = bottom;
position = "{319, 0}";
},
{
name = center;
position = "{387, 349}";
},
{
name = ogonek;
position = "{424, 0}";
},
{
name = top;
position = "{455, 697}";
},
{
name = topleft;
position = "{102, 697}";
},
{
name = topright;
position = "{723, 493}";
}
);
layerId = "957254E3-B7AD-4837-9092-D4428001DE8E";
paths = (
{
closed = 1;
nodes = (
"593 -18 OFFCURVE",
"744 198 OFFCURVE",
"744 403 CURVE SMOOTH",
"744 566 OFFCURVE",
"648 716 OFFCURVE",
"437 716 CURVE SMOOTH",
"183 716 OFFCURVE",
"32 500 OFFCURVE",
"32 295 CURVE SMOOTH",
"32 132 OFFCURVE",
"128 -18 OFFCURVE",
"339 -18 CURVE SMOOTH"
);
},
{
closed = 1;
nodes = (
"237 130 OFFCURVE",
"189 210 OFFCURVE",
"189 300 CURVE SMOOTH",
"189 426 OFFCURVE",
"281 568 OFFCURVE",
"428 568 CURVE SMOOTH",
"539 568 OFFCURVE",
"587 488 OFFCURVE",
"587 398 CURVE SMOOTH",
"587 272 OFFCURVE",
"495 130 OFFCURVE",
"348 130 CURVE SMOOTH"
);
}
);
width = 737;
}
);
leftKerningGroup = C;
note = O;
rightKerningGroup = D;
unicode = 004F;
},
{
color = 1;
glyphname = P;
lastChange = "2020-07-06 17:21:03 +0000";
layers = (
{
anchors = (
{
name = bottom;
position = "{245, 0}";
},
{
name = top;
position = "{381, 697}";
}
);
layerId = "F91D9E91-C1BC-4259-B0D8-112C0CBA2B8E";
paths = (
{
closed = 1;
nodes = (
"91 0 LINE",
"153 321 LINE",
"309 321 LINE SMOOTH",
"460 321 OFFCURVE",
"571 408 OFFCURVE",
"571 550 CURVE SMOOTH",
"571 643 OFFCURVE",
"503 697 OFFCURVE",
"381 697 CURVE SMOOTH",
"217 697 LINE",
"81 0 LINE"
);
},
{
closed = 1;
nodes = (
"225 687 LINE",
"380 687 LINE SMOOTH",
"497 687 OFFCURVE",
"561 637 OFFCURVE",
"561 550 CURVE SMOOTH",
"561 416 OFFCURVE",
"458 331 OFFCURVE",
"310 331 CURVE SMOOTH",
"155 331 LINE"
);
}
);
width = 585;
},
{
anchors = (
{
name = bottom;
position = "{231, 0}";
},
{
name = top;
position = "{367, 697}";
}
);
layerId = "957254E3-B7AD-4837-9092-D4428001DE8E";
paths = (
{
closed = 1;
nodes = (
"178 0 LINE",
"233 280 LINE",
"322 280 LINE SMOOTH",
"507 280 OFFCURVE",
"611 379 OFFCURVE",
"611 527 CURVE SMOOTH",
"611 638 OFFCURVE",
"541 697 OFFCURVE",
"403 697 CURVE SMOOTH",
"158 697 LINE",
"22 0 LINE"
);
},
{
closed = 1;
nodes = (
"287 557 LINE",
"359 557 LINE SMOOTH",
"419 557 OFFCURVE",
"449 546 OFFCURVE",
"449 501 CURVE SMOOTH",
"449 440 OFFCURVE",
"403 420 OFFCURVE",
"334 420 CURVE SMOOTH",
"260 420 LINE"
);
}
);
width = 562;
}
);
leftKerningGroup = B;
note = P;
rightKerningGroup = P;
unicode = 0050;
},
{
color = 1;
glyphname = Thorn;
lastChange = "2020-07-06 17:21:03 +0000";
layers = (
{
anchors = (
{
name = bottom;
position = "{246, 0}";
},
{
name = top;
position = "{382, 697}";
}
);
layerId = "F91D9E91-C1BC-4259-B0D8-112C0CBA2B8E";
paths = (
{
closed = 1;
nodes = (
"92 0 LINE",
"134 216 LINE",
"279 216 LINE SMOOTH",
"461 216 OFFCURVE",
"551 304 OFFCURVE",
"551 445 CURVE SMOOTH",
"551 539 OFFCURVE",
"483 592 OFFCURVE",
"362 592 CURVE SMOOTH",
"207 592 LINE",
"228 697 LINE",
"217 697 LINE",
"81 0 LINE"
);
},
{
closed = 1;
nodes = (
"205 582 LINE",
"361 582 LINE SMOOTH",
"478 582 OFFCURVE",
"542 531 OFFCURVE",
"542 444 CURVE SMOOTH",
"542 311 OFFCURVE",
"458 226 OFFCURVE",
"281 226 CURVE SMOOTH",
"136 226 LINE"
);
}
);
width = 586;
},
{
anchors = (
{
name = bottom;
position = "{224, 0}";
},
{
name = top;
position = "{360, 697}";
}
);
layerId = "957254E3-B7AD-4837-9092-D4428001DE8E";
paths = (
{
closed = 1;
nodes = (
"165 0 LINE",
"202 191 LINE",
"285 191 LINE SMOOTH",
"455 191 OFFCURVE",
"579 291 OFFCURVE",
"579 441 CURVE SMOOTH",
"579 547 OFFCURVE",
"515 603 OFFCURVE",
"370 603 CURVE SMOOTH",
"282 603 LINE",
"301 697 LINE",
"158 697 LINE",
"22 0 LINE"
);
},
{
closed = 1;
nodes = (
"259 481 LINE",
"342 481 LINE SMOOTH",
"398 481 OFFCURVE",
"432 465 OFFCURVE",
"432 419 CURVE SMOOTH",
"432 354 OFFCURVE",
"388 321 OFFCURVE",
"310 321 CURVE SMOOTH",
"227 321 LINE"
);
}
);
width = 546;
}
);
leftKerningGroup = B;
leftMetricsKey = P;
note = Thorn;
rightKerningGroup = Thorn;
rightMetricsKey = P;
unicode = 00DE;
},
{
color = 1;
glyphname = Q;
lastChange = "2020-07-06 17:21:03 +0000";
layers = (
{
anchors = (
{
name = bottom;
position = "{344, 0}";
},
{
name = top;
position = "{480, 697}";
}
);
layerId = "F91D9E91-C1BC-4259-B0D8-112C0CBA2B8E";
paths = (
{
closed = 1;
nodes = (
"571 -5 OFFCURVE",
"721 213 OFFCURVE",
"721 446 CURVE SMOOTH",
"721 607 OFFCURVE",
"630 702 OFFCURVE",
"476 702 CURVE SMOOTH",
"245 702 OFFCURVE",
"97 482 OFFCURVE",
"97 250 CURVE SMOOTH",
"97 90 OFFCURVE",
"187 -5 OFFCURVE",
"339 -5 CURVE SMOOTH"
);
},
{
closed = 1;
nodes = (
"645 -20 LINE",
"448 222 LINE",
"440 215 LINE",
"637 -27 LINE"
);
},
{
closed = 1;
nodes = (
"192 5 OFFCURVE",
"107 95 OFFCURVE",
"107 250 CURVE SMOOTH",
"107 478 OFFCURVE",
"251 692 OFFCURVE",
"476 692 CURVE SMOOTH",
"625 692 OFFCURVE",
"711 602 OFFCURVE",
"711 446 CURVE SMOOTH",
"711 217 OFFCURVE",
"565 5 OFFCURVE",
"339 5 CURVE SMOOTH"
);
}
);
width = 777;
},
{
anchors = (
{
name = bottom;
position = "{327, 0}";
},
{
name = top;
position = "{463, 697}";
}
);
layerId = "957254E3-B7AD-4837-9092-D4428001DE8E";
paths = (
{
closed = 1;
nodes = (
"593 -18 OFFCURVE",
"744 198 OFFCURVE",
"744 403 CURVE SMOOTH",
"744 566 OFFCURVE",
"648 716 OFFCURVE",
"437 716 CURVE SMOOTH",
"183 716 OFFCURVE",
"32 500 OFFCURVE",
"32 295 CURVE SMOOTH",
"32 132 OFFCURVE",
"128 -18 OFFCURVE",
"339 -18 CURVE SMOOTH"
);
},
{
closed = 1;
nodes = (
"697 47 LINE",
"471 318 LINE",
"361 231 LINE",
"585 -34 LINE"
);
},
{
closed = 1;
nodes = (
"237 130 OFFCURVE",
"189 210 OFFCURVE",
"189 300 CURVE SMOOTH",
"189 426 OFFCURVE",
"281 568 OFFCURVE",
"428 568 CURVE SMOOTH",
"539 568 OFFCURVE",
"587 488 OFFCURVE",
"587 398 CURVE SMOOTH",
"587 272 OFFCURVE",
"495 130 OFFCURVE",
"348 130 CURVE SMOOTH"
);
}
);
width = 737;
}
);
leftKerningGroup = C;
leftMetricsKey = "=O";
note = Q;
rightKerningGroup = Q;
rightMetricsKey = "=O@403";
unicode = 0051;
},
{
color = 1;
glyphname = R;
lastChange = "2020-07-06 17:21:03 +0000";
layers = (
{
anchors = (
{
name = bottom;
position = "{261, 0}";
},
{
name = top;
position = "{397, 697}";
}
);
layerId = "F91D9E91-C1BC-4259-B0D8-112C0CBA2B8E";
paths = (
{
closed = 1;
nodes = (
"91 0 LINE",
"153 321 LINE",
"309 321 LINE SMOOTH",
"460 321 OFFCURVE",
"571 408 OFFCURVE",
"571 550 CURVE SMOOTH",
"571 643 OFFCURVE",
"503 697 OFFCURVE",
"381 697 CURVE SMOOTH",
"217 697 LINE",
"81 0 LINE"
);
},
{
closed = 1;
nodes = (
"502 0 LINE",
"376 334 LINE",
"366 331 LINE",
"491 0 LINE"
);
},
{
closed = 1;
nodes = (
"225 687 LINE",
"380 687 LINE SMOOTH",
"497 687 OFFCURVE",
"561 637 OFFCURVE",
"561 550 CURVE SMOOTH",
"561 416 OFFCURVE",
"458 331 OFFCURVE",
"310 331 CURVE SMOOTH",
"156 331 LINE"
);
}
);
width = 617;
},
{
anchors = (
{
name = bottom;
position = "{257, 0}";
},
{
name = top;
position = "{393, 697}";
}
);
layerId = "957254E3-B7AD-4837-9092-D4428001DE8E";
paths = (
{
closed = 1;
nodes = (
"178 0 LINE",
"233 280 LINE",
"322 280 LINE SMOOTH",
"507 280 OFFCURVE",
"611 379 OFFCURVE",
"611 527 CURVE SMOOTH",
"611 638 OFFCURVE",
"541 697 OFFCURVE",
"403 697 CURVE SMOOTH",
"158 697 LINE",
"22 0 LINE"
);
},
{
closed = 1;
nodes = (
"575 0 LINE",
"428 313 LINE",
"279 294 LINE",
"408 0 LINE"
);
},
{
closed = 1;
nodes = (
"287 557 LINE",
"359 557 LINE SMOOTH",
"419 557 OFFCURVE",
"449 546 OFFCURVE",
"449 501 CURVE SMOOTH",
"449 440 OFFCURVE",
"403 420 OFFCURVE",
"334 420 CURVE SMOOTH",
"260 420 LINE"
);
}
);
width = 612;
}
);
leftKerningGroup = B;
note = R;
rightKerningGroup = R;
unicode = 0052;
},
{
color = 1;
glyphname = S;
lastChange = "2020-07-12 11:13:49 +0000";
layers = (
{
anchors = (
{
name = bottom;
position = "{276, 0}";
},
{
name = top;
position = "{372, 697}";
}
);
layerId = "F91D9E91-C1BC-4259-B0D8-112C0CBA2B8E";
paths = (
{
closed = 1;
nodes = (
"389 -5 OFFCURVE",
"485 71 OFFCURVE",
"485 184 CURVE SMOOTH",
"485 304 OFFCURVE",
"401 340 OFFCURVE",
"319 373 CURVE SMOOTH",
"242 405 OFFCURVE",
"169 434 OFFCURVE",
"169 531 CURVE SMOOTH",
"169 631 OFFCURVE",
"263 692 OFFCURVE",
"356 692 CURVE SMOOTH",
"442 692 OFFCURVE",
"491 658 OFFCURVE",
"516 596 CURVE",
"525 600 LINE",
"498 666 OFFCURVE",
"446 702 OFFCURVE",
"357 702 CURVE SMOOTH",
"257 702 OFFCURVE",
"159 638 OFFCURVE",
"159 530 CURVE SMOOTH",
"159 430 OFFCURVE",
"233 397 OFFCURVE",
"310 366 CURVE SMOOTH",
"391 333 OFFCURVE",
"474 301 OFFCURVE",
"474 183 CURVE SMOOTH",
"474 80 OFFCURVE",
"387 5 OFFCURVE",
"267 5 CURVE SMOOTH",
"139 5 OFFCURVE",
"62 69 OFFCURVE",
"65 175 CURVE",
"55 173 LINE",
"52 63 OFFCURVE",
"132 -5 OFFCURVE",
"267 -5 CURVE SMOOTH"
);
}
);
width = 567;
},
{
anchors = (
{
name = bottom;
position = "{275, 0}";
},
{
name = top;
position = "{361, 697}";
}
);
layerId = "957254E3-B7AD-4837-9092-D4428001DE8E";
paths = (
{
closed = 1;
nodes = (
"415 -18 OFFCURVE",
"532 88 OFFCURVE",
"532 226 CURVE SMOOTH",
"532 322 OFFCURVE",
"487 375 OFFCURVE",
"371 423 CURVE SMOOTH",
"289 458 OFFCURVE",
"262 481 OFFCURVE",
"262 516 CURVE SMOOTH",
"262 552 OFFCURVE",
"292 576 OFFCURVE",
"336 576 CURVE SMOOTH",
"381 576 OFFCURVE",
"409 551 OFFCURVE",
"427 503 CURVE",
"566 580 LINE",
"539 668 OFFCURVE",
"466 715 OFFCURVE",
"356 715 CURVE SMOOTH",
"210 715 OFFCURVE",
"101 619 OFFCURVE",
"101 490 CURVE SMOOTH",
"101 402 OFFCURVE",
"150 346 OFFCURVE",
"265 295 CURVE SMOOTH",
"345 259 OFFCURVE",
"370 237 OFFCURVE",
"370 202 CURVE SMOOTH",
"370 158 OFFCURVE",
"331 124 OFFCURVE",
"270 124 CURVE SMOOTH",
"198 124 OFFCURVE",
"160 156 OFFCURVE",
"150 242 CURVE",
"-5 205 LINE",
"3 64 OFFCURVE",
"102 -18 OFFCURVE",
"251 -18 CURVE SMOOTH"
);
}
);
width = 546;
}
);
leftKerningGroup = S;
note = S;
rightKerningGroup = S;
unicode = 0053;
},
{
color = 1;
glyphname = Germandbls;
lastChange = "2020-07-06 17:21:03 +0000";
layers = (
{
anchors = (
{
name = bottom;
position = "{292, 0}";
},
{
name = top;
position = "{428, 697}";
}
);
layerId = "F91D9E91-C1BC-4259-B0D8-112C0CBA2B8E";
paths = (
{
closed = 1;
nodes = (
"513 -5 OFFCURVE",
"596 58 OFFCURVE",
"596 154 CURVE SMOOTH",
"596 305 OFFCURVE",
"315 231 OFFCURVE",
"315 358 CURVE SMOOTH",
"315 400 OFFCURVE",
"335 427 OFFCURVE",
"366 454 CURVE SMOOTH",
"628 687 LINE",
"630 697 LINE",
"391 697 LINE SMOOTH",
"228 697 OFFCURVE",
"182 578 OFFCURVE",
"159 459 CURVE SMOOTH",
"70.193 0 LINE",
"80.193 0 LINE",
"169 459 LINE SMOOTH",
"191 572 OFFCURVE",
"234 687 OFFCURVE",
"390 687 CURVE SMOOTH",
"613 687 LINE",
"360 462 LINE SMOOTH",
"329 434 OFFCURVE",
"305 407 OFFCURVE",
"305 357 CURVE SMOOTH",
"305 220 OFFCURVE",
"586 295 OFFCURVE",
"586 153 CURVE SMOOTH",
"586 65 OFFCURVE",
"510 5 OFFCURVE",
"409 5 CURVE SMOOTH",
"320 5 OFFCURVE",
"261 47 OFFCURVE",
"250 120 CURVE",
"240 116 LINE",
"252 42 OFFCURVE",
"314 -5 OFFCURVE",
"409 -5 CURVE SMOOTH"
);
}
);
width = 680;
},
{
anchors = (
{
name = bottom;
position = "{305, 0}";
},
{
name = top;
position = "{441, 697}";
}
);
layerId = "957254E3-B7AD-4837-9092-D4428001DE8E";
paths = (
{
closed = 1;
nodes = (
"538 -19 OFFCURVE",
"654 77 OFFCURVE",
"654 204 CURVE SMOOTH",
"654 346 OFFCURVE",
"467 332 OFFCURVE",
"467 363 CURVE SMOOTH",
"467 368 OFFCURVE",
"469 372 OFFCURVE",
"477 380 CURVE SMOOTH",
"668 570 LINE",
"693 697 LINE",
"429 697 LINE SMOOTH",
"165 697 OFFCURVE",
"108 529 OFFCURVE",
"86 417 CURVE SMOOTH",
"5 0 LINE",
"162 0 LINE",
"243 417 LINE SMOOTH",
"262 516 OFFCURVE",
"311 545 OFFCURVE",
"399 545 CURVE SMOOTH",
"454 545 LINE",
"395 481 LINE SMOOTH",
"350 433 OFFCURVE",
"297 389 OFFCURVE",
"297 318 CURVE SMOOTH",
"297 208 OFFCURVE",
"475 224 OFFCURVE",
"475 163 CURVE SMOOTH",
"475 138 OFFCURVE",
"457 126 OFFCURVE",
"437 126 CURVE SMOOTH",
"386 126 OFFCURVE",
"365 161 OFFCURVE",
"355 202 CURVE",
"209 132 LINE",
"215 48 OFFCURVE",
"289 -19 OFFCURVE",
"403 -19 CURVE SMOOTH"
);
}
);
width = 675;
}
);
unicode = 1E9E;
},
{
glyphname = Schwa;
lastChange = "2020-07-06 17:21:03 +0000";
layers = (
{
anchors = (
{
name = bottom;
position = "{329, 0}";
},
{
name = top;
position = "{451, 697}";
}
);
layerId = "F91D9E91-C1BC-4259-B0D8-112C0CBA2B8E";
paths = (
{
closed = 1;
nodes = (
"597 -5 OFFCURVE",
"704 244 OFFCURVE",
"704 451 CURVE SMOOTH",
"704 614 OFFCURVE",
"617 702 OFFCURVE",
"453 702 CURVE SMOOTH",
"321 702 OFFCURVE",
"226 645 OFFCURVE",
"159 525 CURVE",
"169 522 LINE",
"233 639 OFFCURVE",
"324 692 OFFCURVE",
"452 692 CURVE SMOOTH",
"612 692 OFFCURVE",
"694 607 OFFCURVE",
"694 451 CURVE SMOOTH",
"694 252 OFFCURVE",
"592 5 OFFCURVE",
"339 5 CURVE SMOOTH",
"187 5 OFFCURVE",
"107 93 OFFCURVE",
"107 250 CURVE SMOOTH",
"107 281 OFFCURVE",
"110 315 OFFCURVE",
"116 351 CURVE",
"106 351 LINE",
"99 314 OFFCURVE",
"96 279 OFFCURVE",
"96 248 CURVE SMOOTH",
"96 85 OFFCURVE",
"181 -5 OFFCURVE",
"338 -5 CURVE SMOOTH"
);
},
{
closed = 1;
nodes = (
"692 341 LINE",
"693 351 LINE",
"112 351 LINE",
"111 341 LINE"
);
}
);
width = 761;
},
{
anchors = (
{
name = bottom;
position = "{322, 0}";
},
{
name = top;
position = "{444, 697}";
}
);
layerId = "957254E3-B7AD-4837-9092-D4428001DE8E";
paths = (
{
closed = 1;
nodes = (
"593 -18 OFFCURVE",
"745 212 OFFCURVE",
"745 432 CURVE SMOOTH",
"745 607 OFFCURVE",
"636 717 OFFCURVE",
"454 717 CURVE SMOOTH",
"298 717 OFFCURVE",
"169 637 OFFCURVE",
"95 505 CURVE",
"230 448 LINE",
"270 527 OFFCURVE",
"343 567 OFFCURVE",
"428 567 CURVE SMOOTH",
"529 567 OFFCURVE",
"586 511 OFFCURVE",
"586 410 CURVE SMOOTH",
"586 281 OFFCURVE",
"516 132 OFFCURVE",
"348 132 CURVE SMOOTH",
"245 132 OFFCURVE",
"187 189 OFFCURVE",
"187 293 CURVE SMOOTH",
"187 311 OFFCURVE",
"188 330 OFFCURVE",
"192 351 CURVE",
"35 351 LINE",
"30 322 OFFCURVE",
"27 294 OFFCURVE",
"27 267 CURVE SMOOTH",
"27 92 OFFCURVE",
"138 -18 OFFCURVE",
"321 -18 CURVE SMOOTH"
);
},
{
closed = 1;
nodes = (
"675 231 LINE",
"696 351 LINE",
"115 351 LINE",
"94 231 LINE"
);
}
);
width = 733;
}
);
leftKerningGroup = C;
leftMetricsKey = O;
rightKerningGroup = D;
rightMetricsKey = O;
unicode = 018F;
},
{
color = 1;
glyphname = T;
lastChange = "2020-07-12 11:14:00 +0000";
layers = (
{
anchors = (
{
name = bottom;
position = "{275, 0}";
},
{
name = center;
position = "{343, 349}";
},
{
name = top;
position = "{411, 697}";
}
);
layerId = "F91D9E91-C1BC-4259-B0D8-112C0CBA2B8E";
paths = (
{
closed = 1;
nodes = (
"280 0 LINE",
"414 687 LINE",
"682 687 LINE",
"684 697 LINE",
"138 697 LINE",
"136 687 LINE",
"404 687 LINE",
"270 0 LINE"
);
}
);
width = 646;
},
{
anchors = (
{
name = bottom;
position = "{240, 0}";
},
{
name = center;
position = "{298, 349}";
},
{
name = top;
position = "{366, 697}";
}
);
layerId = "957254E3-B7AD-4837-9092-D4428001DE8E";
paths = (
{
closed = 1;
nodes = (
"310 0 LINE",
"418 553 LINE",
"621 553 LINE",
"649 697 LINE",
"83 697 LINE",
"55 553 LINE",
"259 553 LINE",
"151 0 LINE"
);
}
);
width = 556;
}
);
leftKerningGroup = T;
note = T;
rightKerningGroup = T;
unicode = 0054;
},
{
color = 1;
glyphname = U;
lastChange = "2020-07-06 17:21:03 +0000";
layers = (
{
anchors = (
{
name = bottom;
position = "{299, 0}";
},
{
name = ogonek;
position = "{352, 0}";
},
{
name = top;
position = "{435, 697}";
},
{
name = topright;
position = "{683, 493}";
}
);
layerId = "F91D9E91-C1BC-4259-B0D8-112C0CBA2B8E";
paths = (
{
closed = 1;
nodes = (
"447 -5 OFFCURVE",
"549 89 OFFCURVE",
"582 257 CURVE SMOOTH",
"668 697 LINE",
"658 697 LINE",
"572 257 LINE SMOOTH",
"541 95 OFFCURVE",
"443 5 OFFCURVE",
"298 5 CURVE SMOOTH",
"156 5 OFFCURVE",
"95 93 OFFCURVE",
"126 252 CURVE SMOOTH",
"213 697 LINE",
"203 697 LINE",
"116 252 LINE SMOOTH",
"84 87 OFFCURVE",
"149 -5 OFFCURVE",
"298 -5 CURVE SMOOTH"
);
}
);
width = 695;
},
{
anchors = (
{
name = bottom;
position = "{285, 0}";
},
{
name = ogonek;
position = "{380, 0}";
},
{
name = top;
position = "{421, 697}";
},
{
name = topright;
position = "{729, 493}";
}
);
layerId = "957254E3-B7AD-4837-9092-D4428001DE8E";
paths = (
{
closed = 1;
nodes = (
"463 -18 OFFCURVE",
"574 72 OFFCURVE",
"610 257 CURVE SMOOTH",
"696 697 LINE",
"539 697 LINE",
"455 268 LINE SMOOTH",
"437 174 OFFCURVE",
"409 126 OFFCURVE",
"309 126 CURVE SMOOTH",
"208 126 OFFCURVE",
"199 173 OFFCURVE",
"218 270 CURVE SMOOTH",
"301 697 LINE",
"144 697 LINE",
"57 252 LINE SMOOTH",
"22 70 OFFCURVE",
"98 -18 OFFCURVE",
"281 -18 CURVE SMOOTH"
);
}
);
width = 664;
}
);
leftKerningGroup = U;
note = U;
rightKerningGroup = J;
unicode = 0055;
},
{
color = 1;
glyphname = V;
lastChange = "2020-07-06 17:21:03 +0000";
layers = (
{
anchors = (
{
name = bottom;
position = "{291, 0}";
},
{
name = top;
position = "{427, 697}";
}
);
layerId = "F91D9E91-C1BC-4259-B0D8-112C0CBA2B8E";
paths = (
{
closed = 1;
nodes = (
"299 0 LINE",
"708 697 LINE",
"696 697 LINE",
"295 10 LINE",
"291 10 LINE",
"156 697 LINE",
"146 697 LINE",
"283 0 LINE"
);
}
);
width = 678;
},
{
anchors = (
{
name = bottom;
position = "{277, 0}";
},
{
name = top;
position = "{413, 697}";
}
);
layerId = "957254E3-B7AD-4837-9092-D4428001DE8E";
paths = (
{
closed = 1;
nodes = (
"334 0 LINE",
"750 697 LINE",
"565 697 LINE",
"279 193 LINE",
"330 193 LINE",
"236 697 LINE",
"74 697 LINE",
"219 0 LINE"
);
}
);
width = 648;
}
);
leftKerningGroup = V;
note = V;
rightKerningGroup = V;
unicode = 0056;
},
{
color = 1;
glyphname = W;
lastChange = "2020-07-06 17:21:03 +0000";
layers = (
{
anchors = (
{
name = bottom;
position = "{432, 0}";
},
{
name = top;
position = "{568, 697}";
}
);
layerId = "F91D9E91-C1BC-4259-B0D8-112C0CBA2B8E";
paths = (
{
closed = 1;
nodes = (
"224 0 LINE",
"560 651 LINE",
"557 651 LINE",
"639 0 LINE",
"655 0 LINE",
"984 697 LINE",
"972 697 LINE",
"649 9 LINE",
"567 663 LINE",
"554 663 LINE",
"218 9 LINE",
"161 697 LINE",
"151 697 LINE",
"208 0 LINE"
);
}
);
width = 959;
},
{
anchors = (
{
name = bottom;
position = "{415, 0}";
},
{
name = top;
position = "{551, 697}";
}
);
layerId = "957254E3-B7AD-4837-9092-D4428001DE8E";
paths = (
{
closed = 1;
nodes = (
"309 0 LINE",
"525 446 LINE",
"478 451 LINE",
"520 0 LINE",
"672 0 LINE",
"1022 697 LINE",
"848 697 LINE",
"626 242 LINE",
"589 655 LINE",
"476 655 LINE",
"281 242 LINE",
"236 697 LINE",
"81 697 LINE",
"158 0 LINE"
);
}
);
width = 927;
}
);
leftKerningGroup = W;
note = W;
rightKerningGroup = W;
unicode = 0057;
},
{
color = 1;
glyphname = X;
lastChange = "2020-07-06 17:21:03 +0000";
layers = (
{
anchors = (
{
name = bottom;
position = "{271, 0}";
},
{
name = top;
position = "{407, 697}";
}
);
layerId = "F91D9E91-C1BC-4259-B0D8-112C0CBA2B8E";
paths = (
{
closed = 1;
nodes = (
"23 0 LINE",
"340 348 LINE",
"335 349 LINE",
"518 0 LINE",
"530 0 LINE",
"345 355 LINE",
"658 697 LINE",
"645 697 LINE",
"337 360 LINE",
"342 359 LINE",
"166 697 LINE",
"155 697 LINE",
"333 355 LINE",
"11 0 LINE"
);
}
);
width = 637;
},
{
anchors = (
{
name = bottom;
position = "{283, 0}";
},
{
name = top;
position = "{419, 697}";
}
);
layerId = "957254E3-B7AD-4837-9092-D4428001DE8E";
paths = (
{
closed = 1;
nodes = (
"151 0 LINE",
"372 268 LINE",
"325 274 LINE",
"447 0 LINE",
"619 0 LINE",
"458 346 LINE",
"755 697 LINE",
"552 697 LINE",
"328 420 LINE",
"373 414 LINE",
"254 697 LINE",
"82 697 LINE",
"241 346 LINE",
"-53 0 LINE"
);
}
);
width = 661;
}
);
leftKerningGroup = X;
note = X;
rightKerningGroup = X;
unicode = 0058;
},
{
color = 1;
glyphname = Y;
lastChange = "2020-07-06 17:21:03 +0000";
layers = (
{
anchors = (
{
name = bottom;
position = "{279, 0}";
},
{
name = top;
position = "{415, 697}";
},
{
name = topleft;
position = "{108, 697}";
}
);
layerId = "F91D9E91-C1BC-4259-B0D8-112C0CBA2B8E";
paths = (
{
closed = 1;
nodes = (
"283 0 LINE",
"334 261 LINE",
"689 697 LINE",
"676 697 LINE",
"331 273 LINE",
"152 697 LINE",
"141 697 LINE",
"324 261 LINE",
"273 0 LINE"
);
}
);
width = 654;
},
{
anchors = (
{
name = bottom;
position = "{273, 0}";
},
{
name = top;
position = "{409, 697}";
},
{
name = topleft;
position = "{106, 697}";
}
);
layerId = "957254E3-B7AD-4837-9092-D4428001DE8E";
paths = (
{
closed = 1;
nodes = (
"352 0 LINE",
"406 275 LINE",
"749 697 LINE",
"553 697 LINE",
"342 426 LINE",
"241 697 LINE",
"67 697 LINE",
"249 275 LINE",
"195 0 LINE"
);
}
);
width = 641;
}
);
leftKerningGroup = Y;
note = Y;
rightKerningGroup = Y;
unicode = 0059;
},
{
color = 1;
glyphname = Z;
lastChange = "2020-07-06 17:21:03 +0000";
layers = (
{
anchors = (
{
name = bottom;
position = "{249, 0}";
},
{
name = center;
position = "{317, 349}";
},
{
name = top;
position = "{385, 697}";
}
);
layerId = "F91D9E91-C1BC-4259-B0D8-112C0CBA2B8E";
paths = (
{
closed = 1;
nodes = (
"482 0 LINE",
"484 10 LINE",
"22 10 LINE",
"22 12 LINE",
"618 682 LINE",
"621 697 LINE",
"169 697 LINE",
"167 687 LINE",
"608 687 LINE",
"608 686 LINE",
"12 16 LINE",
"9 0 LINE"
);
}
);
width = 594;
},
{
anchors = (
{
name = bottom;
position = "{256, 0}";
},
{
name = center;
position = "{324, 349}";
},
{
name = top;
position = "{392, 697}";
}
);
layerId = "957254E3-B7AD-4837-9092-D4428001DE8E";
paths = (
{
closed = 1;
nodes = (
"537 0 LINE",
"565 144 LINE",
"167 144 LINE",
"180 113 LINE",
"645 561 LINE",
"672 697 LINE",
"126 697 LINE",
"98 553 LINE",
"476 553 LINE",
"463 584 LINE",
"-7 130 LINE",
"-33 0 LINE"
);
}
);
width = 609;
}
);
leftKerningGroup = Z;
note = Z;
rightKerningGroup = Z;
unicode = 005A;
},
{
color = 1;
glyphname = a;
lastChange = "2020-07-07 08:00:08 +0000";
layers = (
{
anchors = (
{
name = bottom;
position = "{263, 0}";
},
{
name = ogonek;
position = "{467, 0}";
},
{
name = top;
position = "{359, 493}";
}
);
layerId = "F91D9E91-C1BC-4259-B0D8-112C0CBA2B8E";
paths = (
{
closed = 1;
nodes = (
"354 -5 OFFCURVE",
"448 74 OFFCURVE",
"492 176 CURVE",
"492 177 LINE",
"457 0 LINE",
"467 0 LINE",
"563.195 493 LINE",
"553.274 493 LINE",
"519 317 LINE",
"520 318 LINE",
"514 425 OFFCURVE",
"444 498 OFFCURVE",
"341 498 CURVE SMOOTH",
"192 498 OFFCURVE",
"60 352 OFFCURVE",
"60 190 CURVE SMOOTH",
"60 75 OFFCURVE",
"135 -5 OFFCURVE",
"243 -5 CURVE SMOOTH"
);
},
{
closed = 1;
nodes = (
"141 5 OFFCURVE",
"70 81 OFFCURVE",
"70 190 CURVE SMOOTH",
"70 346 OFFCURVE",
"198 488 OFFCURVE",
"341 488 CURVE SMOOTH",
"442 488 OFFCURVE",
"511 414 OFFCURVE",
"511 305 CURVE SMOOTH",
"511 157 OFFCURVE",
"395 5 OFFCURVE",
"243 5 CURVE SMOOTH"
);
}
);
width = 618;
},
{
anchors = (
{
name = bottom;
position = "{230.085, 0}";
},
{
name = ogonek;
position = "{447, 0}";
},
{
name = top;
position = "{325.915, 493}";
}
);
layerId = "957254E3-B7AD-4837-9092-D4428001DE8E";
paths = (
{
closed = 1;
nodes = (
"250 -11 OFFCURVE",
"311 13 OFFCURVE",
"350 88 CURVE",
"321 124 LINE",
"327 0 LINE",
"446.805 0 LINE",
"543 493 LINE",
"422 493 LINE",
"368 371 LINE",
"408 411 LINE",
"403 464 OFFCURVE",
"341 504 OFFCURVE",
"265 504 CURVE SMOOTH",
"115 504 OFFCURVE",
"11 349 OFFCURVE",
"11 198 CURVE SMOOTH",
"11 70 OFFCURVE",
"85 -11 OFFCURVE",
"192 -11 CURVE SMOOTH"
);
},
{
closed = 1;
nodes = (
"190 130 OFFCURVE",
"165 175 OFFCURVE",
"165 229 CURVE SMOOTH",
"165 298 OFFCURVE",
"205 366 OFFCURVE",
"282 366 CURVE SMOOTH",
"344 366 OFFCURVE",
"369 323 OFFCURVE",
"369 269 CURVE SMOOTH",
"369 198 OFFCURVE",
"325 130 OFFCURVE",
"251 130 CURVE SMOOTH"
);
}
);
width = 551;
}
);
leftKerningGroup = c;
note = a;
rightKerningGroup = u;
rightMetricsKey = "=u";
unicode = 0061;
},
{
color = 1;
glyphname = ae;
lastChange = "2020-07-06 17:21:03 +0000";
layers = (
{
anchors = (
{
name = bottom;
position = "{394, 0}";
},
{
name = top;
position = "{490, 493}";
}
);
components = (
{
name = e;
transform = "{1, 0, 0, 1, 368, 0}";
}
);
layerId = "F91D9E91-C1BC-4259-B0D8-112C0CBA2B8E";
paths = (
{
closed = 1;
nodes = (
"270 -5 OFFCURVE",
"368 40 OFFCURVE",
"433 225 CURVE",
"455 301 LINE",
"458 321 OFFCURVE",
"460 339 OFFCURVE",
"460 355 CURVE SMOOTH",
"460 451 OFFCURVE",
"409 498 OFFCURVE",
"311 498 CURVE SMOOTH",
"234 498 OFFCURVE",
"176 471 OFFCURVE",
"115 403 CURVE",
"123 397 LINE",
"181 462 OFFCURVE",
"235 488 OFFCURVE",
"311 488 CURVE SMOOTH",
"402 488 OFFCURVE",
"450 445 OFFCURVE",
"450 362 CURVE SMOOTH",
"450 344 OFFCURVE",
"447 325 OFFCURVE",
"443 303 CURVE SMOOTH",
"437 274 LINE",
"288 274 LINE SMOOTH",
"148 274 OFFCURVE",
"41 226 OFFCURVE",
"41 104 CURVE SMOOTH",
"41 36 OFFCURVE",
"92 -5 OFFCURVE",
"179 -5 CURVE SMOOTH"
);
},
{
closed = 1;
nodes = (
"97 5 OFFCURVE",
"51 43 OFFCURVE",
"51 106 CURVE SMOOTH",
"51 219 OFFCURVE",
"150 264 OFFCURVE",
"287 264 CURVE SMOOTH",
"435 264 LINE",
"385 93 OFFCURVE",
"306 5 OFFCURVE",
"179 5 CURVE SMOOTH"
);
}
);
width = 884;
},
{
anchors = (
{
name = bottom;
position = "{378, 0}";
},
{
name = top;
position = "{474, 493}";
}
);
components = (
{
name = e;
transform = "{1, 0, 0, 1, 364, 0}";
}
);
layerId = "957254E3-B7AD-4837-9092-D4428001DE8E";
paths = (
{
closed = 1;
nodes = (
"241 -11 OFFCURVE",
"343 24 OFFCURVE",
"400 104 CURVE",
"480 409 LINE",
"478 415 OFFCURVE",
"476 421 OFFCURVE",
"473 426 CURVE SMOOTH",
"446 484 OFFCURVE",
"382 504 OFFCURVE",
"321 504 CURVE SMOOTH",
"226 504 OFFCURVE",
"143 478 OFFCURVE",
"60 411 CURVE",
"151 320 LINE",
"198 363 OFFCURVE",
"248 373 OFFCURVE",
"280 373 CURVE SMOOTH",
"324 373 OFFCURVE",
"351 355 OFFCURVE",
"351 325 CURVE SMOOTH",
"351 321 OFFCURVE",
"351 317 OFFCURVE",
"350 313 CURVE SMOOTH",
"347 299 LINE",
"256 299 LINE SMOOTH",
"142 299 OFFCURVE",
"-5 281 OFFCURVE",
"-5 129 CURVE SMOOTH",
"-5 43 OFFCURVE",
"48 -11 OFFCURVE",
"158 -11 CURVE SMOOTH"
);
},
{
closed = 1;
nodes = (
"164 117 OFFCURVE",
"152 132 OFFCURVE",
"152 151 CURVE SMOOTH",
"152 172 OFFCURVE",
"174 191 OFFCURVE",
"224 191 CURVE SMOOTH",
"326 191 LINE",
"317 157 OFFCURVE",
"272 117 OFFCURVE",
"202 117 CURVE SMOOTH"
);
}
);
width = 853;
}
);
leftKerningGroup = a;
leftMetricsKey = "=a";
note = ae;
rightKerningGroup = e;
rightMetricsKey = "=e";
unicode = 00E6;
},
{
color = 1;
glyphname = b;
lastChange = "2020-07-06 17:21:03 +0000";
layers = (
{
anchors = (
{
name = bottom;
position = "{251, 0}";
},
{
name = top;
position = "{196, 697}";
}
);
layerId = "F91D9E91-C1BC-4259-B0D8-112C0CBA2B8E";
paths = (
{
closed = 1;
nodes = (
"434 -5 OFFCURVE",
"538 158 OFFCURVE",
"538 316 CURVE SMOOTH",
"538 429 OFFCURVE",
"477 498 OFFCURVE",
"375 498 CURVE SMOOTH",
"264 498 OFFCURVE",
"171 420 OFFCURVE",
"127 319 CURVE",
"127 318 LINE",
"201 697 LINE",
"191 697 LINE",
"55 0 LINE",
"65 0 LINE",
"100 176 LINE",
"99 175 LINE",
"104 67 OFFCURVE",
"174 -5 OFFCURVE",
"277 -5 CURVE SMOOTH"
);
},
{
closed = 1;
nodes = (
"175 5 OFFCURVE",
"107 79 OFFCURVE",
"107 189 CURVE SMOOTH",
"107 336 OFFCURVE",
"223 488 OFFCURVE",
"374 488 CURVE SMOOTH",
"470 488 OFFCURVE",
"527 424 OFFCURVE",
"527 316 CURVE SMOOTH",
"527 160 OFFCURVE",
"427 5 OFFCURVE",
"276 5 CURVE SMOOTH"
);
}
);
width = 596;
},
{
anchors = (
{
name = bottom;
position = "{227, 0}";
},
{
name = top;
position = "{220, 697}";
}
);
layerId = "957254E3-B7AD-4837-9092-D4428001DE8E";
paths = (
{
closed = 1;
nodes = (
"436 -11 OFFCURVE",
"540 144 OFFCURVE",
"540 295 CURVE SMOOTH",
"540 423 OFFCURVE",
"466 504 OFFCURVE",
"359 504 CURVE SMOOTH",
"301 504 OFFCURVE",
"240 480 OFFCURVE",
"201 405 CURVE",
"230 369 LINE",
"294 697 LINE",
"144 697 LINE",
"8 0 LINE",
"129 0 LINE",
"183 122 LINE",
"143 82 LINE",
"148 29 OFFCURVE",
"210 -11 OFFCURVE",
"286 -11 CURVE SMOOTH"
);
},
{
closed = 1;
nodes = (
"207 127 OFFCURVE",
"182 170 OFFCURVE",
"182 224 CURVE SMOOTH",
"182 295 OFFCURVE",
"226 363 OFFCURVE",
"300 363 CURVE SMOOTH",
"361 363 OFFCURVE",
"386 318 OFFCURVE",
"386 264 CURVE SMOOTH",
"386 195 OFFCURVE",
"346 127 OFFCURVE",
"269 127 CURVE SMOOTH"
);
}
);
width = 551;
}
);
leftKerningGroup = b;
leftMetricsKey = "=idotless";
note = b;
rightKerningGroup = b;
rightMetricsKey = "=|a";
unicode = 0062;
},
{
color = 1;
glyphname = c;
lastChange = "2020-07-12 10:39:34 +0000";
layers = (
{
anchors = (
{
name = bottom;
position = "{233, 0}";
},
{
name = top;
position = "{299, 493}";
}
);
layerId = "F91D9E91-C1BC-4259-B0D8-112C0CBA2B8E";
paths = (
{
closed = 1;
nodes = (
"305 -5 OFFCURVE",
"379 40 OFFCURVE",
"422 120 CURVE",
"413 124 LINE",
"372 48 OFFCURVE",
"303 5 OFFCURVE",
"222 5 CURVE SMOOTH",
"119 5 OFFCURVE",
"68 80 OFFCURVE",
"68 178 CURVE SMOOTH",
"68 326 OFFCURVE",
"168 488 OFFCURVE",
"317 488 CURVE SMOOTH",
"392 488 OFFCURVE",
"447 448 OFFCURVE",
"467 372 CURVE",
"477 373 LINE",
"457 451 OFFCURVE",
"400 498 OFFCURVE",
"317 498 CURVE SMOOTH",
"166 498 OFFCURVE",
"58 337 OFFCURVE",
"58 177 CURVE SMOOTH",
"58 67 OFFCURVE",
"119 -5 OFFCURVE",
"222 -5 CURVE SMOOTH"
);
}
);
width = 502;
},
{
anchors = (
{
name = bottom;
position = "{237, 0}";
},
{
name = top;
position = "{293, 493}";
}
);
layerId = "957254E3-B7AD-4837-9092-D4428001DE8E";
paths = (
{
closed = 1;
nodes = (
"327 -11 OFFCURVE",
"420 37 OFFCURVE",
"461 140 CURVE",
"335 193 LINE",
"314 149 OFFCURVE",
"276 120 OFFCURVE",
"237 120 CURVE SMOOTH",
"183 120 OFFCURVE",
"165 156 OFFCURVE",
"165 200 CURVE SMOOTH",
"165 284 OFFCURVE",
"209 373 OFFCURVE",
"288 373 CURVE SMOOTH",
"338 373 OFFCURVE",
"353 343 OFFCURVE",
"363 309 CURVE",
"504 354 LINE",
"487 455 OFFCURVE",
"407 504 OFFCURVE",
"303 504 CURVE SMOOTH",
"132 504 OFFCURVE",
"9 357 OFFCURVE",
"9 186 CURVE SMOOTH",
"9 82 OFFCURVE",
"79 -11 OFFCURVE",
"224 -11 CURVE SMOOTH"
);
}
);
width = 485;
}
);
leftKerningGroup = c;
leftMetricsKey = "=a";
note = c;
rightKerningGroup = c;
unicode = 0063;
},
{
color = 1;
glyphname = d;
lastChange = "2020-07-06 17:21:03 +0000";
layers = (
{
anchors = (
{
name = bottom;
position = "{263, 0}";
},
{
name = center;
position = "{533, 608}";
},
{
name = top;
position = "{598, 697}";
},
{
name = topright;
position = "{669, 493}";
}
);
layerId = "F91D9E91-C1BC-4259-B0D8-112C0CBA2B8E";
paths = (
{
closed = 1;
nodes = (
"354 -5 OFFCURVE",
"448 74 OFFCURVE",
"492 176 CURVE",
"492 177 LINE",
"457 0 LINE",
"467 0 LINE",
"603 697 LINE",
"593 697 LINE",
"519 317 LINE",
"520 318 LINE",
"514 425 OFFCURVE",
"444 498 OFFCURVE",
"341 498 CURVE SMOOTH",
"192 498 OFFCURVE",
"60 352 OFFCURVE",
"60 190 CURVE SMOOTH",
"60 75 OFFCURVE",
"135 -5 OFFCURVE",
"243 -5 CURVE SMOOTH"
);
},
{
closed = 1;
nodes = (
"141 5 OFFCURVE",
"70 81 OFFCURVE",
"70 190 CURVE SMOOTH",
"70 346 OFFCURVE",
"198 488 OFFCURVE",
"341 488 CURVE SMOOTH",
"442 488 OFFCURVE",
"511 414 OFFCURVE",
"511 305 CURVE SMOOTH",
"511 157 OFFCURVE",
"395 5 OFFCURVE",
"243 5 CURVE SMOOTH"
);
}
);
width = 618;
},
{
anchors = (
{
name = bottom;
position = "{231, 0}";
},
{
name = center;
position = "{477, 589}";
},
{
name = top;
position = "{513, 697}";
},
{
name = topright;
position = "{665, 493}";
}
);
layerId = "957254E3-B7AD-4837-9092-D4428001DE8E";
paths = (
{
closed = 1;
nodes = (
"250 -11 OFFCURVE",
"311 13 OFFCURVE",
"350 88 CURVE",
"326 122 LINE",
"332 0 LINE",
"452 0 LINE",
"588 697 LINE",
"438 697 LINE",
"374 369 LINE",
"408 411 LINE",
"403 464 OFFCURVE",
"341 504 OFFCURVE",
"265 504 CURVE SMOOTH",
"115 504 OFFCURVE",
"11 349 OFFCURVE",
"11 198 CURVE SMOOTH",
"11 70 OFFCURVE",
"85 -11 OFFCURVE",
"192 -11 CURVE SMOOTH"
);
},
{
closed = 1;
nodes = (
"190 130 OFFCURVE",
"165 175 OFFCURVE",
"165 229 CURVE SMOOTH",
"165 298 OFFCURVE",
"205 366 OFFCURVE",
"282 366 CURVE SMOOTH",
"344 366 OFFCURVE",
"369 323 OFFCURVE",
"369 269 CURVE SMOOTH",
"369 198 OFFCURVE",
"325 130 OFFCURVE",
"251 130 CURVE SMOOTH"
);
}
);
width = 556;
}
);
leftKerningGroup = c;
leftMetricsKey = "=a";
note = d;
rightMetricsKey = "=idotless";
unicode = 0064;
},
{
color = 1;
glyphname = eth;
lastChange = "2020-07-06 17:21:03 +0000";
layers = (
{
layerId = "F91D9E91-C1BC-4259-B0D8-112C0CBA2B8E";
paths = (
{
closed = 1;
nodes = (
"435 -5 OFFCURVE",
"579 237 OFFCURVE",
"579 480 CURVE SMOOTH",
"579 628 OFFCURVE",
"495 703 OFFCURVE",
"240 707 CURVE",
"239 697 LINE",
"463 693 OFFCURVE",
"570 636 OFFCURVE",
"570 475 CURVE SMOOTH",
"570 424 OFFCURVE",
"559 363 OFFCURVE",
"538 290 CURVE",
"541 306 OFFCURVE",
"542 323 OFFCURVE",
"542 340 CURVE SMOOTH",
"542 427 OFFCURVE",
"504 510 OFFCURVE",
"392 510 CURVE SMOOTH",
"206 510 OFFCURVE",
"52 342 OFFCURVE",
"52 158 CURVE SMOOTH",
"52 59 OFFCURVE",
"113 -5 OFFCURVE",
"217 -5 CURVE SMOOTH"
);
},
{
closed = 1;
nodes = (
"120 5 OFFCURVE",
"62 65 OFFCURVE",
"62 158 CURVE SMOOTH",
"62 336 OFFCURVE",
"208 500 OFFCURVE",
"392 500 CURVE SMOOTH",
"497 500 OFFCURVE",
"535 421 OFFCURVE",
"535 338 CURVE SMOOTH",
"535 187 OFFCURVE",
"389 5 OFFCURVE",
"217 5 CURVE SMOOTH"
);
},
{
closed = 1;
nodes = (
"681 672 LINE",
"679 680 LINE",
"359 571 LINE",
"361 563 LINE"
);
}
);
width = 617;
},
{
layerId = "957254E3-B7AD-4837-9092-D4428001DE8E";
paths = (
{
closed = 1;
nodes = (
"395 -6 OFFCURVE",
"531 236 OFFCURVE",
"531 445 CURVE SMOOTH",
"531 594 OFFCURVE",
"463 725 OFFCURVE",
"306 743 CURVE",
"272 643 LINE",
"371 638 OFFCURVE",
"405 566 OFFCURVE",
"405 485 CURVE SMOOTH",
"405 469 OFFCURVE",
"403 445 OFFCURVE",
"402 431 CURVE",
"397 442 OFFCURVE",
"389 452 OFFCURVE",
"381 459 CURVE SMOOTH",
"353 484 OFFCURVE",
"314 492 OFFCURVE",
"288 492 CURVE SMOOTH",
"109 492 OFFCURVE",
"-5 321 OFFCURVE",
"-5 179 CURVE SMOOTH",
"-5 79 OFFCURVE",
"52 -6 OFFCURVE",
"182 -6 CURVE SMOOTH"
);
},
{
closed = 1;
nodes = (
"161 123 OFFCURVE",
"138 164 OFFCURVE",
"138 212 CURVE SMOOTH",
"138 282 OFFCURVE",
"187 369 OFFCURVE",
"278 369 CURVE SMOOTH",
"329 369 OFFCURVE",
"352 332 OFFCURVE",
"352 287 CURVE SMOOTH",
"352 215 OFFCURVE",
"296 123 OFFCURVE",
"208 123 CURVE SMOOTH"
);
},
{
closed = 1;
nodes = (
"557 612 LINE",
"556 672 LINE",
"204 586 LINE",
"205 526 LINE"
);
}
);
width = 502;
}
);
leftKerningGroup = c;
note = eth;
rightKerningGroup = d;
unicode = 00F0;
},
{
color = 1;
glyphname = e;
lastChange = "2020-07-06 17:21:03 +0000";
layers = (
{
anchors = (
{
name = bottom;
position = "{209, 0}";
},
{
name = ogonek;
position = "{284, 0}";
},
{
name = top;
position = "{305, 493}";
}
);
layerId = "F91D9E91-C1BC-4259-B0D8-112C0CBA2B8E";
paths = (
{
closed = 1;
nodes = (
"304 -5 OFFCURVE",
"352 14 OFFCURVE",
"420 70 CURVE",
"414 78 LINE",
"348 23 OFFCURVE",
"303 5 OFFCURVE",
"229 5 CURVE SMOOTH",
"127 5 OFFCURVE",
"67 69 OFFCURVE",
"67 182 CURVE SMOOTH",
"67 204 OFFCURVE",
"70 228 OFFCURVE",
"75 254 CURVE",
"70 251 LINE",
"461 251 LINE",
"468 268 OFFCURVE",
"475 308 OFFCURVE",
"475 331 CURVE SMOOTH",
"475 410 OFFCURVE",
"435 498 OFFCURVE",
"308 498 CURVE SMOOTH",
"145 498 OFFCURVE",
"57 321 OFFCURVE",
"57 182 CURVE SMOOTH",
"57 66 OFFCURVE",
"120 -5 OFFCURVE",
"228 -5 CURVE SMOOTH"
);
},
{
closed = 1;
nodes = (
"458 260 LINE",
"71 260 LINE",
"75 257 LINE",
"104 392 OFFCURVE",
"195 488 OFFCURVE",
"307 488 CURVE SMOOTH",
"427 488 OFFCURVE",
"465 407 OFFCURVE",
"465 333 CURVE SMOOTH",
"465 312 OFFCURVE",
"459 274 OFFCURVE",
"453 256 CURVE"
);
}
);
width = 516;
},
{
anchors = (
{
name = bottom;
position = "{195, 0}";
},
{
name = ogonek;
position = "{292, 0}";
},
{
name = top;
position = "{291, 493}";
}
);
layerId = "957254E3-B7AD-4837-9092-D4428001DE8E";
paths = (
{
closed = 1;
nodes = (
"300 -11 OFFCURVE",
"375 22 OFFCURVE",
"438 81 CURVE",
"350 173 LINE",
"316 139 OFFCURVE",
"275 125 OFFCURVE",
"238 125 CURVE SMOOTH",
"175 125 OFFCURVE",
"149 154 OFFCURVE",
"149 192 CURVE SMOOTH",
"149 202 OFFCURVE",
"151 212 OFFCURVE",
"154 223 CURVE",
"104 194 LINE",
"473 194 LINE",
"482 227 OFFCURVE",
"490 268 OFFCURVE",
"490 308 CURVE SMOOTH",
"490 425 OFFCURVE",
"426 504 OFFCURVE",
"295 504 CURVE SMOOTH",
"84 504 OFFCURVE",
"2 310 OFFCURVE",
"2 186 CURVE SMOOTH",
"2 81 OFFCURVE",
"59 -11 OFFCURVE",
"213 -11 CURVE SMOOTH"
);
},
{
closed = 1;
nodes = (
"363 305 LINE",
"162 305 LINE",
"161 287 LINE",
"167 318 OFFCURVE",
"198 379 OFFCURVE",
"274 379 CURVE SMOOTH",
"320 379 OFFCURVE",
"352 356 OFFCURVE",
"352 316 CURVE SMOOTH",
"352 307 OFFCURVE",
"349 295 OFFCURVE",
"346 286 CURVE"
);
}
);
width = 489;
}
);
leftKerningGroup = c;
leftMetricsKey = o;
note = e;
rightKerningGroup = e;
unicode = 0065;
},
{
color = 1;
glyphname = f;
lastChange = "2020-07-12 12:48:56 +0000";
layers = (
{
anchors = (
{
name = bottom;
position = "{101, 0}";
},
{
name = top;
position = "{266, 697}";
}
);
layerId = "F91D9E91-C1BC-4259-B0D8-112C0CBA2B8E";
paths = (
{
closed = 1;
nodes = (
"106 0 LINE",
"200 483 LINE",
"373 483 LINE",
"375 493 LINE",
"202 493 LINE",
"219 580 LINE SMOOTH",
"234 656 OFFCURVE",
"277 692 OFFCURVE",
"340 692 CURVE SMOOTH",
"366 692 OFFCURVE",
"385 687 OFFCURVE",
"403 677 CURVE",
"408 685 LINE",
"391 696 OFFCURVE",
"369 702 OFFCURVE",
"341 702 CURVE SMOOTH",
"272 702 OFFCURVE",
"225 662 OFFCURVE",
"209 580 CURVE SMOOTH",
"192 493 LINE",
"76 493 LINE",
"74 483 LINE",
"190 483 LINE",
"96 0 LINE"
);
}
);
width = 355;
},
{
anchors = (
{
name = bottom;
position = "{113, 0}";
},
{
name = top;
position = "{247, 697}";
}
);
layerId = "957254E3-B7AD-4837-9092-D4428001DE8E";
paths = (
{
closed = 1;
nodes = (
"189 0 LINE",
"262 376 LINE",
"360 376 LINE",
"383 493 LINE",
"285 493 LINE",
"293 536 LINE SMOOTH",
"298 562 OFFCURVE",
"308 583 OFFCURVE",
"333 583 CURVE SMOOTH",
"346 583 OFFCURVE",
"358 577 OFFCURVE",
"369 571 CURVE",
"439 686 LINE",
"412 699 OFFCURVE",
"385 708 OFFCURVE",
"341 708 CURVE SMOOTH",
"254 708 OFFCURVE",
"170 674 OFFCURVE",
"143 537 CURVE SMOOTH",
"135 493 LINE",
"46 493 LINE",
"23 376 LINE",
"111 376 LINE",
"38 0 LINE"
);
}
);
width = 327;
}
);
leftKerningGroup = f;
note = f;
rightKerningGroup = f;
unicode = 0066;
},
{
color = 1;
glyphname = g;
lastChange = "2020-07-06 17:21:03 +0000";
layers = (
{
anchors = (
{
name = bottom;
position = "{224, -206}";
},
{
name = top;
position = "{357, 493}";
}
);
layerId = "F91D9E91-C1BC-4259-B0D8-112C0CBA2B8E";
paths = (
{
closed = 1;
nodes = (
"357 -209 OFFCURVE",
"443 -113 OFFCURVE",
"473 40 CURVE SMOOTH",
"561 493 LINE",
"551 493 LINE",
"517 321 LINE",
"518 322 LINE",
"513 426 OFFCURVE",
"442 498 OFFCURVE",
"340 498 CURVE SMOOTH",
"193 498 OFFCURVE",
"61 356 OFFCURVE",
"61 198 CURVE SMOOTH",
"61 85 OFFCURVE",
"137 5 OFFCURVE",
"244 5 CURVE SMOOTH",
"349 5 OFFCURVE",
"445 79 OFFCURVE",
"491 180 CURVE",
"491 181 LINE",
"463 40 LINE SMOOTH",
"435 -102 OFFCURVE",
"353 -199 OFFCURVE",
"220 -199 CURVE SMOOTH",
"110 -199 OFFCURVE",
"46 -147 OFFCURVE",
"31 -66 CURVE",
"21 -70 LINE",
"39 -156 OFFCURVE",
"106 -209 OFFCURVE",
"219 -209 CURVE SMOOTH"
);
},
{
closed = 1;
nodes = (
"142 15 OFFCURVE",
"71 90 OFFCURVE",
"71 198 CURVE SMOOTH",
"71 350 OFFCURVE",
"198 488 OFFCURVE",
"340 488 CURVE SMOOTH",
"441 488 OFFCURVE",
"510 415 OFFCURVE",
"510 307 CURVE SMOOTH",
"510 158 OFFCURVE",
"388 15 OFFCURVE",
"244 15 CURVE SMOOTH"
);
}
);
width = 616;
},
{
anchors = (
{
name = bottom;
position = "{204, -208}";
},
{
name = top;
position = "{332, 493}";
}
);
layerId = "957254E3-B7AD-4837-9092-D4428001DE8E";
paths = (
{
closed = 1;
nodes = (
"336 -218 OFFCURVE",
"428 -144 OFFCURVE",
"459 15 CURVE SMOOTH",
"552 493 LINE",
"430 493 LINE",
"376 369 LINE",
"414 401 LINE",
"401 480 OFFCURVE",
"334 504 OFFCURVE",
"271 504 CURVE SMOOTH",
"107 504 OFFCURVE",
"12 344 OFFCURVE",
"12 207 CURVE SMOOTH",
"12 106 OFFCURVE",
"64 17 OFFCURVE",
"180 17 CURVE SMOOTH",
"244 17 OFFCURVE",
"312 40 OFFCURVE",
"360 122 CURVE",
"334 152 LINE",
"307 15 LINE SMOOTH",
"290 -72 OFFCURVE",
"236 -86 OFFCURVE",
"192 -86 CURVE SMOOTH",
"134 -86 OFFCURVE",
"107 -63 OFFCURVE",
"87 -36 CURVE",
"-34 -125 LINE",
"1 -173 OFFCURVE",
"72 -218 OFFCURVE",
"194 -218 CURVE SMOOTH"
);
},
{
closed = 1;
nodes = (
"195 148 OFFCURVE",
"169 190 OFFCURVE",
"169 238 CURVE SMOOTH",
"169 302 OFFCURVE",
"215 376 OFFCURVE",
"295 376 CURVE SMOOTH",
"349 376 OFFCURVE",
"373 334 OFFCURVE",
"373 286 CURVE SMOOTH",
"373 222 OFFCURVE",
"329 148 OFFCURVE",
"251 148 CURVE SMOOTH"
);
}
);
width = 560;
}
);
leftKerningGroup = c;
leftMetricsKey = "=d";
note = g;
rightKerningGroup = g;
rightMetricsKey = "=u";
unicode = 0067;
},
{
color = 1;
glyphname = h;
lastChange = "2020-07-06 17:21:03 +0000";
layers = (
{
anchors = (
{
name = bottom;
position = "{223, 0}";
},
{
name = center;
position = "{247, 608}";
},
{
name = top;
position = "{196, 697}";
}
);
layerId = "F91D9E91-C1BC-4259-B0D8-112C0CBA2B8E";
paths = (
{
closed = 1;
nodes = (
"65 0 LINE",
"116 263 LINE SMOOTH",
"145 410 OFFCURVE",
"218 488 OFFCURVE",
"328 488 CURVE SMOOTH",
"427 488 OFFCURVE",
"463 423 OFFCURVE",
"438 293 CURVE SMOOTH",
"381 0 LINE",
"391 0 LINE",
"448 295 LINE SMOOTH",
"474 429 OFFCURVE",
"433 498 OFFCURVE",
"325 498 CURVE SMOOTH",
"237 498 OFFCURVE",
"172 450 OFFCURVE",
"133 355 CURVE",
"134 355 LINE",
"201 697 LINE",
"191 697 LINE",
"55 0 LINE"
);
}
);
width = 530;
},
{
anchors = (
{
name = bottom;
position = "{250, 0}";
},
{
name = center;
position = "{254, 589}";
},
{
name = top;
position = "{221, 697}";
}
);
layerId = "957254E3-B7AD-4837-9092-D4428001DE8E";
paths = (
{
closed = 1;
nodes = (
"159 0 LINE",
"194 179 LINE SMOOTH",
"218 304 OFFCURVE",
"244 373 OFFCURVE",
"323 373 CURVE SMOOTH",
"377 373 OFFCURVE",
"397 346 OFFCURVE",
"386 290 CURVE SMOOTH",
"330 0 LINE",
"481 0 LINE",
"545 328 LINE SMOOTH",
"566 438 OFFCURVE",
"510 504 OFFCURVE",
"397 504 CURVE SMOOTH",
"321 504 OFFCURVE",
"265 477 OFFCURVE",
"220 417 CURVE",
"234 385 LINE",
"295 697 LINE",
"144 697 LINE",
"8 0 LINE"
);
}
);
width = 572;
}
);
leftKerningGroup = b;
leftMetricsKey = "=b";
note = h;
rightKerningGroup = h;
rightMetricsKey = n;
unicode = 0068;
},
{
color = 1;
glyphname = idotless;
lastChange = "2020-07-06 17:21:03 +0000";
layers = (
{
anchors = (
{
name = bottom;
position = "{60, 0}";
},
{
name = ogonek;
position = "{65, 0}";
},
{
name = top;
position = "{156, 493}";
}
);
layerId = "F91D9E91-C1BC-4259-B0D8-112C0CBA2B8E";
paths = (
{
closed = 1;
nodes = (
"65 0 LINE",
"161 493 LINE",
"151 493 LINE",
"55 0 LINE"
);
}
);
width = 216;
},
{
anchors = (
{
name = bottom;
position = "{84, 0}";
},
{
name = ogonek;
position = "{159, 0}";
},
{
name = top;
position = "{180, 493}";
}
);
layerId = "957254E3-B7AD-4837-9092-D4428001DE8E";
paths = (
{
closed = 1;
nodes = (
"159 0 LINE",
"255 493 LINE",
"104 493 LINE",
"8 0 LINE"
);
}
);
width = 263;
}
);
leftKerningGroup = i;
note = dotlessi;
rightKerningGroup = i;
unicode = 0131;
},
{
color = 1;
glyphname = jdotless;
lastChange = "2020-07-06 17:21:03 +0000";
layers = (
{
anchors = (
{
name = bottom;
position = "{11, -254}";
},
{
name = top;
position = "{156, 493}";
}
);
guideLines = (
{
position = "{206, -204}";
}
);
layerId = "F91D9E91-C1BC-4259-B0D8-112C0CBA2B8E";
paths = (
{
closed = 1;
nodes = (
"2 -209 OFFCURVE",
"30 -180 OFFCURVE",
"43 -114 CURVE SMOOTH",
"161 493 LINE",
"151 493 LINE",
"33 -114 LINE SMOOTH",
"21 -174 OFFCURVE",
"-4 -200 OFFCURVE",
"-45 -200 CURVE SMOOTH",
"-59 -200 OFFCURVE",
"-77 -196 OFFCURVE",
"-97 -188 CURVE",
"-100 -198 LINE",
"-79 -205 OFFCURVE",
"-60 -209 OFFCURVE",
"-44 -209 CURVE SMOOTH"
);
}
);
width = 216;
},
{
anchors = (
{
name = bottom;
position = "{36, -254}";
},
{
name = top;
position = "{181, 493}";
}
);
guideLines = (
{
position = "{204, -204}";
}
);
layerId = "957254E3-B7AD-4837-9092-D4428001DE8E";
paths = (
{
closed = 1;
nodes = (
"63 -215 OFFCURVE",
"127 -172 OFFCURVE",
"145 -78 CURVE SMOOTH",
"256 493 LINE",
"105 493 LINE",
"0 -46 LINE SMOOTH",
"-6 -80 OFFCURVE",
"-21 -84 OFFCURVE",
"-45 -84 CURVE SMOOTH",
"-56 -84 OFFCURVE",
"-70 -82 OFFCURVE",
"-84 -79 CURVE",
"-107 -199 LINE",
"-79 -209 OFFCURVE",
"-44 -215 OFFCURVE",
"-15 -215 CURVE SMOOTH"
);
}
);
width = 265;
}
);
note = uni0237;
unicode = 0237;
},
{
color = 1;
glyphname = k;
lastChange = "2020-07-12 11:13:25 +0000";
layers = (
{
anchors = (
{
name = bottom;
position = "{246, 0}";
},
{
name = top;
position = "{196, 697}";
}
);
layerId = "F91D9E91-C1BC-4259-B0D8-112C0CBA2B8E";
paths = (
{
closed = 1;
nodes = (
"65 0 LINE",
"94 147 LINE",
"497 493 LINE",
"482 493 LINE",
"96 162 LINE",
"201 697 LINE",
"191 697 LINE",
"55 0 LINE"
);
},
{
closed = 1;
nodes = (
"438 0 LINE",
"288 318 LINE",
"281 310 LINE",
"427 0 LINE"
);
}
);
width = 520;
},
{
anchors = (
{
name = bottom;
position = "{250, 0}";
},
{
name = top;
position = "{405, 710}";
}
);
layerId = "957254E3-B7AD-4837-9092-D4428001DE8E";
paths = (
{
closed = 1;
nodes = (
"160 0 LINE",
"188 143 LINE",
"599 493 LINE",
"398 493 LINE",
"224 330 LINE",
"296 697 LINE",
"145 697 LINE",
"9 0 LINE"
);
},
{
closed = 1;
nodes = (
"520 0 LINE",
"376 322 LINE",
"257 221 LINE",
"351 0 LINE"
);
}
);
width = 550;
}
);
leftKerningGroup = b;
note = k;
rightKerningGroup = k;
unicode = 006B;
},
{
color = 1;
glyphname = kgreenlandic;
lastChange = "2020-07-06 17:21:03 +0000";
layers = (
{
anchors = (
{
name = bottom;
position = "{212, 0}";
},
{
name = top;
position = "{308, 493}";
}
);
layerId = "F91D9E91-C1BC-4259-B0D8-112C0CBA2B8E";
paths = (
{
closed = 1;
nodes = (
"65 0 LINE",
"94 147 LINE",
"281 307 LINE",
"426 0 LINE",
"438 0 LINE",
"289 315 LINE",
"497 493 LINE",
"482 493 LINE",
"96 162 LINE",
"161 493 LINE",
"151 493 LINE",
"55 0 LINE"
);
}
);
width = 520;
},
{
anchors = (
{
name = bottom;
position = "{225, 0}";
},
{
name = top;
position = "{321, 493}";
}
);
layerId = "957254E3-B7AD-4837-9092-D4428001DE8E";
paths = (
{
closed = 1;
nodes = (
"159 0 LINE",
"187 143 LINE",
"252 206 LINE",
"340 0 LINE",
"519 0 LINE",
"385 308 LINE",
"598 493 LINE",
"403 493 LINE",
"222 323 LINE",
"255 493 LINE",
"104 493 LINE",
"8 0 LINE"
);
}
);
width = 549;
}
);
leftKerningGroup = m;
note = kgreenlandic;
rightKerningGroup = k;
unicode = 0138;
},
{
color = 1;
glyphname = l;
lastChange = "2020-07-06 17:21:03 +0000";
layers = (
{
anchors = (
{
name = bottom;
position = "{100, 0}";
},
{
name = center;
position = "{161, 417}";
},
{
name = top;
position = "{194, 697}";
},
{
name = topright;
position = "{272, 493}";
}
);
layerId = "F91D9E91-C1BC-4259-B0D8-112C0CBA2B8E";
paths = (
{
closed = 1;
nodes = (
"137 -5 OFFCURVE",
"158 -1 OFFCURVE",
"182 6 CURVE",
"181 16 LINE",
"158 8 OFFCURVE",
"138 4 OFFCURVE",
"123 4 CURVE SMOOTH",
"83 4 OFFCURVE",
"69 30 OFFCURVE",
"81 90 CURVE SMOOTH",
"199 697 LINE",
"189 697 LINE",
"71 90 LINE SMOOTH",
"58 24 OFFCURVE",
"75 -5 OFFCURVE",
"122 -5 CURVE SMOOTH"
);
}
);
width = 257;
},
{
anchors = (
{
name = bottom;
position = "{91, 0}";
},
{
name = center;
position = "{152, 364}";
},
{
name = top;
position = "{214, 697}";
},
{
name = topright;
position = "{382, 493}";
}
);
layerId = "957254E3-B7AD-4837-9092-D4428001DE8E";
paths = (
{
closed = 1;
nodes = (
"151 -11 OFFCURVE",
"182 -7 OFFCURVE",
"215 5 CURVE",
"238 123 LINE",
"225 120 OFFCURVE",
"213 119 OFFCURVE",
"205 119 CURVE SMOOTH",
"186 119 OFFCURVE",
"177 122 OFFCURVE",
"181 145 CURVE SMOOTH",
"289 697 LINE",
"138 697 LINE",
"26 125 LINE SMOOTH",
"7 30 OFFCURVE",
"57 -11 OFFCURVE",
"129 -11 CURVE SMOOTH"
);
}
);
width = 277;
}
);
leftKerningGroup = b;
note = l;
rightKerningGroup = d;
unicode = 006C;
},
{
color = 1;
glyphname = m;
lastChange = "2020-07-06 17:21:03 +0000";
layers = (
{
anchors = (
{
name = bottom;
position = "{361, 0}";
},
{
name = top;
position = "{457, 493}";
}
);
layerId = "F91D9E91-C1BC-4259-B0D8-112C0CBA2B8E";
paths = (
{
closed = 1;
nodes = (
"66 0 LINE",
"123 293 LINE SMOOTH",
"147 419 OFFCURVE",
"222 488 OFFCURVE",
"315 488 CURVE SMOOTH",
"388 488 OFFCURVE",
"426 450 OFFCURVE",
"426 368 CURVE SMOOTH",
"426 346 OFFCURVE",
"423 321 OFFCURVE",
"418 293 CURVE SMOOTH",
"361 0 LINE",
"372 0 LINE",
"429 293 LINE SMOOTH",
"453 419 OFFCURVE",
"528 488 OFFCURVE",
"621 488 CURVE SMOOTH",
"703 488 OFFCURVE",
"732 441 OFFCURVE",
"732 366 CURVE SMOOTH",
"732 340 OFFCURVE",
"729 311 OFFCURVE",
"723 280 CURVE SMOOTH",
"668 0 LINE",
"679 0 LINE",
"733 280 LINE SMOOTH",
"739 312 OFFCURVE",
"743 342 OFFCURVE",
"743 368 CURVE SMOOTH",
"743 449 OFFCURVE",
"709 498 OFFCURVE",
"622 498 CURVE SMOOTH",
"540 498 OFFCURVE",
"472 446 OFFCURVE",
"434 350 CURVE",
"436 350 LINE",
"442 453 OFFCURVE",
"400 498 OFFCURVE",
"315 498 CURVE SMOOTH",
"239 498 OFFCURVE",
"172 454 OFFCURVE",
"135 367 CURVE",
"136 367 LINE",
"161 493 LINE",
"151 493 LINE",
"55 0 LINE"
);
}
);
width = 818;
},
{
anchors = (
{
name = bottom;
position = "{377, 0}";
},
{
name = top;
position = "{473, 493}";
}
);
layerId = "957254E3-B7AD-4837-9092-D4428001DE8E";
paths = (
{
closed = 1;
nodes = (
"160 0 LINE",
"210 259 LINE SMOOTH",
"225 339 OFFCURVE",
"256 373 OFFCURVE",
"306 373 CURVE SMOOTH",
"348 373 OFFCURVE",
"366 348 OFFCURVE",
"366 309 CURVE SMOOTH",
"366 298 OFFCURVE",
"364 286 OFFCURVE",
"362 274 CURVE SMOOTH",
"309 0 LINE",
"459 0 LINE",
"507 249 LINE SMOOTH",
"525 341 OFFCURVE",
"553 373 OFFCURVE",
"606 373 CURVE SMOOTH",
"649 373 OFFCURVE",
"665 345 OFFCURVE",
"665 307 CURVE SMOOTH",
"665 296 OFFCURVE",
"663 284 OFFCURVE",
"661 271 CURVE SMOOTH",
"608 0 LINE",
"759 0 LINE",
"821 318 LINE SMOOTH",
"824 333 OFFCURVE",
"825 347 OFFCURVE",
"825 360 CURVE SMOOTH",
"825 446 OFFCURVE",
"769 504 OFFCURVE",
"672 504 CURVE SMOOTH",
"593 504 OFFCURVE",
"505 464 OFFCURVE",
"451 349 CURVE",
"510 341 LINE",
"514 445 OFFCURVE",
"467 504 OFFCURVE",
"371 504 CURVE SMOOTH",
"297 504 OFFCURVE",
"225 459 OFFCURVE",
"187 379 CURVE",
"224 364 LINE",
"219 493 LINE",
"104 493 LINE",
"9 0 LINE"
);
}
);
width = 850;
}
);
leftKerningGroup = m;
note = m;
rightKerningGroup = h;
unicode = 006D;
},
{
color = 1;
glyphname = n;
lastChange = "2020-07-06 17:21:03 +0000";
layers = (
{
anchors = (
{
name = bottom;
position = "{223, 0}";
},
{
name = top;
position = "{314, 493}";
}
);
layerId = "F91D9E91-C1BC-4259-B0D8-112C0CBA2B8E";
paths = (
{
closed = 1;
nodes = (
"65 0 LINE",
"116 263 LINE SMOOTH",
"146 419 OFFCURVE",
"224 488 OFFCURVE",
"328 488 CURVE SMOOTH",
"405 488 OFFCURVE",
"446 449 OFFCURVE",
"446 365 CURVE SMOOTH",
"446 344 OFFCURVE",
"443 320 OFFCURVE",
"438 293 CURVE SMOOTH",
"381 0 LINE",
"391 0 LINE",
"448 295 LINE SMOOTH",
"453 322 OFFCURVE",
"456 346 OFFCURVE",
"456 367 CURVE SMOOTH",
"456 458 OFFCURVE",
"408 498 OFFCURVE",
"325 498 CURVE SMOOTH",
"243 498 OFFCURVE",
"173 454 OFFCURVE",
"133 355 CURVE",
"134 355 LINE",
"161 493 LINE",
"151 493 LINE",
"55 0 LINE"
);
}
);
width = 530;
},
{
anchors = (
{
name = bottom;
position = "{234, 0}";
},
{
name = top;
position = "{330, 493}";
}
);
layerId = "957254E3-B7AD-4837-9092-D4428001DE8E";
paths = (
{
closed = 1;
nodes = (
"159 0 LINE",
"204 230 LINE SMOOTH",
"214 284 OFFCURVE",
"232 373 OFFCURVE",
"325 373 CURVE SMOOTH",
"377 373 OFFCURVE",
"388 345 OFFCURVE",
"388 316 CURVE SMOOTH",
"388 300 OFFCURVE",
"385 285 OFFCURVE",
"383 272 CURVE SMOOTH",
"330 0 LINE",
"481 0 LINE",
"545 328 LINE SMOOTH",
"548 343 OFFCURVE",
"549 358 OFFCURVE",
"549 371 CURVE SMOOTH",
"549 454 OFFCURVE",
"495 504 OFFCURVE",
"397 504 CURVE SMOOTH",
"335 504 OFFCURVE",
"272 487 OFFCURVE",
"220 417 CURVE",
"240 417 LINE",
"225 493 LINE",
"104 493 LINE",
"8 0 LINE"
);
}
);
width = 572;
}
);
leftKerningGroup = m;
leftMetricsKey = m;
note = n;
rightKerningGroup = h;
rightMetricsKey = m;
unicode = 006E;
},
{
color = 1;
glyphname = eng;
lastChange = "2020-07-06 17:21:03 +0000";
layers = (
{
guideLines = (
{
position = "{206, -204}";
}
);
layerId = "F91D9E91-C1BC-4259-B0D8-112C0CBA2B8E";
paths = (
{
closed = 1;
nodes = (
"328 -209 OFFCURVE",
"356 -180 OFFCURVE",
"369 -114 CURVE SMOOTH",
"455 328 LINE SMOOTH",
"458 345 OFFCURVE",
"460 360 OFFCURVE",
"460 375 CURVE SMOOTH",
"460 455 OFFCURVE",
"411 498 OFFCURVE",
"325 498 CURVE SMOOTH",
"243 498 OFFCURVE",
"173 454 OFFCURVE",
"138 380 CURVE",
"139 379 LINE",
"161 493 LINE",
"151 493 LINE",
"55 0 LINE",
"65 0 LINE",
"126 313 LINE SMOOTH",
"146 419 OFFCURVE",
"225 488 OFFCURVE",
"325 488 CURVE SMOOTH",
"406 488 OFFCURVE",
"448 447 OFFCURVE",
"448 369 CURVE SMOOTH",
"448 352 OFFCURVE",
"446 333 OFFCURVE",
"442 313 CURVE SMOOTH",
"359 -114 LINE SMOOTH",
"347 -174 OFFCURVE",
"322 -200 OFFCURVE",
"281 -200 CURVE SMOOTH",
"267 -200 OFFCURVE",
"249 -196 OFFCURVE",
"229 -188 CURVE",
"226 -198 LINE",
"247 -205 OFFCURVE",
"266 -209 OFFCURVE",
"282 -209 CURVE SMOOTH"
);
}
);
width = 532;
},
{
guideLines = (
{
position = "{205, -204}";
}
);
layerId = "957254E3-B7AD-4837-9092-D4428001DE8E";
paths = (
{
closed = 1;
nodes = (
"392 -215 OFFCURVE",
"450 -164 OFFCURVE",
"466 -78 CURVE SMOOTH",
"545 328 LINE SMOOTH",
"548 343 OFFCURVE",
"549 358 OFFCURVE",
"549 372 CURVE SMOOTH",
"549 455 OFFCURVE",
"495 504 OFFCURVE",
"397 504 CURVE SMOOTH",
"311 504 OFFCURVE",
"246 466 OFFCURVE",
"204 392 CURVE",
"229 360 LINE",
"225 493 LINE",
"104 493 LINE",
"8 0 LINE",
"159 0 LINE",
"194 179 LINE SMOOTH",
"224 338 OFFCURVE",
"248 373 OFFCURVE",
"323 373 CURVE SMOOTH",
"364 373 OFFCURVE",
"388 349 OFFCURVE",
"388 310 CURVE SMOOTH",
"388 303 OFFCURVE",
"387 297 OFFCURVE",
"386 290 CURVE SMOOTH",
"319 -57 LINE SMOOTH",
"316 -77 OFFCURVE",
"307 -84 OFFCURVE",
"286 -84 CURVE SMOOTH",
"277 -84 OFFCURVE",
"267 -83 OFFCURVE",
"254 -79 CURVE",
"230 -199 LINE",
"257 -210 OFFCURVE",
"284 -215 OFFCURVE",
"312 -215 CURVE SMOOTH"
);
}
);
width = 574;
}
);
leftKerningGroup = m;
note = eng;
rightKerningGroup = h;
unicode = 014B;
},
{
glyphname = nhookleft;
lastChange = "2020-07-06 17:21:03 +0000";
layers = (
{
layerId = "F91D9E91-C1BC-4259-B0D8-112C0CBA2B8E";
paths = (
{
closed = 1;
nodes = (
"10 -209 OFFCURVE",
"38 -180 OFFCURVE",
"49 -114 CURVE SMOOTH",
"125 313 LINE SMOOTH",
"143 419 OFFCURVE",
"221 488 OFFCURVE",
"320 488 CURVE SMOOTH",
"404 488 OFFCURVE",
"446 446 OFFCURVE",
"446 365 CURVE SMOOTH",
"446 349 OFFCURVE",
"444 332 OFFCURVE",
"441 313 CURVE SMOOTH",
"386 0 LINE",
"396 0 LINE",
"453 328 LINE SMOOTH",
"456 344 OFFCURVE",
"457 359 OFFCURVE",
"457 372 CURVE SMOOTH",
"457 454 OFFCURVE",
"407 498 OFFCURVE",
"321 498 CURVE SMOOTH",
"238 498 OFFCURVE",
"170 454 OFFCURVE",
"136 381 CURVE",
"156 493 LINE",
"146 493 LINE",
"39 -114 LINE SMOOTH",
"29 -174 OFFCURVE",
"4 -200 OFFCURVE",
"-36 -200 CURVE SMOOTH",
"-51 -200 OFFCURVE",
"-69 -196 OFFCURVE",
"-89 -188 CURVE",
"-92 -198 LINE",
"-71 -205 OFFCURVE",
"-52 -209 OFFCURVE",
"-36 -209 CURVE SMOOTH"
);
}
);
width = 535;
},
{
layerId = "957254E3-B7AD-4837-9092-D4428001DE8E";
paths = (
{
closed = 1;
nodes = (
"72 -215 OFFCURVE",
"133 -172 OFFCURVE",
"150 -78 CURVE SMOOTH",
"195 179 LINE SMOOTH",
"206 242 OFFCURVE",
"199 373 OFFCURVE",
"320 373 CURVE SMOOTH",
"379 373 OFFCURVE",
"389 340 OFFCURVE",
"389 315 CURVE SMOOTH",
"389 302 OFFCURVE",
"386 292 OFFCURVE",
"386 290 CURVE SMOOTH",
"335 0 LINE",
"486 0 LINE",
"543 328 LINE SMOOTH",
"546 342 OFFCURVE",
"547 356 OFFCURVE",
"547 369 CURVE SMOOTH",
"547 456 OFFCURVE",
"489 504 OFFCURVE",
"392 504 CURVE SMOOTH",
"335 504 OFFCURVE",
"283 488 OFFCURVE",
"242 447 CURVE",
"250 493 LINE",
"99 493 LINE",
"2 -57 LINE SMOOTH",
"-2 -80 OFFCURVE",
"-12 -84 OFFCURVE",
"-30 -84 CURVE SMOOTH",
"-38 -84 OFFCURVE",
"-47 -83 OFFCURVE",
"-62 -79 CURVE",
"-84 -199 LINE",
"-55 -210 OFFCURVE",
"-28 -215 OFFCURVE",
"-1 -215 CURVE SMOOTH"
);
}
);
width = 577;
}
);
leftKerningGroup = m;
rightKerningGroup = h;
rightMetricsKey = h;
unicode = 0272;
},
{
color = 1;
glyphname = o;
lastChange = "2020-07-06 17:21:03 +0000";
layers = (
{
anchors = (
{
name = bottom;
position = "{240, 0}";
},
{
name = center;
position = "{289, 247}";
},
{
name = ogonek;
position = "{288, 0}";
},
{
name = top;
position = "{336, 493}";
},
{
name = topright;
position = "{548, 390}";
}
);
layerId = "F91D9E91-C1BC-4259-B0D8-112C0CBA2B8E";
paths = (
{
closed = 1;
nodes = (
"392 -5 OFFCURVE",
"519 138 OFFCURVE",
"519 308 CURVE SMOOTH",
"519 424 OFFCURVE",
"447 498 OFFCURVE",
"334 498 CURVE SMOOTH",
"182 498 OFFCURVE",
"57 355 OFFCURVE",
"57 185 CURVE SMOOTH",
"57 69 OFFCURVE",
"128 -5 OFFCURVE",
"240 -5 CURVE SMOOTH"
);
},
{
closed = 1;
nodes = (
"133 5 OFFCURVE",
"67 74 OFFCURVE",
"67 185 CURVE SMOOTH",
"67 350 OFFCURVE",
"188 488 OFFCURVE",
"334 488 CURVE SMOOTH",
"441 488 OFFCURVE",
"509 418 OFFCURVE",
"509 308 CURVE SMOOTH",
"509 143 OFFCURVE",
"387 5 OFFCURVE",
"240 5 CURVE SMOOTH"
);
}
);
width = 577;
},
{
anchors = (
{
name = bottom;
position = "{217, 0}";
},
{
name = center;
position = "{265, 247}";
},
{
name = ogonek;
position = "{295, 0}";
},
{
name = top;
position = "{313, 493}";
},
{
name = topright;
position = "{491, 326}";
}
);
layerId = "957254E3-B7AD-4837-9092-D4428001DE8E";
paths = (
{
closed = 1;
nodes = (
"416 -11 OFFCURVE",
"526 151 OFFCURVE",
"526 293 CURVE SMOOTH",
"526 404 OFFCURVE",
"458 504 OFFCURVE",
"310 504 CURVE SMOOTH",
"115 504 OFFCURVE",
"4 341 OFFCURVE",
"4 198 CURVE SMOOTH",
"4 88 OFFCURVE",
"71 -11 OFFCURVE",
"220 -11 CURVE SMOOTH"
);
},
{
closed = 1;
nodes = (
"183 120 OFFCURVE",
"157 165 OFFCURVE",
"157 217 CURVE SMOOTH",
"157 288 OFFCURVE",
"206 373 OFFCURVE",
"290 373 CURVE SMOOTH",
"347 373 OFFCURVE",
"372 329 OFFCURVE",
"372 277 CURVE SMOOTH",
"372 206 OFFCURVE",
"323 120 OFFCURVE",
"240 120 CURVE SMOOTH"
);
}
);
width = 529;
}
);
leftKerningGroup = c;
note = o;
rightKerningGroup = b;
unicode = 006F;
},
{
color = 1;
glyphname = p;
lastChange = "2020-07-06 17:21:03 +0000";
layers = (
{
anchors = (
{
name = bottom;
position = "{251, 0}";
},
{
name = top;
position = "{347, 493}";
}
);
guideLines = (
{
position = "{206, -204}";
}
);
layerId = "F91D9E91-C1BC-4259-B0D8-112C0CBA2B8E";
paths = (
{
closed = 1;
nodes = (
"25 -204 LINE",
"99 176 LINE",
"98 175 LINE",
"102 68 OFFCURVE",
"174 -5 OFFCURVE",
"276 -5 CURVE SMOOTH",
"433 -5 OFFCURVE",
"537 157 OFFCURVE",
"537 315 CURVE SMOOTH",
"537 429 OFFCURVE",
"475 498 OFFCURVE",
"374 498 CURVE SMOOTH",
"263 498 OFFCURVE",
"170 418 OFFCURVE",
"126 316 CURVE",
"126 315 LINE",
"161 493 LINE",
"151 493 LINE",
"15 -204 LINE"
);
},
{
closed = 1;
nodes = (
"175 5 OFFCURVE",
"107 78 OFFCURVE",
"107 187 CURVE SMOOTH",
"107 336 OFFCURVE",
"222 488 OFFCURVE",
"374 488 CURVE SMOOTH",
"470 488 OFFCURVE",
"527 423 OFFCURVE",
"527 315 CURVE SMOOTH",
"527 159 OFFCURVE",
"427 5 OFFCURVE",
"276 5 CURVE SMOOTH"
);
}
);
width = 596;
},
{
anchors = (
{
name = bottom;
position = "{229, 0}";
},
{
name = top;
position = "{325, 493}";
}
);
guideLines = (
{
position = "{96, -204}";
}
);
layerId = "957254E3-B7AD-4837-9092-D4428001DE8E";
paths = (
{
closed = 1;
nodes = (
"118 -204 LINE",
"182 124 LINE",
"148 82 LINE",
"153 29 OFFCURVE",
"215 -11 OFFCURVE",
"291 -11 CURVE SMOOTH",
"441 -11 OFFCURVE",
"545 144 OFFCURVE",
"545 295 CURVE SMOOTH",
"545 423 OFFCURVE",
"471 504 OFFCURVE",
"364 504 CURVE SMOOTH",
"306 504 OFFCURVE",
"245 480 OFFCURVE",
"206 405 CURVE",
"230 371 LINE",
"224 493 LINE",
"104 493 LINE",
"-32 -204 LINE"
);
},
{
closed = 1;
nodes = (
"212 127 OFFCURVE",
"187 170 OFFCURVE",
"187 224 CURVE SMOOTH",
"187 295 OFFCURVE",
"231 363 OFFCURVE",
"305 363 CURVE SMOOTH",
"366 363 OFFCURVE",
"391 318 OFFCURVE",
"391 264 CURVE SMOOTH",
"391 195 OFFCURVE",
"351 127 OFFCURVE",
"274 127 CURVE SMOOTH"
);
}
);
width = 556;
}
);
leftKerningGroup = m;
leftMetricsKey = "=idotless";
note = p;
rightKerningGroup = b;
rightMetricsKey = "=b";
unicode = 0070;
},
{
color = 1;
glyphname = thorn;
lastChange = "2020-07-06 17:21:03 +0000";
layers = (
{
anchors = (
{
name = bottom;
position = "{251, 0}";
},
{
name = top;
position = "{347, 493}";
}
);
guideLines = (
{
position = "{205, -204}";
}
);
layerId = "F91D9E91-C1BC-4259-B0D8-112C0CBA2B8E";
paths = (
{
closed = 1;
nodes = (
"25 -204 LINE",
"98 172 LINE",
"97 171 LINE",
"103 67 OFFCURVE",
"172 -5 OFFCURVE",
"278 -5 CURVE SMOOTH",
"431 -5 OFFCURVE",
"539 153 OFFCURVE",
"539 314 CURVE SMOOTH",
"539 423 OFFCURVE",
"482 498 OFFCURVE",
"374 498 CURVE SMOOTH",
"270 498 OFFCURVE",
"173 426 OFFCURVE",
"126 321 CURVE",
"127 320 LINE",
"201 697 LINE",
"191 697 LINE",
"15 -204 LINE"
);
},
{
closed = 1;
nodes = (
"174 5 OFFCURVE",
"107 81 OFFCURVE",
"107 188 CURVE SMOOTH",
"107 336 OFFCURVE",
"223 488 OFFCURVE",
"374 488 CURVE SMOOTH",
"476 488 OFFCURVE",
"529 416 OFFCURVE",
"529 314 CURVE SMOOTH",
"529 160 OFFCURVE",
"429 5 OFFCURVE",
"278 5 CURVE SMOOTH"
);
}
);
width = 598;
},
{
anchors = (
{
name = bottom;
position = "{230, 0}";
},
{
name = top;
position = "{326, 493}";
}
);
guideLines = (
{
position = "{-533, -204}";
}
);
layerId = "957254E3-B7AD-4837-9092-D4428001DE8E";
paths = (
{
closed = 1;
nodes = (
"119 -204 LINE",
"183 124 LINE",
"149 82 LINE",
"154 29 OFFCURVE",
"216 -11 OFFCURVE",
"292 -11 CURVE SMOOTH",
"442 -11 OFFCURVE",
"546 144 OFFCURVE",
"546 295 CURVE SMOOTH",
"546 423 OFFCURVE",
"472 504 OFFCURVE",
"365 504 CURVE SMOOTH",
"307 504 OFFCURVE",
"246 480 OFFCURVE",
"207 405 CURVE",
"235 371 LINE",
"298 697 LINE",
"145 697 LINE",
"-31 -204 LINE"
);
},
{
closed = 1;
nodes = (
"213 127 OFFCURVE",
"188 170 OFFCURVE",
"188 224 CURVE SMOOTH",
"188 295 OFFCURVE",
"232 363 OFFCURVE",
"306 363 CURVE SMOOTH",
"367 363 OFFCURVE",
"392 318 OFFCURVE",
"392 264 CURVE SMOOTH",
"392 195 OFFCURVE",
"352 127 OFFCURVE",
"275 127 CURVE SMOOTH"
);
}
);
width = 557;
}
);
leftKerningGroup = b;
leftMetricsKey = k;
note = thorn;
rightKerningGroup = b;
rightMetricsKey = p;
unicode = 00FE;
},
{
color = 1;
glyphname = q;
lastChange = "2020-07-06 17:21:03 +0000";
layers = (
{
anchors = (
{
name = bottom;
position = "{250, 0}";
},
{
name = top;
position = "{346, 493}";
}
);
guideLines = (
{
position = "{205, -204}";
}
);
layerId = "F91D9E91-C1BC-4259-B0D8-112C0CBA2B8E";
paths = (
{
closed = 1;
nodes = (
"406 -204 LINE",
"542 493 LINE",
"532 493 LINE",
"498 320 LINE",
"499 321 LINE",
"494 426 OFFCURVE",
"425 498 OFFCURVE",
"319 498 CURVE SMOOTH",
"165 498 OFFCURVE",
"58 338 OFFCURVE",
"58 177 CURVE SMOOTH",
"58 70 OFFCURVE",
"115 -5 OFFCURVE",
"223 -5 CURVE SMOOTH",
"327 -5 OFFCURVE",
"424 67 OFFCURVE",
"470 171 CURVE",
"469 172 LINE",
"396 -204 LINE"
);
},
{
closed = 1;
nodes = (
"121 5 OFFCURVE",
"68 76 OFFCURVE",
"68 177 CURVE SMOOTH",
"68 332 OFFCURVE",
"168 488 OFFCURVE",
"319 488 CURVE SMOOTH",
"423 488 OFFCURVE",
"490 412 OFFCURVE",
"490 303 CURVE SMOOTH",
"490 154 OFFCURVE",
"373 5 OFFCURVE",
"223 5 CURVE SMOOTH"
);
}
);
width = 597;
},
{
anchors = (
{
name = bottom;
position = "{228, 0}";
},
{
name = top;
position = "{324, 493}";
}
);
guideLines = (
{
position = "{94, -204}";
}
);
layerId = "957254E3-B7AD-4837-9092-D4428001DE8E";
paths = (
{
closed = 1;
nodes = (
"407 -204 LINE",
"543 493 LINE",
"422 493 LINE",
"368 371 LINE",
"408 411 LINE",
"403 464 OFFCURVE",
"341 504 OFFCURVE",
"265 504 CURVE SMOOTH",
"115 504 OFFCURVE",
"11 349 OFFCURVE",
"11 198 CURVE SMOOTH",
"11 70 OFFCURVE",
"85 -11 OFFCURVE",
"192 -11 CURVE SMOOTH",
"250 -11 OFFCURVE",
"311 13 OFFCURVE",
"350 88 CURVE",
"321 124 LINE",
"257 -204 LINE"
);
},
{
closed = 1;
nodes = (
"190 130 OFFCURVE",
"165 175 OFFCURVE",
"165 229 CURVE SMOOTH",
"165 298 OFFCURVE",
"205 366 OFFCURVE",
"282 366 CURVE SMOOTH",
"344 366 OFFCURVE",
"369 323 OFFCURVE",
"369 269 CURVE SMOOTH",
"369 198 OFFCURVE",
"325 130 OFFCURVE",
"251 130 CURVE SMOOTH"
);
}
);
width = 551;
}
);
leftKerningGroup = c;
leftMetricsKey = "=a";
note = q;
rightKerningGroup = i;
rightMetricsKey = "=u";
unicode = 0071;
},
{
color = 1;
glyphname = r;
lastChange = "2020-07-06 17:21:03 +0000";
layers = (
{
anchors = (
{
name = bottom;
position = "{60, 0}";
},
{
name = top;
position = "{237, 493}";
}
);
layerId = "F91D9E91-C1BC-4259-B0D8-112C0CBA2B8E";
paths = (
{
closed = 1;
nodes = (
"65 0 LINE",
"122 295 LINE SMOOTH",
"150 437 OFFCURVE",
"257 488 OFFCURVE",
"333 488 CURVE SMOOTH",
"352 488 OFFCURVE",
"372 484 OFFCURVE",
"388 477 CURVE",
"395 486 LINE",
"377 494 OFFCURVE",
"356 498 OFFCURVE",
"333 498 CURVE SMOOTH",
"270 498 OFFCURVE",
"181 461 OFFCURVE",
"135 365 CURVE",
"136 365 LINE",
"161 493 LINE",
"151 493 LINE",
"55 0 LINE"
);
}
);
width = 376;
},
{
anchors = (
{
name = bottom;
position = "{84, 0}";
},
{
name = top;
position = "{250, 493}";
}
);
layerId = "957254E3-B7AD-4837-9092-D4428001DE8E";
paths = (
{
closed = 1;
nodes = (
"159 0 LINE",
"204 229 LINE SMOOTH",
"221 316 OFFCURVE",
"263 354 OFFCURVE",
"316 354 CURVE SMOOTH",
"340 354 OFFCURVE",
"364 345 OFFCURVE",
"376 336 CURVE",
"475 472 LINE",
"444 495 OFFCURVE",
"416 504 OFFCURVE",
"382 504 CURVE SMOOTH",
"311 504 OFFCURVE",
"235 442 OFFCURVE",
"217 358 CURVE",
"230 358 LINE",
"256 493 LINE",
"104 493 LINE",
"8 0 LINE"
);
}
);
width = 407;
}
);
leftKerningGroup = m;
note = r;
rightKerningGroup = r;
unicode = 0072;
},
{
color = 1;
glyphname = s;
lastChange = "2020-07-12 10:39:49 +0000";
layers = (
{
anchors = (
{
name = bottom;
position = "{213, 0}";
},
{
name = top;
position = "{279, 493}";
}
);
layerId = "F91D9E91-C1BC-4259-B0D8-112C0CBA2B8E";
paths = (
{
closed = 1;
nodes = (
"312 -5 OFFCURVE",
"385 51 OFFCURVE",
"385 142 CURVE SMOOTH",
"385 226 OFFCURVE",
"308 251 OFFCURVE",
"235 269 CURVE SMOOTH",
"168 285 OFFCURVE",
"104 303 OFFCURVE",
"104 372 CURVE SMOOTH",
"104 440 OFFCURVE",
"170 488 OFFCURVE",
"252 488 CURVE SMOOTH",
"338 488 OFFCURVE",
"386 454 OFFCURVE",
"405 395 CURVE",
"414 399 LINE",
"394 463 OFFCURVE",
"341 498 OFFCURVE",
"252 498 CURVE SMOOTH",
"169 498 OFFCURVE",
"94 449 OFFCURVE",
"94 372 CURVE SMOOTH",
"94 296 OFFCURVE",
"162 277 OFFCURVE",
"231 260 CURVE SMOOTH",
"302 242 OFFCURVE",
"375 219 OFFCURVE",
"375 141 CURVE SMOOTH",
"375 58 OFFCURVE",
"309 5 OFFCURVE",
"208 5 CURVE SMOOTH",
"119 5 OFFCURVE",
"62 48 OFFCURVE",
"37 119 CURVE",
"27 116 LINE",
"52 43 OFFCURVE",
"114 -5 OFFCURVE",
"208 -5 CURVE SMOOTH"
);
}
);
width = 461;
},
{
anchors = (
{
name = bottom;
position = "{217, 0}";
},
{
name = top;
position = "{273, 493}";
}
);
layerId = "957254E3-B7AD-4837-9092-D4428001DE8E";
paths = (
{
closed = 1;
nodes = (
"324 -11 OFFCURVE",
"416 65 OFFCURVE",
"416 171 CURVE SMOOTH",
"416 276 OFFCURVE",
"327 308 OFFCURVE",
"257 326 CURVE SMOOTH",
"219 336 OFFCURVE",
"189 344 OFFCURVE",
"189 366 CURVE SMOOTH",
"189 383 OFFCURVE",
"206 393 OFFCURVE",
"240 393 CURVE SMOOTH",
"278 393 OFFCURVE",
"309 374 OFFCURVE",
"337 342 CURVE",
"442 415 LINE",
"415 460 OFFCURVE",
"354 504 OFFCURVE",
"256 504 CURVE SMOOTH",
"138 504 OFFCURVE",
"42 436 OFFCURVE",
"42 332 CURVE SMOOTH",
"42 236 OFFCURVE",
"125 211 OFFCURVE",
"189 192 CURVE SMOOTH",
"229 180 OFFCURVE",
"261 170 OFFCURVE",
"261 145 CURVE SMOOTH",
"261 125 OFFCURVE",
"245 109 OFFCURVE",
"202 109 CURVE SMOOTH",
"151 109 OFFCURVE",
"115 130 OFFCURVE",
"81 174 CURVE",
"-29 86 LINE",
"11 33 OFFCURVE",
"88 -11 OFFCURVE",
"190 -11 CURVE SMOOTH"
);
}
);
width = 439;
}
);
leftKerningGroup = s;
note = s;
rightKerningGroup = s;
unicode = 0073;
},
{
color = 1;
glyphname = germandbls;
lastChange = "2020-07-06 17:21:03 +0000";
layers = (
{
layerId = "F91D9E91-C1BC-4259-B0D8-112C0CBA2B8E";
paths = (
{
closed = 1;
nodes = (
"463 -5 OFFCURVE",
"541 62 OFFCURVE",
"541 156 CURVE SMOOTH",
"541 236 OFFCURVE",
"463 254 OFFCURVE",
"392 270 CURVE SMOOTH",
"325 285 OFFCURVE",
"266 299 OFFCURVE",
"266 366 CURVE SMOOTH",
"266 443 OFFCURVE",
"328 462 OFFCURVE",
"410 483 CURVE SMOOTH",
"472 496 OFFCURVE",
"535 518 OFFCURVE",
"535 586 CURVE SMOOTH",
"535 655 OFFCURVE",
"469 702 OFFCURVE",
"379 702 CURVE SMOOTH",
"211 702 OFFCURVE",
"166 576 OFFCURVE",
"144 462 CURVE SMOOTH",
"54.037 0 LINE",
"64.426 0 LINE",
"154 460 LINE SMOOTH",
"176 574 OFFCURVE",
"219 692 OFFCURVE",
"379 692 CURVE SMOOTH",
"463 692 OFFCURVE",
"525 649 OFFCURVE",
"525 586 CURVE SMOOTH",
"525 526 OFFCURVE",
"470 506 OFFCURVE",
"408 493 CURVE SMOOTH",
"324 472 OFFCURVE",
"256 449 OFFCURVE",
"256 366 CURVE SMOOTH",
"256 291 OFFCURVE",
"323 275 OFFCURVE",
"390 260 CURVE SMOOTH",
"461 244 OFFCURVE",
"531 228 OFFCURVE",
"531 156 CURVE SMOOTH",
"531 67 OFFCURVE",
"457 5 OFFCURVE",
"352 5 CURVE SMOOTH",
"265 5 OFFCURVE",
"202 50 OFFCURVE",
"192 120 CURVE",
"182 118 LINE",
"193 44 OFFCURVE",
"260 -5 OFFCURVE",
"352 -5 CURVE SMOOTH"
);
}
);
width = 608;
},
{
layerId = "957254E3-B7AD-4837-9092-D4428001DE8E";
paths = (
{
closed = 1;
nodes = (
"537 -11 OFFCURVE",
"624 70 OFFCURVE",
"624 177 CURVE SMOOTH",
"624 278 OFFCURVE",
"548 297 OFFCURVE",
"493 310 CURVE SMOOTH",
"463 317 OFFCURVE",
"440 323 OFFCURVE",
"440 340 CURVE SMOOTH",
"440 358 OFFCURVE",
"469 371 OFFCURVE",
"506 387 CURVE SMOOTH",
"568 414 OFFCURVE",
"651 450 OFFCURVE",
"651 538 CURVE SMOOTH",
"651 655 OFFCURVE",
"554 707 OFFCURVE",
"425 707 CURVE SMOOTH",
"199 707 OFFCURVE",
"118 571 OFFCURVE",
"75 350 CURVE SMOOTH",
"7 0 LINE",
"164 0 LINE",
"237 373 LINE SMOOTH",
"269 539 OFFCURVE",
"356 576 OFFCURVE",
"422 576 CURVE SMOOTH",
"467 576 OFFCURVE",
"502 563 OFFCURVE",
"502 533 CURVE SMOOTH",
"502 512 OFFCURVE",
"470 497 OFFCURVE",
"431 480 CURVE SMOOTH",
"366 450 OFFCURVE",
"279 411 OFFCURVE",
"279 314 CURVE SMOOTH",
"279 236 OFFCURVE",
"350 212 OFFCURVE",
"406 194 CURVE SMOOTH",
"441 182 OFFCURVE",
"470 177 OFFCURVE",
"470 152 CURVE SMOOTH",
"470 130 OFFCURVE",
"452 114 OFFCURVE",
"408 114 CURVE SMOOTH",
"361 114 OFFCURVE",
"342 140 OFFCURVE",
"332 165 CURVE",
"209 104 LINE",
"231 40 OFFCURVE",
"301 -11 OFFCURVE",
"396 -11 CURVE SMOOTH"
);
}
);
width = 643;
}
);
leftKerningGroup = germandbls;
rightKerningGroup = germandbls;
unicode = 00DF;
},
{
color = 1;
glyphname = t;
lastChange = "2020-07-12 10:32:08 +0000";
layers = (
{
anchors = (
{
name = bottom;
position = "{114, 0}";
},
{
name = center;
position = "{134, 247}";
},
{
name = top;
position = "{188, 493}";
},
{
name = topright;
position = "{326, 579}";
}
);
layerId = "F91D9E91-C1BC-4259-B0D8-112C0CBA2B8E";
paths = (
{
closed = 1;
nodes = (
"150 -5 OFFCURVE",
"171 -1 OFFCURVE",
"195 6 CURVE",
"194 16 LINE",
"171 8 OFFCURVE",
"151 4 OFFCURVE",
"136 4 CURVE SMOOTH",
"105 4 OFFCURVE",
"90 19 OFFCURVE",
"90 54 CURVE SMOOTH",
"90 64 OFFCURVE",
"91 76 OFFCURVE",
"94 90 CURVE SMOOTH",
"206 667 LINE",
"194 657 LINE",
"84 90 LINE SMOOTH",
"81 76 OFFCURVE",
"80 63 OFFCURVE",
"80 52 CURVE SMOOTH",
"80 13 OFFCURVE",
"98 -5 OFFCURVE",
"135 -5 CURVE SMOOTH"
);
},
{
closed = 1;
nodes = (
"285 483 LINE",
"287 493 LINE",
"78 493 LINE",
"76 483 LINE"
);
}
);
width = 282;
},
{
anchors = (
{
name = bottom;
position = "{178, 0}";
},
{
name = center;
position = "{177, 248}";
},
{
name = top;
position = "{238, 493}";
},
{
name = topright;
position = "{444, 579}";
}
);
layerId = "957254E3-B7AD-4837-9092-D4428001DE8E";
paths = (
{
closed = 1;
nodes = (
"238 -11 OFFCURVE",
"271 -6 OFFCURVE",
"305 5 CURVE",
"329 122 LINE",
"305 115 OFFCURVE",
"283 111 OFFCURVE",
"263 111 CURVE SMOOTH",
"218 111 OFFCURVE",
"210 132 OFFCURVE",
"210 151 CURVE SMOOTH",
"210 159 OFFCURVE",
"211 166 OFFCURVE",
"212 171 CURVE SMOOTH",
"315 697 LINE",
"149 615 LINE",
"60 157 LINE SMOOTH",
"57 141 OFFCURVE",
"55 126 OFFCURVE",
"55 112 CURVE SMOOTH",
"55 21 OFFCURVE",
"122 -11 OFFCURVE",
"203 -11 CURVE SMOOTH"
);
},
{
closed = 1;
nodes = (
"378 376 LINE",
"401 493 LINE",
"46 493 LINE",
"23 376 LINE"
);
}
);
width = 378;
}
);
leftKerningGroup = t;
note = t;
rightKerningGroup = t;
unicode = 0074;
},
{
color = 1;
glyphname = u;
lastChange = "2020-07-06 17:21:03 +0000";
layers = (
{
anchors = (
{
name = bottom;
position = "{217, 0}";
},
{
name = ogonek;
position = "{379, 0}";
},
{
name = top;
position = "{307, 493}";
},
{
name = topright;
position = "{521, 475}";
}
);
layerId = "F91D9E91-C1BC-4259-B0D8-112C0CBA2B8E";
paths = (
{
closed = 1;
nodes = (
"287 -5 OFFCURVE",
"357 39 OFFCURVE",
"397 138 CURVE",
"396 138 LINE",
"369 0 LINE",
"379 0 LINE",
"475 493 LINE",
"465 493 LINE",
"414 230 LINE SMOOTH",
"384 74 OFFCURVE",
"306 5 OFFCURVE",
"202 5 CURVE SMOOTH",
"125 5 OFFCURVE",
"84 44 OFFCURVE",
"84 128 CURVE SMOOTH",
"84 149 OFFCURVE",
"87 173 OFFCURVE",
"92 200 CURVE SMOOTH",
"149 493 LINE",
"139 493 LINE",
"82 198 LINE SMOOTH",
"77 171 OFFCURVE",
"74 147 OFFCURVE",
"74 126 CURVE SMOOTH",
"74 35 OFFCURVE",
"122 -5 OFFCURVE",
"205 -5 CURVE SMOOTH"
);
}
);
width = 530;
},
{
anchors = (
{
name = bottom;
position = "{237, 0}";
},
{
name = ogonek;
position = "{468, 0}";
},
{
name = top;
position = "{327, 493}";
},
{
name = topright;
position = "{529, 396}";
}
);
layerId = "957254E3-B7AD-4837-9092-D4428001DE8E";
paths = (
{
closed = 1;
nodes = (
"241 -11 OFFCURVE",
"303 13 OFFCURVE",
"352 76 CURVE",
"338 108 LINE",
"347 0 LINE",
"468 0 LINE",
"564 493 LINE",
"413 493 LINE",
"381 330 LINE SMOOTH",
"358 213 OFFCURVE",
"340 120 OFFCURVE",
"249 120 CURVE SMOOTH",
"197 120 OFFCURVE",
"184 146 OFFCURVE",
"184 177 CURVE SMOOTH",
"184 191 OFFCURVE",
"186 205 OFFCURVE",
"189 219 CURVE SMOOTH",
"242 493 LINE",
"91 493 LINE",
"32 188 LINE SMOOTH",
"28 167 OFFCURVE",
"26 147 OFFCURVE",
"26 129 CURVE SMOOTH",
"26 45 OFFCURVE",
"71 -11 OFFCURVE",
"178 -11 CURVE SMOOTH"
);
}
);
width = 572;
}
);
leftKerningGroup = u;
note = u;
rightKerningGroup = u;
unicode = 0075;
},
{
color = 1;
glyphname = v;
lastChange = "2020-07-06 17:21:03 +0000";
layers = (
{
anchors = (
{
name = bottom;
position = "{198, 0}";
},
{
name = top;
position = "{294, 493}";
}
);
layerId = "F91D9E91-C1BC-4259-B0D8-112C0CBA2B8E";
paths = (
{
closed = 1;
nodes = (
"205 0 LINE",
"502 493 LINE",
"490 493 LINE",
"199 10 LINE",
"96 493 LINE",
"86 493 LINE",
"191 0 LINE"
);
}
);
width = 491;
},
{
anchors = (
{
name = bottom;
position = "{196, 0}";
},
{
name = top;
position = "{292, 493}";
}
);
layerId = "957254E3-B7AD-4837-9092-D4428001DE8E";
paths = (
{
closed = 1;
nodes = (
"257 0 LINE",
"553 493 LINE",
"391 493 LINE",
"233 197 LINE",
"194 493 LINE",
"29 493 LINE",
"134 0 LINE"
);
}
);
width = 486;
}
);
leftKerningGroup = v;
note = v;
rightKerningGroup = v;
unicode = 0076;
},
{
color = 1;
glyphname = w;
lastChange = "2020-07-06 17:21:03 +0000";
layers = (
{
anchors = (
{
name = bottom;
position = "{321, 0}";
},
{
name = top;
position = "{417, 493}";
}
);
layerId = "F91D9E91-C1BC-4259-B0D8-112C0CBA2B8E";
paths = (
{
closed = 1;
nodes = (
"149 0 LINE",
"416 483 LINE",
"495 0 LINE",
"509 0 LINE",
"740 493 LINE",
"729 493 LINE",
"503 12 LINE",
"424 493 LINE",
"410 493 LINE",
"144 12 LINE",
"106 493 LINE",
"96 493 LINE",
"135 0 LINE"
);
}
);
width = 738;
},
{
anchors = (
{
name = bottom;
position = "{308, 0}";
},
{
name = top;
position = "{404, 493}";
}
);
layerId = "957254E3-B7AD-4837-9092-D4428001DE8E";
paths = (
{
closed = 1;
nodes = (
"232 0 LINE",
"361 278 LINE",
"384 0 LINE",
"517 0 LINE",
"770 493 LINE",
"609 493 LINE",
"487 234 LINE",
"466 493 LINE",
"339 493 LINE",
"217 232 LINE",
"197 493 LINE",
"37 493 LINE",
"97 0 LINE"
);
}
);
width = 710;
}
);
leftKerningGroup = w;
note = w;
rightKerningGroup = w;
unicode = 0077;
},
{
color = 1;
glyphname = x;
lastChange = "2020-07-06 17:21:03 +0000";
layers = (
{
anchors = (
{
name = bottom;
position = "{192, 0}";
},
{
name = top;
position = "{288, 493}";
}
);
layerId = "F91D9E91-C1BC-4259-B0D8-112C0CBA2B8E";
paths = (
{
closed = 1;
nodes = (
"7 0 LINE",
"239 238 LINE",
"379 0 LINE",
"392 0 LINE",
"246 246 LINE",
"487 493 LINE",
"474 493 LINE",
"241 255 LINE",
"102 493 LINE",
"89 493 LINE",
"234 246 LINE",
"-7 0 LINE"
);
}
);
width = 480;
},
{
anchors = (
{
name = bottom;
position = "{206, 0}";
},
{
name = top;
position = "{302, 493}";
}
);
layerId = "957254E3-B7AD-4837-9092-D4428001DE8E";
paths = (
{
closed = 1;
nodes = (
"127 0 LINE",
"234 146 LINE",
"284 0 LINE",
"469 0 LINE",
"353 249 LINE",
"565 493 LINE",
"380 493 LINE",
"274 351 LINE",
"224 493 LINE",
"39 493 LINE",
"153 249 LINE",
"-57 0 LINE"
);
}
);
width = 507;
}
);
leftKerningGroup = x;
note = x;
rightKerningGroup = x;
unicode = 0078;
},
{
color = 1;
glyphname = y;
lastChange = "2020-07-12 10:31:35 +0000";
layers = (
{
anchors = (
{
name = bottom;
position = "{342, -30}";
},
{
name = top;
position = "{295, 493}";
}
);
guideLines = (
{
position = "{206, -204}";
}
);
layerId = "F91D9E91-C1BC-4259-B0D8-112C0CBA2B8E";
paths = (
{
closed = 1;
nodes = (
"111 -204 LINE",
"503 493 LINE",
"492 493 LINE",
"222 14 LINE",
"93 493 LINE",
"83 493 LINE",
"215 2 LINE",
"99 -204 LINE"
);
}
);
width = 494;
},
{
anchors = (
{
name = bottom;
position = "{358, -31}";
},
{
name = top;
position = "{301, 493}";
}
);
guideLines = (
{
position = "{99, -204}";
}
);
layerId = "957254E3-B7AD-4837-9092-D4428001DE8E";
paths = (
{
closed = 1;
nodes = (
"149 -204 LINE",
"571 493 LINE",
"406 493 LINE",
"235 189 LINE",
"196 493 LINE",
"30 493 LINE",
"120 17 LINE",
"-14 -204 LINE"
);
}
);
width = 503;
}
);
leftKerningGroup = y;
note = y;
rightKerningGroup = y;
unicode = 0079;
},
{
color = 1;
glyphname = z;
lastChange = "2020-07-06 17:21:03 +0000";
layers = (
{
anchors = (
{
name = bottom;
position = "{185, 0}";
},
{
name = center;
position = "{233, 247}";
},
{
name = top;
position = "{281, 493}";
}
);
layerId = "F91D9E91-C1BC-4259-B0D8-112C0CBA2B8E";
paths = (
{
closed = 1;
nodes = (
"371 0 LINE",
"373 9 LINE",
"-4 9 LINE",
"-3 6 LINE",
"468 474 LINE",
"472 493 LINE",
"106 493 LINE",
"104 484 LINE",
"468 484 LINE",
"467 487 LINE",
"-7 16 LINE",
"-10 0 LINE"
);
}
);
width = 466;
},
{
anchors = (
{
name = bottom;
position = "{182, 0}";
},
{
name = center;
position = "{230, 247}";
},
{
name = top;
position = "{278, 493}";
}
);
layerId = "957254E3-B7AD-4837-9092-D4428001DE8E";
paths = (
{
closed = 1;
nodes = (
"385 0 LINE",
"410 126 LINE",
"140 126 LINE",
"150 76 LINE",
"460 388 LINE",
"480 493 LINE",
"79 493 LINE",
"54 367 LINE",
"318 367 LINE",
"308 409 LINE",
"-8 98 LINE",
"-27 0 LINE"
);
}
);
width = 460;
}
);
leftKerningGroup = z;
note = z;
rightKerningGroup = z;
unicode = 007A;
},
{
color = 1;
glyphname = g.ss02;
lastChange = "2020-07-07 08:31:09 +0000";
layers = (
{
anchors = (
{
name = bottom;
position = "{160, -254}";
},
{
name = top;
position = "{305, 493}";
}
);
guideLines = (
{
position = "{208, -204}";
}
);
layerId = "F91D9E91-C1BC-4259-B0D8-112C0CBA2B8E";
paths = (
{
closed = 1;
nodes = (
"326 -214 OFFCURVE",
"417 -144 OFFCURVE",
"417 -37 CURVE SMOOTH",
"417 28 OFFCURVE",
"375 61 OFFCURVE",
"295 61 CURVE SMOOTH",
"179 61 LINE SMOOTH",
"108 61 OFFCURVE",
"74 80 OFFCURVE",
"74 118 CURVE SMOOTH",
"74 157 OFFCURVE",
"100 187 OFFCURVE",
"138 218 CURVE",
"132 226 LINE",
"84 187 OFFCURVE",
"64 155 OFFCURVE",
"64 118 CURVE SMOOTH",
"64 73 OFFCURVE",
"103 51 OFFCURVE",
"179 51 CURVE SMOOTH",
"295 51 LINE SMOOTH",
"369 51 OFFCURVE",
"407 22 OFFCURVE",
"407 -37 CURVE SMOOTH",
"407 -137 OFFCURVE",
"322 -204 OFFCURVE",
"191 -204 CURVE SMOOTH",
"69 -204 OFFCURVE",
"4 -161 OFFCURVE",
"4 -82 CURVE SMOOTH",
"4 -66 OFFCURVE",
"6 -47 OFFCURVE",
"11 -32 CURVE",
"119 62 LINE",
"108 65 LINE",
"3 -26 LINE",
"-3 -40 OFFCURVE",
"-6 -60 OFFCURVE",
"-6 -82 CURVE SMOOTH",
"-6 -167 OFFCURVE",
"64 -214 OFFCURVE",
"191 -214 CURVE SMOOTH"
);
},
{
closed = 1;
nodes = (
"350 184 OFFCURVE",
"437 267 OFFCURVE",
"437 373 CURVE SMOOTH",
"437 449 OFFCURVE",
"383 498 OFFCURVE",
"301 498 CURVE SMOOTH",
"190 498 OFFCURVE",
"99 412 OFFCURVE",
"99 306 CURVE SMOOTH",
"99 232 OFFCURVE",
"155 184 OFFCURVE",
"239 184 CURVE SMOOTH"
);
},
{
closed = 1;
nodes = (
"160 194 OFFCURVE",
"109 238 OFFCURVE",
"109 306 CURVE SMOOTH",
"109 406 OFFCURVE",
"195 488 OFFCURVE",
"301 488 CURVE SMOOTH",
"378 488 OFFCURVE",
"427 443 OFFCURVE",
"427 373 CURVE SMOOTH",
"427 272 OFFCURVE",
"345 194 OFFCURVE",
"239 194 CURVE SMOOTH"
);
},
{
closed = 1;
nodes = (
"519 501 LINE",
"515 509 LINE",
"416 431 LINE",
"422 424 LINE"
);
}
);
width = 512;
},
{
anchors = (
{
name = bottom;
position = "{165, -254}";
},
{
name = top;
position = "{310, 493}";
}
);
guideLines = (
{
position = "{205, -204}";
}
);
layerId = "957254E3-B7AD-4837-9092-D4428001DE8E";
paths = (
{
closed = 1;
nodes = (
"329 -215 OFFCURVE",
"449 -151 OFFCURVE",
"449 -11 CURVE SMOOTH",
"449 93 OFFCURVE",
"339 93 OFFCURVE",
"296 93 CURVE SMOOTH",
"208 93 LINE SMOOTH",
"179 93 OFFCURVE",
"130 93 OFFCURVE",
"130 118 CURVE SMOOTH",
"130 136 OFFCURVE",
"152 157 OFFCURVE",
"172 158 CURVE",
"106 236 LINE",
"41 203 OFFCURVE",
"-17 152 OFFCURVE",
"-17 80 CURVE SMOOTH",
"-17 -4 OFFCURVE",
"81 -33 OFFCURVE",
"83 -33 CURVE SMOOTH",
"236 -33 LINE SMOOTH",
"262 -33 OFFCURVE",
"298 -31 OFFCURVE",
"298 -57 CURVE SMOOTH",
"298 -88 OFFCURVE",
"263 -100 OFFCURVE",
"190 -100 CURVE SMOOTH",
"100 -100 OFFCURVE",
"87 -85 OFFCURVE",
"87 -71 CURVE SMOOTH",
"87 -68 OFFCURVE",
"87 -63 OFFCURVE",
"89 -59 CURVE",
"140 -24 LINE",
"71 6 LINE",
"-34 -18 LINE",
"-47 -37 OFFCURVE",
"-57 -70 OFFCURVE",
"-57 -95 CURVE SMOOTH",
"-57 -190 OFFCURVE",
"59 -215 OFFCURVE",
"166 -215 CURVE SMOOTH"
);
},
{
closed = 1;
nodes = (
"376 136 OFFCURVE",
"492 222 OFFCURVE",
"492 349 CURVE SMOOTH",
"492 436 OFFCURVE",
"428 504 OFFCURVE",
"314 504 CURVE SMOOTH",
"182 504 OFFCURVE",
"64 407 OFFCURVE",
"64 280 CURVE SMOOTH",
"64 191 OFFCURVE",
"136 136 OFFCURVE",
"243 136 CURVE SMOOTH"
);
},
{
closed = 1;
nodes = (
"231 246 OFFCURVE",
"216 267 OFFCURVE",
"216 297 CURVE SMOOTH",
"216 340 OFFCURVE",
"245 386 OFFCURVE",
"294 386 CURVE SMOOTH",
"328 386 OFFCURVE",
"343 364 OFFCURVE",
"343 335 CURVE SMOOTH",
"343 290 OFFCURVE",
"315 246 OFFCURVE",
"267 246 CURVE SMOOTH"
);
},
{
closed = 1;
nodes = (
"564 450 LINE",
"506 545 LINE",
"380 454 LINE",
"467 385 LINE"
);
}
);
width = 522;
}
);
leftKerningGroup = c;
note = g.ss02;
},
{
glyphname = T_h;
lastChange = "2020-07-07 08:31:09 +0000";
layers = (
{
anchors = (
{
name = caret_1;
position = "{508.5, 0}";
}
);
layerId = "F91D9E91-C1BC-4259-B0D8-112C0CBA2B8E";
paths = (
{
closed = 1;
nodes = (
"280 0 LINE",
"414 687 LINE",
"676 687 LINE",
"542 0 LINE",
"552 0 LINE",
"613 313 LINE SMOOTH",
"633 419 OFFCURVE",
"712 488 OFFCURVE",
"812 488 CURVE SMOOTH",
"893 488 OFFCURVE",
"935 447 OFFCURVE",
"935 369 CURVE SMOOTH",
"935 352 OFFCURVE",
"933 333 OFFCURVE",
"929 313 CURVE SMOOTH",
"868 0 LINE",
"878 0 LINE",
"942 328 LINE SMOOTH",
"944 343 OFFCURVE",
"946 357 OFFCURVE",
"946 371 CURVE SMOOTH",
"946 453 OFFCURVE",
"900 498 OFFCURVE",
"812 498 CURVE SMOOTH",
"731 498 OFFCURVE",
"662 455 OFFCURVE",
"626 383 CURVE",
"688 697 LINE",
"138 697 LINE",
"136 687 LINE",
"404 687 LINE",
"270 0 LINE"
);
}
);
width = 1017;
},
{
anchors = (
{
name = caret_1;
position = "{450, 0}";
}
);
layerId = "957254E3-B7AD-4837-9092-D4428001DE8E";
paths = (
{
closed = 1;
nodes = (
"310 0 LINE",
"418 553 LINE",
"588 553 LINE",
"480 0 LINE",
"635 0 LINE",
"686 262 LINE SMOOTH",
"697 316 OFFCURVE",
"734 366 OFFCURVE",
"799 366 CURVE SMOOTH",
"846 366 OFFCURVE",
"862 341 OFFCURVE",
"862 307 CURVE SMOOTH",
"862 298 OFFCURVE",
"861 289 OFFCURVE",
"859 279 CURVE SMOOTH",
"805 0 LINE",
"959 0 LINE",
"1016 292 LINE SMOOTH",
"1019 307 OFFCURVE",
"1020 323 OFFCURVE",
"1020 338 CURVE SMOOTH",
"1020 420 OFFCURVE",
"978 504 OFFCURVE",
"862 504 CURVE SMOOTH",
"823 504 OFFCURVE",
"770 488 OFFCURVE",
"721 443 CURVE",
"771 697 LINE",
"83 697 LINE",
"55 553 LINE",
"259 553 LINE",
"151 0 LINE"
);
}
);
width = 1050;
}
);
leftMetricsKey = T;
note = T_h;
rightMetricsKey = h;
},
{
glyphname = f_f;
lastChange = "2020-07-07 08:31:09 +0000";
layers = (
{
anchors = (
{
name = caret_1;
position = "{243, 0}";
}
);
layerId = "F91D9E91-C1BC-4259-B0D8-112C0CBA2B8E";
paths = (
{
closed = 1;
nodes = (
"80 0 LINE",
"174 483 LINE",
"402 483 LINE",
"308 0 LINE",
"318 0 LINE",
"412 483 LINE",
"604 483 LINE",
"606 493 LINE",
"414 493 LINE",
"431 580 LINE SMOOTH",
"446 656 OFFCURVE",
"492 692 OFFCURVE",
"577 692 CURVE SMOOTH",
"596 692 OFFCURVE",
"612 687 OFFCURVE",
"632 677 CURVE",
"638 685 LINE",
"618 696 OFFCURVE",
"599 702 OFFCURVE",
"578 702 CURVE SMOOTH",
"533 702 OFFCURVE",
"498 692 OFFCURVE",
"472 672 CURVE",
"444 692 OFFCURVE",
"412 702 OFFCURVE",
"371 702 CURVE SMOOTH",
"274 702 OFFCURVE",
"195 640 OFFCURVE",
"177 549 CURVE SMOOTH",
"166 493 LINE",
"76 493 LINE",
"74 483 LINE",
"164 483 LINE",
"70 0 LINE"
);
},
{
closed = 1;
nodes = (
"187 549 LINE SMOOTH",
"204 635 OFFCURVE",
"277 692 OFFCURVE",
"370 692 CURVE SMOOTH",
"406 692 OFFCURVE",
"438 684 OFFCURVE",
"465 666 CURVE",
"442 645 OFFCURVE",
"428 616 OFFCURVE",
"421 580 CURVE SMOOTH",
"404 493 LINE",
"176 493 LINE"
);
}
);
width = 586;
},
{
anchors = (
{
name = caret_1;
position = "{278, 0}";
}
);
layerId = "957254E3-B7AD-4837-9092-D4428001DE8E";
paths = (
{
closed = 1;
nodes = (
"179 0 LINE",
"252 376 LINE",
"400 376 LINE",
"327 0 LINE",
"478 0 LINE",
"551 376 LINE",
"649 376 LINE",
"672 493 LINE",
"574 493 LINE",
"582 536 LINE SMOOTH",
"587 562 OFFCURVE",
"597 583 OFFCURVE",
"622 583 CURVE SMOOTH",
"635 583 OFFCURVE",
"647 577 OFFCURVE",
"658 571 CURVE",
"728 686 LINE",
"701 699 OFFCURVE",
"674 708 OFFCURVE",
"630 708 CURVE SMOOTH",
"588 708 OFFCURVE",
"547 700 OFFCURVE",
"512 676 CURVE",
"477 699 OFFCURVE",
"432 708 OFFCURVE",
"387 708 CURVE SMOOTH",
"272 708 OFFCURVE",
"156 642 OFFCURVE",
"131 522 CURVE SMOOTH",
"125 493 LINE",
"46 493 LINE",
"23 376 LINE",
"102 376 LINE",
"29 0 LINE"
);
},
{
closed = 1;
nodes = (
"280 519 LINE SMOOTH",
"288 559 OFFCURVE",
"313 587 OFFCURVE",
"370 587 CURVE SMOOTH",
"401 587 OFFCURVE",
"421 580 OFFCURVE",
"440 569 CURVE",
"437 559 OFFCURVE",
"434 548 OFFCURVE",
"432 537 CURVE SMOOTH",
"424 493 LINE",
"275 493 LINE"
);
}
);
width = 616;
}
);
leftKerningGroup = f;
leftMetricsKey = f;
note = f_f;
rightKerningGroup = f;
rightMetricsKey = f;
},
{
glyphname = f_f_i;
lastChange = "2020-07-07 08:31:09 +0000";
layers = (
{
anchors = (
{
name = caret_1;
position = "{235.667, 0}";
},
{
name = caret_2;
position = "{471.333, 0}";
}
);
layerId = "F91D9E91-C1BC-4259-B0D8-112C0CBA2B8E";
paths = (
{
closed = 1;
nodes = (
"80 0 LINE",
"174 483 LINE",
"402 483 LINE",
"308 0 LINE",
"318 0 LINE",
"412 483 LINE",
"640 483 LINE",
"546 0 LINE",
"556 0 LINE",
"652 493 LINE",
"414 493 LINE",
"423 539 LINE SMOOTH",
"446 656 OFFCURVE",
"502 692 OFFCURVE",
"581 692 CURVE SMOOTH",
"620 692 OFFCURVE",
"652 678 OFFCURVE",
"675 654 CURVE",
"682 660 LINE",
"657 686 OFFCURVE",
"623 702 OFFCURVE",
"582 702 CURVE SMOOTH",
"542 702 OFFCURVE",
"507 692 OFFCURVE",
"477 668 CURVE",
"449 691 OFFCURVE",
"414 702 OFFCURVE",
"371 702 CURVE SMOOTH",
"274 702 OFFCURVE",
"195 640 OFFCURVE",
"177 549 CURVE SMOOTH",
"166 493 LINE",
"76 493 LINE",
"74 483 LINE",
"164 483 LINE",
"70 0 LINE"
);
},
{
closed = 1;
nodes = (
"187 549 LINE SMOOTH",
"203 635 OFFCURVE",
"277 692 OFFCURVE",
"370 692 CURVE SMOOTH",
"410 692 OFFCURVE",
"443 682 OFFCURVE",
"471 661 CURVE",
"444 636 OFFCURVE",
"424 596 OFFCURVE",
"413 539 CURVE SMOOTH",
"404 493 LINE",
"176 493 LINE"
);
}
);
width = 707;
},
{
anchors = (
{
name = caret_1;
position = "{293.333, 0}";
},
{
name = caret_2;
position = "{586.667, 0}";
}
);
layerId = "957254E3-B7AD-4837-9092-D4428001DE8E";
paths = (
{
closed = 1;
nodes = (
"179 0 LINE",
"252 376 LINE",
"401 376 LINE",
"328 0 LINE",
"479 0 LINE",
"552 376 LINE",
"701 376 LINE",
"628 0 LINE",
"778 0 LINE",
"874 493 LINE",
"575 493 LINE",
"581 522 LINE SMOOTH",
"587 553 OFFCURVE",
"616 587 OFFCURVE",
"677 587 CURVE SMOOTH",
"733 587 OFFCURVE",
"774 572 OFFCURVE",
"807 548 CURVE",
"897 655 LINE",
"842 691 OFFCURVE",
"786 708 OFFCURVE",
"694 708 CURVE SMOOTH",
"637 708 OFFCURVE",
"579 692 OFFCURVE",
"533 663 CURVE",
"493 695 OFFCURVE",
"438 708 OFFCURVE",
"387 708 CURVE SMOOTH",
"272 708 OFFCURVE",
"154 642 OFFCURVE",
"131 522 CURVE SMOOTH",
"125 493 LINE",
"46 493 LINE",
"23 376 LINE",
"102 376 LINE",
"29 0 LINE"
);
},
{
closed = 1;
nodes = (
"280 519 LINE SMOOTH",
"288 559 OFFCURVE",
"313 587 OFFCURVE",
"370 587 CURVE SMOOTH",
"403 587 OFFCURVE",
"427 578 OFFCURVE",
"443 569 CURVE",
"442 567 OFFCURVE",
"433 538 OFFCURVE",
"430 525 CURVE SMOOTH",
"424 493 LINE",
"275 493 LINE"
);
}
);
width = 880;
}
);
leftKerningGroup = f;
leftMetricsKey = f;
note = f_f_i;
rightKerningGroup = i;
rightMetricsKey = i;
},
{
glyphname = f_f_l;
lastChange = "2020-07-07 08:31:09 +0000";
layers = (
{
anchors = (
{
name = caret_1;
position = "{250, 0}";
},
{
name = caret_2;
position = "{500, 0}";
}
);
layerId = "F91D9E91-C1BC-4259-B0D8-112C0CBA2B8E";
paths = (
{
closed = 1;
nodes = (
"630 -5 OFFCURVE",
"651 -1 OFFCURVE",
"675 6 CURVE",
"674 16 LINE",
"651 8 OFFCURVE",
"631 4 OFFCURVE",
"616 4 CURVE SMOOTH",
"576 4 OFFCURVE",
"562 30 OFFCURVE",
"574 90 CURVE SMOOTH",
"684 660 LINE",
"657 686 OFFCURVE",
"623 702 OFFCURVE",
"582 702 CURVE SMOOTH",
"542 702 OFFCURVE",
"506 692 OFFCURVE",
"479 669 CURVE",
"450 691 OFFCURVE",
"415 702 OFFCURVE",
"371 702 CURVE SMOOTH",
"274 702 OFFCURVE",
"195 640 OFFCURVE",
"177 549 CURVE SMOOTH",
"166 493 LINE",
"76 493 LINE",
"74 483 LINE",
"164 483 LINE",
"70 0 LINE",
"80 0 LINE",
"174 483 LINE",
"402 483 LINE",
"308 0 LINE",
"318 0 LINE",
"412 483 LINE",
"543 483 LINE",
"545 493 LINE",
"414 493 LINE",
"423 539 LINE SMOOTH",
"446 656 OFFCURVE",
"502 692 OFFCURVE",
"581 692 CURVE SMOOTH",
"620 692 OFFCURVE",
"652 678 OFFCURVE",
"674 657 CURVE",
"564 90 LINE SMOOTH",
"551 24 OFFCURVE",
"568 -5 OFFCURVE",
"615 -5 CURVE SMOOTH"
);
},
{
closed = 1;
nodes = (
"187 549 LINE SMOOTH",
"203 635 OFFCURVE",
"277 692 OFFCURVE",
"370 692 CURVE SMOOTH",
"410 692 OFFCURVE",
"444 682 OFFCURVE",
"472 662 CURVE",
"444 635 OFFCURVE",
"424 596 OFFCURVE",
"413 539 CURVE SMOOTH",
"404 493 LINE",
"176 493 LINE"
);
}
);
width = 750;
},
{
anchors = (
{
name = caret_1;
position = "{300.667, 0}";
},
{
name = caret_2;
position = "{601.333, 0}";
}
);
layerId = "957254E3-B7AD-4837-9092-D4428001DE8E";
paths = (
{
closed = 1;
nodes = (
"772 -11 OFFCURVE",
"807 -7 OFFCURVE",
"840 5 CURVE",
"863 123 LINE",
"849 119 OFFCURVE",
"839 117 OFFCURVE",
"830 117 CURVE SMOOTH",
"811 117 OFFCURVE",
"804 126 OFFCURVE",
"807 142 CURVE SMOOTH",
"906 651 LINE",
"845 689 OFFCURVE",
"791 708 OFFCURVE",
"694 708 CURVE SMOOTH",
"638 708 OFFCURVE",
"579 692 OFFCURVE",
"531 664 CURVE",
"494 694 OFFCURVE",
"439 708 OFFCURVE",
"387 708 CURVE SMOOTH",
"272 708 OFFCURVE",
"154 642 OFFCURVE",
"131 522 CURVE SMOOTH",
"125 493 LINE",
"46 493 LINE",
"23 376 LINE",
"102 376 LINE",
"29 0 LINE",
"179 0 LINE",
"252 376 LINE",
"401 376 LINE",
"328 0 LINE",
"479 0 LINE",
"552 376 LINE",
"635 376 LINE",
"658 493 LINE",
"575 493 LINE",
"581 522 LINE SMOOTH",
"587 553 OFFCURVE",
"616 587 OFFCURVE",
"677 587 CURVE SMOOTH",
"698 587 OFFCURVE",
"716 586 OFFCURVE",
"739 579 CURVE",
"651 125 LINE SMOOTH",
"633 30 OFFCURVE",
"682 -11 OFFCURVE",
"751 -11 CURVE SMOOTH"
);
},
{
closed = 1;
nodes = (
"280 519 LINE SMOOTH",
"288 559 OFFCURVE",
"313 587 OFFCURVE",
"370 587 CURVE SMOOTH",
"403 587 OFFCURVE",
"426 578 OFFCURVE",
"442 569 CURVE",
"436 549 OFFCURVE",
"432 537 OFFCURVE",
"430 525 CURVE SMOOTH",
"424 493 LINE",
"275 493 LINE"
);
}
);
width = 902;
}
);
leftKerningGroup = f;
leftMetricsKey = f;
note = f_f_l;
rightKerningGroup = l;
rightMetricsKey = l;
},
{
glyphname = fi;
lastChange = "2020-07-06 17:21:03 +0000";
layers = (
{
anchors = (
{
name = caret_1;
position = "{235.5, 0}";
}
);
layerId = "F91D9E91-C1BC-4259-B0D8-112C0CBA2B8E";
paths = (
{
closed = 1;
nodes = (
"80 0 LINE",
"174 483 LINE",
"405 483 LINE",
"407 493 LINE",
"176 493 LINE",
"185 539 LINE SMOOTH",
"208 656 OFFCURVE",
"266 692 OFFCURVE",
"344 692 CURVE SMOOTH",
"384 692 OFFCURVE",
"415 678 OFFCURVE",
"439 654 CURVE",
"446 660 LINE",
"419 686 OFFCURVE",
"386 702 OFFCURVE",
"345 702 CURVE SMOOTH",
"264 702 OFFCURVE",
"199 661 OFFCURVE",
"175 539 CURVE SMOOTH",
"166 493 LINE",
"76 493 LINE",
"74 483 LINE",
"164 483 LINE",
"70 0 LINE"
);
},
{
closed = 1;
nodes = (
"320 0 LINE",
"416 493 LINE",
"406 493 LINE",
"310 0 LINE"
);
}
);
width = 471;
},
{
anchors = (
{
name = caret_1;
position = "{286, 0}";
}
);
layerId = "957254E3-B7AD-4837-9092-D4428001DE8E";
paths = (
{
closed = 1;
nodes = (
"179 0 LINE",
"252 376 LINE",
"444 376 LINE",
"468 493 LINE",
"275 493 LINE",
"281 522 LINE SMOOTH",
"287 553 OFFCURVE",
"316 587 OFFCURVE",
"378 587 CURVE SMOOTH",
"432 587 OFFCURVE",
"473 573 OFFCURVE",
"507 548 CURVE",
"597 655 LINE",
"546 689 OFFCURVE",
"490 708 OFFCURVE",
"394 708 CURVE SMOOTH",
"275 708 OFFCURVE",
"153 636 OFFCURVE",
"131 525 CURVE SMOOTH",
"125 493 LINE",
"46 493 LINE",
"23 376 LINE",
"102 376 LINE",
"29 0 LINE"
);
},
{
closed = 1;
nodes = (
"466 0 LINE",
"562 493 LINE",
"412 493 LINE",
"316 0 LINE"
);
}
);
width = 572;
}
);
leftKerningGroup = f;
leftMetricsKey = f;
note = fi;
rightKerningGroup = i;
rightMetricsKey = i;
unicode = FB01;
},
{
glyphname = fl;
lastChange = "2020-07-06 17:21:03 +0000";
layers = (
{
anchors = (
{
name = caret_1;
position = "{243, 0}";
}
);
layerId = "F91D9E91-C1BC-4259-B0D8-112C0CBA2B8E";
paths = (
{
closed = 1;
nodes = (
"365 -5 OFFCURVE",
"386 -1 OFFCURVE",
"411 6 CURVE",
"410 16 LINE",
"386 8 OFFCURVE",
"366 4 OFFCURVE",
"351 4 CURVE SMOOTH",
"312 4 OFFCURVE",
"297 30 OFFCURVE",
"309 90 CURVE SMOOTH",
"419 659 LINE",
"395 686 OFFCURVE",
"365 702 OFFCURVE",
"325 702 CURVE SMOOTH",
"251 702 OFFCURVE",
"192 661 OFFCURVE",
"168 539 CURVE SMOOTH",
"159 493 LINE",
"76 493 LINE",
"74 483 LINE",
"157 483 LINE",
"63 0 LINE",
"73 0 LINE",
"167 483 LINE",
"287 483 LINE",
"289 493 LINE",
"169 493 LINE",
"178 539 LINE SMOOTH",
"201 656 OFFCURVE",
"254 692 OFFCURVE",
"324 692 CURVE SMOOTH",
"360 692 OFFCURVE",
"388 679 OFFCURVE",
"409 655 CURVE",
"299 90 LINE SMOOTH",
"286 24 OFFCURVE",
"304 -5 OFFCURVE",
"350 -5 CURVE SMOOTH"
);
}
);
width = 486;
},
{
anchors = (
{
name = caret_1;
position = "{302.5, 0}";
}
);
layerId = "957254E3-B7AD-4837-9092-D4428001DE8E";
paths = (
{
closed = 1;
nodes = (
"475 -11 OFFCURVE",
"510 -7 OFFCURVE",
"543 5 CURVE",
"566 123 LINE",
"552 119 OFFCURVE",
"542 117 OFFCURVE",
"533 117 CURVE SMOOTH",
"514 117 OFFCURVE",
"507 126 OFFCURVE",
"510 142 CURVE SMOOTH",
"609 654 LINE",
"533 697 OFFCURVE",
"461 708 OFFCURVE",
"408 708 CURVE SMOOTH",
"274 708 OFFCURVE",
"153 635 OFFCURVE",
"132 525 CURVE SMOOTH",
"126 493 LINE",
"46 493 LINE",
"23 376 LINE",
"103 376 LINE",
"30 0 LINE",
"181 0 LINE",
"254 376 LINE",
"348 376 LINE",
"372 493 LINE",
"277 493 LINE",
"283 522 LINE SMOOTH",
"289 553 OFFCURVE",
"316 587 OFFCURVE",
"390 587 CURVE SMOOTH",
"408 587 OFFCURVE",
"423 585 OFFCURVE",
"441 581 CURVE",
"353 125 LINE SMOOTH",
"335 30 OFFCURVE",
"384 -11 OFFCURVE",
"454 -11 CURVE SMOOTH"
);
}
);
width = 605;
}
);
leftKerningGroup = f;
leftMetricsKey = f;
note = fl;
rightKerningGroup = l;
rightMetricsKey = l;
unicode = FB02;
},
{
glyphname = ordfeminine;
lastChange = "2020-07-06 17:21:03 +0000";
layers = (
{
layerId = "F91D9E91-C1BC-4259-B0D8-112C0CBA2B8E";
paths = (
{
closed = 1;
nodes = (
"293 398 OFFCURVE",
"352 441 OFFCURVE",
"380 504 CURVE",
"379 505 LINE",
"359 401 LINE",
"365 401 LINE",
"422 697 LINE",
"416 697 LINE",
"397 594 LINE",
"397 594 LINE",
"394 657 OFFCURVE",
"352 700 OFFCURVE",
"289 700 CURVE SMOOTH",
"197 700 OFFCURVE",
"121 609 OFFCURVE",
"121 516 CURVE SMOOTH",
"121 447 OFFCURVE",
"164 398 OFFCURVE",
"231 398 CURVE SMOOTH"
);
},
{
closed = 1;
nodes = (
"168 404 OFFCURVE",
"127 451 OFFCURVE",
"127 516 CURVE SMOOTH",
"127 604 OFFCURVE",
"199 694 OFFCURVE",
"289 694 CURVE SMOOTH",
"351 694 OFFCURVE",
"391 648 OFFCURVE",
"391 583 CURVE SMOOTH",
"391 494 OFFCURVE",
"321 404 OFFCURVE",
"231 404 CURVE SMOOTH"
);
}
);
width = 438;
},
{
layerId = "957254E3-B7AD-4837-9092-D4428001DE8E";
paths = (
{
closed = 1;
nodes = (
"200 394 OFFCURVE",
"249 409 OFFCURVE",
"272 454 CURVE",
"258 474 LINE",
"261 401 LINE",
"333 401 LINE",
"391 697 LINE",
"319 697 LINE",
"286 622 LINE",
"307 648 LINE",
"304 679 OFFCURVE",
"265 703 OFFCURVE",
"224 703 CURVE SMOOTH",
"130 703 OFFCURVE",
"69 601 OFFCURVE",
"69 504 CURVE SMOOTH",
"69 439 OFFCURVE",
"101 394 OFFCURVE",
"164 394 CURVE SMOOTH"
);
},
{
closed = 1;
nodes = (
"177 479 OFFCURVE",
"162 495 OFFCURVE",
"162 525 CURVE SMOOTH",
"162 572 OFFCURVE",
"187 621 OFFCURVE",
"236 621 CURVE SMOOTH",
"266 621 OFFCURVE",
"283 602 OFFCURVE",
"283 570 CURVE SMOOTH",
"283 523 OFFCURVE",
"257 479 OFFCURVE",
"208 479 CURVE SMOOTH"
);
}
);
width = 359;
}
);
leftKerningGroup = ordfeminine;
leftMetricsKey = a;
note = ordfeminine;
rightMetricsKey = a;
unicode = 00AA;
},
{
glyphname = ordmasculine;
lastChange = "2020-07-06 17:21:03 +0000";
layers = (
{
layerId = "F91D9E91-C1BC-4259-B0D8-112C0CBA2B8E";
paths = (
{
closed = 1;
nodes = (
"323 398 OFFCURVE",
"395 489 OFFCURVE",
"395 586 CURVE SMOOTH",
"395 657 OFFCURVE",
"352 700 OFFCURVE",
"285 700 CURVE SMOOTH",
"189 700 OFFCURVE",
"118 609 OFFCURVE",
"118 511 CURVE SMOOTH",
"118 441 OFFCURVE",
"161 398 OFFCURVE",
"227 398 CURVE SMOOTH"
);
},
{
closed = 1;
nodes = (
"166 404 OFFCURVE",
"125 445 OFFCURVE",
"125 511 CURVE SMOOTH",
"125 604 OFFCURVE",
"190 694 OFFCURVE",
"285 694 CURVE SMOOTH",
"347 694 OFFCURVE",
"389 652 OFFCURVE",
"389 586 CURVE SMOOTH",
"389 493 OFFCURVE",
"322 404 OFFCURVE",
"227 404 CURVE SMOOTH"
);
}
);
width = 397;
},
{
layerId = "957254E3-B7AD-4837-9092-D4428001DE8E";
paths = (
{
closed = 1;
nodes = (
"312.6 397.4 OFFCURVE",
"378.6 494.6 OFFCURVE",
"378.6 579.8 CURVE SMOOTH",
"378.6 646.4 OFFCURVE",
"337.8 706.4 OFFCURVE",
"249 706.4 CURVE SMOOTH",
"132 706.4 OFFCURVE",
"65.4 608.6 OFFCURVE",
"65.4 522.8 CURVE SMOOTH",
"65.4 456.8 OFFCURVE",
"105.6 397.4 OFFCURVE",
"195 397.4 CURVE SMOOTH"
);
},
{
closed = 1;
nodes = (
"172.8 476 OFFCURVE",
"157.2 503 OFFCURVE",
"157.2 534.2 CURVE SMOOTH",
"157.2 576.8 OFFCURVE",
"186.6 627.8 OFFCURVE",
"237 627.8 CURVE SMOOTH",
"271.2 627.8 OFFCURVE",
"286.2 601.4 OFFCURVE",
"286.2 570.2 CURVE SMOOTH",
"286.2 527.6 OFFCURVE",
"256.8 476 OFFCURVE",
"207 476 CURVE SMOOTH"
);
}
);
width = 324;
}
);
leftKerningGroup = ordmasculine;
leftMetricsKey = o;
note = ordmasculine;
rightKerningGroup = ordmasculine;
rightMetricsKey = o;
unicode = 00BA;
},
{
color = 1;
glyphname = Delta;
lastChange = "2020-07-06 17:21:03 +0000";
layers = (
{
layerId = "F91D9E91-C1BC-4259-B0D8-112C0CBA2B8E";
paths = (
{
closed = 1;
nodes = (
"509 0 LINE",
"404 697 LINE",
"385 697 LINE",
"11 0 LINE"
);
},
{
closed = 1;
nodes = (
"395 691 LINE",
"496 10 LINE",
"28 10 LINE"
);
}
);
width = 616;
},
{
layerId = "957254E3-B7AD-4837-9092-D4428001DE8E";
paths = (
{
closed = 1;
nodes = (
"631 0 LINE",
"478 697 LINE",
"363 697 LINE",
"-63 0 LINE"
);
},
{
closed = 1;
nodes = (
"385 463 LINE",
"444 144 LINE",
"201 144 LINE"
);
}
);
width = 664;
}
);
leftKerningGroup = A;
rightKerningGroup = A;
unicode = 0394;
},
{
color = 1;
glyphname = Omega;
lastChange = "2020-07-06 17:21:03 +0000";
layers = (
{
anchors = (
{
name = bottom;
position = "{334, 0}";
},
{
name = topleft;
position = "{108, 697}";
}
);
layerId = "F91D9E91-C1BC-4259-B0D8-112C0CBA2B8E";
paths = (
{
closed = 1;
nodes = (
"260 0 LINE",
"273 68 LINE",
"172 137 OFFCURVE",
"121 217 OFFCURVE",
"121 322 CURVE SMOOTH",
"121 526 OFFCURVE",
"260 692 OFFCURVE",
"469 692 CURVE SMOOTH",
"620 692 OFFCURVE",
"702 610 OFFCURVE",
"702 476 CURVE SMOOTH",
"702 291 OFFCURVE",
"592 161 OFFCURVE",
"421 68 CURVE",
"408 0 LINE",
"625 0 LINE",
"627 10 LINE",
"420 10 LINE",
"430 62 LINE",
"601 158 OFFCURVE",
"712 284 OFFCURVE",
"712 475 CURVE SMOOTH",
"712 616 OFFCURVE",
"626 702 OFFCURVE",
"470 702 CURVE SMOOTH",
"257 702 OFFCURVE",
"110 534 OFFCURVE",
"110 321 CURVE SMOOTH",
"110 215 OFFCURVE",
"161 135 OFFCURVE",
"263 62 CURVE",
"252 10 LINE",
"45 10 LINE",
"43 0 LINE"
);
}
);
width = 764;
},
{
anchors = (
{
name = bottom;
position = "{339, 0}";
},
{
name = topleft;
position = "{108, 697}";
}
);
layerId = "957254E3-B7AD-4837-9092-D4428001DE8E";
paths = (
{
closed = 1;
nodes = (
"301 0 LINE",
"322 108 LINE",
"253 136 OFFCURVE",
"214 203 OFFCURVE",
"214 289 CURVE SMOOTH",
"214 434 OFFCURVE",
"303 565 OFFCURVE",
"449 565 CURVE SMOOTH",
"548 565 OFFCURVE",
"601 507 OFFCURVE",
"601 413 CURVE SMOOTH",
"601 286 OFFCURVE",
"523 160 OFFCURVE",
"398 108 CURVE",
"377 0 LINE",
"674 0 LINE",
"703 148 LINE",
"539 148 LINE",
"529 96 LINE",
"669 150 OFFCURVE",
"771 294 OFFCURVE",
"771 443 CURVE SMOOTH",
"771 599 OFFCURVE",
"653 715 OFFCURVE",
"477 715 CURVE SMOOTH",
"254 715 OFFCURVE",
"55 529 OFFCURVE",
"55 312 CURVE SMOOTH",
"55 211 OFFCURVE",
"104 129 OFFCURVE",
"188 96 CURVE",
"198 148 LINE",
"34 148 LINE",
"5 0 LINE"
);
}
);
width = 774;
}
);
unicode = 03A9;
},
{
color = 1;
glyphname = pi;
lastChange = "2020-07-06 17:21:03 +0000";
layers = (
{
layerId = "F91D9E91-C1BC-4259-B0D8-112C0CBA2B8E";
paths = (
{
closed = 1;
nodes = (
"447 -5 OFFCURVE",
"466 -2 OFFCURVE",
"488 4 CURVE",
"487 14 LINE",
"468 8 OFFCURVE",
"450 5 OFFCURVE",
"435 5 CURVE SMOOTH",
"365 5 OFFCURVE",
"345 47 OFFCURVE",
"366 155 CURVE SMOOTH",
"430 483 LINE",
"517 483 LINE",
"519 493 LINE",
"96 493 LINE",
"94 483 LINE",
"157 483 LINE",
"63 0 LINE",
"73 0 LINE",
"167 483 LINE",
"420 483 LINE",
"356 155 LINE SMOOTH",
"334 40 OFFCURVE",
"356 -5 OFFCURVE",
"435 -5 CURVE SMOOTH"
);
}
);
width = 564;
},
{
layerId = "957254E3-B7AD-4837-9092-D4428001DE8E";
paths = (
{
closed = 1;
nodes = (
"459 -11 OFFCURVE",
"487 -3 OFFCURVE",
"524 18 CURVE",
"502 110 LINE",
"493 102 OFFCURVE",
"479 96 OFFCURVE",
"470 96 CURVE SMOOTH",
"460 96 OFFCURVE",
"456 103 OFFCURVE",
"458 115 CURVE SMOOTH",
"507 367 LINE",
"567 367 LINE",
"592 493 LINE",
"62 493 LINE",
"37 367 LINE",
"100 367 LINE",
"29 0 LINE",
"179 0 LINE",
"250 367 LINE",
"357 367 LINE",
"307 107 LINE SMOOTH",
"292 31 OFFCURVE",
"333 -11 OFFCURVE",
"421 -11 CURVE SMOOTH"
);
}
);
width = 578;
}
);
note = pi;
unicode = 03C0;
},
{
color = 1;
glyphname = zero;
lastChange = "2020-07-09 19:49:46 +0000";
layers = (
{
layerId = "F91D9E91-C1BC-4259-B0D8-112C0CBA2B8E";
paths = (
{
closed = 1;
nodes = (
"447 -5 OFFCURVE",
"520 345 OFFCURVE",
"520 496 CURVE SMOOTH",
"520 630 OFFCURVE",
"470 702 OFFCURVE",
"377 702 CURVE SMOOTH",
"167 702 OFFCURVE",
"101 335 OFFCURVE",
"101 196 CURVE SMOOTH",
"101 64 OFFCURVE",
"150 -5 OFFCURVE",
"246 -5 CURVE SMOOTH"
);
},
{
closed = 1;
nodes = (
"156 5 OFFCURVE",
"111 70 OFFCURVE",
"111 196 CURVE SMOOTH",
"111 335 OFFCURVE",
"176 692 OFFCURVE",
"377 692 CURVE SMOOTH",
"464 692 OFFCURVE",
"510 624 OFFCURVE",
"510 496 CURVE SMOOTH",
"510 347 OFFCURVE",
"439 5 OFFCURVE",
"246 5 CURVE SMOOTH"
);
}
);
width = 580;
},
{
layerId = "957254E3-B7AD-4837-9092-D4428001DE8E";
paths = (
{
closed = 1;
nodes = (
"429 -10 OFFCURVE",
"579 204 OFFCURVE",
"579 485 CURVE SMOOTH",
"579 626 OFFCURVE",
"510 709 OFFCURVE",
"379 709 CURVE SMOOTH",
"189 709 OFFCURVE",
"41 499 OFFCURVE",
"41 217 CURVE SMOOTH",
"41 74 OFFCURVE",
"109 -10 OFFCURVE",
"240 -10 CURVE SMOOTH"
);
},
{
closed = 1;
nodes = (
"219 134 OFFCURVE",
"195 165 OFFCURVE",
"195 241 CURVE SMOOTH",
"195 402 OFFCURVE",
"271 564 OFFCURVE",
"351 564 CURVE SMOOTH",
"400 564 OFFCURVE",
"423 534 OFFCURVE",
"423 459 CURVE SMOOTH",
"423 297 OFFCURVE",
"348 134 OFFCURVE",
"268 134 CURVE SMOOTH"
);
}
);
width = 580;
}
);
leftKerningGroup = zero;
note = zero;
rightKerningGroup = zero;
unicode = 0030;
},
{
color = 1;
glyphname = one;
lastChange = "2020-07-09 19:49:46 +0000";
layers = (
{
layerId = "F91D9E91-C1BC-4259-B0D8-112C0CBA2B8E";
paths = (
{
closed = 1;
nodes = (
"306 0 LINE",
"441 697 LINE",
"431 697 LINE",
"416 619 LINE SMOOTH",
"411 591 OFFCURVE",
"394 581 OFFCURVE",
"365 581 CURVE SMOOTH",
"221 581 LINE",
"219 571 LINE",
"414 571 LINE",
"409 581 LINE",
"296 0 LINE"
);
}
);
width = 580;
},
{
layerId = "957254E3-B7AD-4837-9092-D4428001DE8E";
paths = (
{
closed = 1;
nodes = (
"367 0 LINE",
"502 697 LINE",
"351 697 LINE",
"345 665 LINE SMOOTH",
"334 609 OFFCURVE",
"304 590 OFFCURVE",
"254 590 CURVE SMOOTH",
"175 590 LINE",
"152 471 LINE",
"351 471 LINE",
"322 544 LINE",
"216 0 LINE"
);
}
);
width = 580;
}
);
leftKerningGroup = one;
note = one;
rightKerningGroup = one;
unicode = 0031;
},
{
color = 1;
glyphname = two;
lastChange = "2020-07-09 19:49:46 +0000";
layers = (
{
layerId = "F91D9E91-C1BC-4259-B0D8-112C0CBA2B8E";
paths = (
{
closed = 1;
nodes = (
"479 0 LINE",
"481 10 LINE",
"16 10 LINE",
"18 18 LINE",
"250 152 OFFCURVE",
"498 297 OFFCURVE",
"539 508 CURVE SMOOTH",
"542 525 OFFCURVE",
"544 541 OFFCURVE",
"544 556 CURVE SMOOTH",
"544 647 OFFCURVE",
"475 702 OFFCURVE",
"363 702 CURVE SMOOTH",
"241 702 OFFCURVE",
"163 622 OFFCURVE",
"136 482 CURVE",
"146 482 LINE",
"172 616 OFFCURVE",
"247 692 OFFCURVE",
"363 692 CURVE SMOOTH",
"469 692 OFFCURVE",
"534 641 OFFCURVE",
"534 556 CURVE SMOOTH",
"534 542 OFFCURVE",
"532 526 OFFCURVE",
"529 510 CURVE SMOOTH",
"489 302 OFFCURVE",
"243 160 OFFCURVE",
"9 24 CURVE",
"4 0 LINE"
);
}
);
width = 580;
},
{
layerId = "957254E3-B7AD-4837-9092-D4428001DE8E";
paths = (
{
closed = 1;
nodes = (
"491 0 LINE",
"519 142 LINE",
"187 142 LINE",
"180 106 LINE",
"365 163 OFFCURVE",
"529 334 OFFCURVE",
"557 476 CURVE SMOOTH",
"561 494 OFFCURVE",
"562 512 OFFCURVE",
"562 528 CURVE SMOOTH",
"562 637 OFFCURVE",
"489 705 OFFCURVE",
"376 705 CURVE SMOOTH",
"214 705 OFFCURVE",
"100 566 OFFCURVE",
"77 444 CURVE",
"222 432 LINE",
"237 486 OFFCURVE",
"268 559 OFFCURVE",
"344 559 CURVE SMOOTH",
"391 559 OFFCURVE",
"409 532 OFFCURVE",
"409 496 CURVE SMOOTH",
"409 488 OFFCURVE",
"408 480 OFFCURVE",
"406 471 CURVE SMOOTH",
"377 322 OFFCURVE",
"133 179 OFFCURVE",
"23 120 CURVE",
"-1 0 LINE"
);
}
);
width = 580;
}
);
leftKerningGroup = two;
note = two;
rightKerningGroup = two;
unicode = 0032;
},
{
color = 1;
glyphname = three;
lastChange = "2020-07-09 19:49:47 +0000";
layers = (
{
layerId = "F91D9E91-C1BC-4259-B0D8-112C0CBA2B8E";
paths = (
{
closed = 1;
nodes = (
"434 -5 OFFCURVE",
"506 130 OFFCURVE",
"506 216 CURVE SMOOTH",
"506 330 OFFCURVE",
"404 363 OFFCURVE",
"336 370 CURVE",
"432 381 OFFCURVE",
"536 443 OFFCURVE",
"536 565 CURVE SMOOTH",
"536 646 OFFCURVE",
"471 702 OFFCURVE",
"372 702 CURVE SMOOTH",
"258 702 OFFCURVE",
"164 632 OFFCURVE",
"144 525 CURVE",
"154 525 LINE",
"174 625 OFFCURVE",
"261 692 OFFCURVE",
"372 692 CURVE SMOOTH",
"465 692 OFFCURVE",
"525 639 OFFCURVE",
"525 565 CURVE SMOOTH",
"525 427 OFFCURVE",
"393 374 OFFCURVE",
"275 375 CURVE",
"272 365 LINE",
"368 366 OFFCURVE",
"496 339 OFFCURVE",
"496 214 CURVE SMOOTH",
"496 138 OFFCURVE",
"431 5 OFFCURVE",
"239 5 CURVE SMOOTH",
"121 5 OFFCURVE",
"53 61 OFFCURVE",
"53 154 CURVE SMOOTH",
"53 167 OFFCURVE",
"54 181 OFFCURVE",
"57 195 CURVE",
"47 195 LINE",
"44 180 OFFCURVE",
"43 166 OFFCURVE",
"43 153 CURVE SMOOTH",
"43 55 OFFCURVE",
"115 -5 OFFCURVE",
"238 -5 CURVE SMOOTH"
);
}
);
width = 580;
},
{
layerId = "957254E3-B7AD-4837-9092-D4428001DE8E";
paths = (
{
closed = 1;
nodes = (
"410 -10 OFFCURVE",
"551 107 OFFCURVE",
"551 261 CURVE SMOOTH",
"551 312 OFFCURVE",
"528 356 OFFCURVE",
"474 382 CURVE",
"543 417 OFFCURVE",
"570 494 OFFCURVE",
"570 551 CURVE SMOOTH",
"570 651 OFFCURVE",
"486 707 OFFCURVE",
"378 707 CURVE SMOOTH",
"252 707 OFFCURVE",
"126 629 OFFCURVE",
"100 493 CURVE",
"247 483 LINE",
"257 532 OFFCURVE",
"294 563 OFFCURVE",
"344 563 CURVE SMOOTH",
"383 563 OFFCURVE",
"413 545 OFFCURVE",
"413 506 CURVE SMOOTH",
"413 484 OFFCURVE",
"412 422 OFFCURVE",
"290 422 CURVE",
"267 304 LINE",
"328 304 OFFCURVE",
"399 308 OFFCURVE",
"399 246 CURVE SMOOTH",
"399 178 OFFCURVE",
"344 134 OFFCURVE",
"268 134 CURVE SMOOTH",
"208 134 OFFCURVE",
"164 162 OFFCURVE",
"164 215 CURVE SMOOTH",
"164 221 OFFCURVE",
"165 228 OFFCURVE",
"166 236 CURVE",
"14 227 LINE",
"10 208 OFFCURVE",
"9 191 OFFCURVE",
"9 175 CURVE SMOOTH",
"9 49 OFFCURVE",
"113 -10 OFFCURVE",
"235 -10 CURVE SMOOTH"
);
}
);
width = 580;
}
);
leftKerningGroup = three;
note = three;
rightKerningGroup = three;
unicode = 0033;
},
{
color = 1;
glyphname = four;
lastChange = "2020-07-09 19:49:47 +0000";
layers = (
{
layerId = "F91D9E91-C1BC-4259-B0D8-112C0CBA2B8E";
paths = (
{
closed = 1;
nodes = (
"388 0 LINE",
"421 169 LINE",
"517 169 LINE",
"519 179 LINE",
"423 179 LINE",
"524 697 LINE",
"505 697 LINE",
"38 183 LINE",
"35 169 LINE",
"411 169 LINE",
"378 0 LINE"
);
},
{
closed = 1;
nodes = (
"510 687 LINE",
"512 687 LINE",
"413 179 LINE",
"43 179 LINE",
"43 175 LINE"
);
}
);
width = 580;
},
{
layerId = "957254E3-B7AD-4837-9092-D4428001DE8E";
paths = (
{
closed = 1;
nodes = (
"432 0 LINE",
"464 163 LINE",
"544 163 LINE",
"572 307 LINE",
"492 307 LINE",
"568 697 LINE",
"438 697 LINE",
"18 251 LINE",
"1 163 LINE",
"313 163 LINE",
"281 0 LINE"
);
},
{
closed = 1;
nodes = (
"401 511 LINE",
"383 525 LINE",
"341 307 LINE",
"164 307 LINE",
"166 251 LINE"
);
}
);
width = 580;
}
);
leftKerningGroup = four;
note = four;
rightKerningGroup = four;
unicode = 0034;
},
{
color = 1;
glyphname = five;
lastChange = "2020-07-09 19:49:46 +0000";
layers = (
{
layerId = "F91D9E91-C1BC-4259-B0D8-112C0CBA2B8E";
paths = (
{
closed = 1;
nodes = (
"403 -5 OFFCURVE",
"520 150 OFFCURVE",
"520 284 CURVE SMOOTH",
"520 393 OFFCURVE",
"448 465 OFFCURVE",
"339 465 CURVE SMOOTH",
"264 465 OFFCURVE",
"187 429 OFFCURVE",
"125 364 CURVE",
"126 363 LINE",
"246 691 LINE",
"240 687 LINE",
"563 687 LINE",
"563 697 LINE",
"238 697 LINE",
"114 357 LINE",
"127 352 LINE",
"190 419 OFFCURVE",
"266 455 OFFCURVE",
"339 455 CURVE SMOOTH",
"442 455 OFFCURVE",
"510 387 OFFCURVE",
"510 284 CURVE SMOOTH",
"510 154 OFFCURVE",
"399 5 OFFCURVE",
"237 5 CURVE SMOOTH",
"129 5 OFFCURVE",
"60 76 OFFCURVE",
"57 189 CURVE",
"47 189 LINE",
"50 70 OFFCURVE",
"124 -5 OFFCURVE",
"237 -5 CURVE SMOOTH"
);
}
);
width = 580;
},
{
layerId = "957254E3-B7AD-4837-9092-D4428001DE8E";
paths = (
{
closed = 1;
nodes = (
"455 -11 OFFCURVE",
"550 156 OFFCURVE",
"550 292 CURVE SMOOTH",
"550 399 OFFCURVE",
"476 487 OFFCURVE",
"348 487 CURVE SMOOTH",
"309 487 OFFCURVE",
"254 481 OFFCURVE",
"191 425 CURVE",
"239 411 LINE",
"320 620 LINE",
"227 553 LINE",
"575 553 LINE",
"603 697 LINE",
"199 697 LINE",
"57 326 LINE",
"189 292 LINE",
"211 319 OFFCURVE",
"246 346 OFFCURVE",
"300 346 CURVE SMOOTH",
"367 346 OFFCURVE",
"388 311 OFFCURVE",
"388 271 CURVE SMOOTH",
"388 217 OFFCURVE",
"351 133 OFFCURVE",
"259 133 CURVE SMOOTH",
"197 133 OFFCURVE",
"163 175 OFFCURVE",
"167 231 CURVE",
"14 206 LINE",
"5 86 OFFCURVE",
"98 -11 OFFCURVE",
"246 -11 CURVE SMOOTH"
);
}
);
width = 580;
}
);
leftKerningGroup = five;
note = five;
rightKerningGroup = five;
unicode = 0035;
},
{
color = 1;
glyphname = six;
lastChange = "2020-07-09 19:49:47 +0000";
layers = (
{
layerId = "F91D9E91-C1BC-4259-B0D8-112C0CBA2B8E";
paths = (
{
closed = 1;
nodes = (
"391 -5 OFFCURVE",
"505 134 OFFCURVE",
"505 254 CURVE SMOOTH",
"505 355 OFFCURVE",
"431 432 OFFCURVE",
"325 432 CURVE SMOOTH",
"268 432 OFFCURVE",
"211 409 OFFCURVE",
"164 373 CURVE",
"165 371 LINE",
"417 697 LINE",
"404 697 LINE",
"122 331 LINE SMOOTH",
"83 280 OFFCURVE",
"61 227 OFFCURVE",
"61 172 CURVE SMOOTH",
"61 71 OFFCURVE",
"135 -5 OFFCURVE",
"242 -5 CURVE SMOOTH"
);
},
{
closed = 1;
nodes = (
"141 5 OFFCURVE",
"71 77 OFFCURVE",
"71 173 CURVE SMOOTH",
"71 287 OFFCURVE",
"180 422 OFFCURVE",
"325 422 CURVE SMOOTH",
"425 422 OFFCURVE",
"495 349 OFFCURVE",
"495 254 CURVE SMOOTH",
"495 141 OFFCURVE",
"387 5 OFFCURVE",
"242 5 CURVE SMOOTH"
);
}
);
width = 580;
},
{
layerId = "957254E3-B7AD-4837-9092-D4428001DE8E";
paths = (
{
closed = 1;
nodes = (
"420 -11 OFFCURVE",
"557 137 OFFCURVE",
"557 288 CURVE SMOOTH",
"557 398 OFFCURVE",
"478 477 OFFCURVE",
"357 477 CURVE SMOOTH",
"340 477 OFFCURVE",
"321 475 OFFCURVE",
"303 472 CURVE",
"317 448 LINE",
"534 697 LINE",
"360 697 LINE",
"90 371 LINE SMOOTH",
"40 311 OFFCURVE",
"19 243 OFFCURVE",
"19 189 CURVE SMOOTH",
"19 69 OFFCURVE",
"112 -11 OFFCURVE",
"241 -11 CURVE SMOOTH"
);
},
{
closed = 1;
nodes = (
"215 133 OFFCURVE",
"176 162 OFFCURVE",
"176 215 CURVE SMOOTH",
"176 282 OFFCURVE",
"228 344 OFFCURVE",
"310 344 CURVE SMOOTH",
"364 344 OFFCURVE",
"401 314 OFFCURVE",
"401 262 CURVE SMOOTH",
"401 195 OFFCURVE",
"349 133 OFFCURVE",
"269 133 CURVE SMOOTH"
);
}
);
width = 580;
}
);
leftKerningGroup = zero;
note = six;
rightKerningGroup = six;
unicode = 0036;
},
{
color = 1;
glyphname = seven;
lastChange = "2020-07-09 19:49:47 +0000";
layers = (
{
layerId = "F91D9E91-C1BC-4259-B0D8-112C0CBA2B8E";
paths = (
{
closed = 1;
nodes = (
"113 0 LINE",
"619 679 LINE",
"622 697 LINE",
"128 697 LINE",
"126 687 LINE",
"610 687 LINE",
"609 681 LINE",
"101 0 LINE"
);
}
);
width = 580;
},
{
layerId = "957254E3-B7AD-4837-9092-D4428001DE8E";
paths = (
{
closed = 1;
nodes = (
"207 0 LINE",
"618 620 LINE",
"633 697 LINE",
"128 697 LINE",
"100 553 LINE",
"484 553 LINE",
"458 617 LINE",
"33 0 LINE"
);
}
);
width = 580;
}
);
leftKerningGroup = seven;
note = seven;
rightKerningGroup = seven;
unicode = 0037;
},
{
color = 1;
glyphname = eight;
lastChange = "2020-07-09 19:49:47 +0000";
layers = (
{
layerId = "F91D9E91-C1BC-4259-B0D8-112C0CBA2B8E";
paths = (
{
closed = 1;
nodes = (
"394 -5 OFFCURVE",
"480 118 OFFCURVE",
"480 225 CURVE SMOOTH",
"480 307 OFFCURVE",
"435 364 OFFCURVE",
"361 380 CURVE",
"361 378 LINE",
"461 399 OFFCURVE",
"517 489 OFFCURVE",
"517 568 CURVE SMOOTH",
"517 650 OFFCURVE",
"463 702 OFFCURVE",
"380 702 CURVE SMOOTH",
"251 702 OFFCURVE",
"177 598 OFFCURVE",
"177 507 CURVE SMOOTH",
"177 441 OFFCURVE",
"213 394 OFFCURVE",
"273 379 CURVE",
"273 381 LINE",
"147 360 OFFCURVE",
"76 250 OFFCURVE",
"76 153 CURVE SMOOTH",
"76 58 OFFCURVE",
"142 -5 OFFCURVE",
"242 -5 CURVE SMOOTH"
);
},
{
closed = 1;
nodes = (
"147 5 OFFCURVE",
"86 63 OFFCURVE",
"86 153 CURVE SMOOTH",
"86 257 OFFCURVE",
"170 374 OFFCURVE",
"317 374 CURVE SMOOTH",
"411 374 OFFCURVE",
"470 316 OFFCURVE",
"470 225 CURVE SMOOTH",
"470 122 OFFCURVE",
"388 5 OFFCURVE",
"242 5 CURVE SMOOTH"
);
},
{
closed = 1;
nodes = (
"237 384 OFFCURVE",
"187 432 OFFCURVE",
"187 507 CURVE SMOOTH",
"187 594 OFFCURVE",
"257 692 OFFCURVE",
"380 692 CURVE SMOOTH",
"458 692 OFFCURVE",
"507 644 OFFCURVE",
"507 568 CURVE SMOOTH",
"507 482 OFFCURVE",
"439 384 OFFCURVE",
"317 384 CURVE SMOOTH"
);
}
);
width = 580;
},
{
layerId = "957254E3-B7AD-4837-9092-D4428001DE8E";
paths = (
{
closed = 1;
nodes = (
"446 -11 OFFCURVE",
"558 105 OFFCURVE",
"558 240 CURVE SMOOTH",
"558 323 OFFCURVE",
"516 376 OFFCURVE",
"459 400 CURVE",
"475 361 LINE",
"543 391 OFFCURVE",
"582 466 OFFCURVE",
"582 537 CURVE SMOOTH",
"582 640 OFFCURVE",
"499 708 OFFCURVE",
"368 708 CURVE SMOOTH",
"198 708 OFFCURVE",
"95 594 OFFCURVE",
"95 480 CURVE SMOOTH",
"95 418 OFFCURVE",
"126 368 OFFCURVE",
"177 345 CURVE",
"158 392 LINE",
"62 358 OFFCURVE",
"6 275 OFFCURVE",
"6 185 CURVE SMOOTH",
"6 63 OFFCURVE",
"107 -11 OFFCURVE",
"258 -11 CURVE SMOOTH"
);
},
{
closed = 1;
nodes = (
"193 132 OFFCURVE",
"159 170 OFFCURVE",
"159 212 CURVE SMOOTH",
"159 263 OFFCURVE",
"209 319 OFFCURVE",
"301 319 CURVE SMOOTH",
"373 319 OFFCURVE",
"406 281 OFFCURVE",
"406 239 CURVE SMOOTH",
"406 188 OFFCURVE",
"356 132 OFFCURVE",
"265 132 CURVE SMOOTH"
);
},
{
closed = 1;
nodes = (
"270 421 OFFCURVE",
"246 449 OFFCURVE",
"246 481 CURVE SMOOTH",
"246 520 OFFCURVE",
"283 564 OFFCURVE",
"351 564 CURVE SMOOTH",
"404 564 OFFCURVE",
"428 536 OFFCURVE",
"428 504 CURVE SMOOTH",
"428 465 OFFCURVE",
"391 421 OFFCURVE",
"323 421 CURVE SMOOTH"
);
}
);
width = 580;
}
);
leftKerningGroup = eight;
note = eight;
rightKerningGroup = eight;
unicode = 0038;
},
{
color = 1;
glyphname = nine;
lastChange = "2020-07-09 19:49:47 +0000";
layers = (
{
layerId = "F91D9E91-C1BC-4259-B0D8-112C0CBA2B8E";
paths = (
{
closed = 1;
nodes = (
"215 0 LINE",
"497 366 LINE SMOOTH",
"536 417 OFFCURVE",
"558 470 OFFCURVE",
"558 525 CURVE SMOOTH",
"558 626 OFFCURVE",
"484 702 OFFCURVE",
"377 702 CURVE SMOOTH",
"228 702 OFFCURVE",
"114 563 OFFCURVE",
"114 443 CURVE SMOOTH",
"114 342 OFFCURVE",
"188 265 OFFCURVE",
"294 265 CURVE SMOOTH",
"351 265 OFFCURVE",
"408 288 OFFCURVE",
"455 324 CURVE",
"454 326 LINE",
"202 0 LINE"
);
},
{
closed = 1;
nodes = (
"194 275 OFFCURVE",
"124 348 OFFCURVE",
"124 443 CURVE SMOOTH",
"124 556 OFFCURVE",
"232 692 OFFCURVE",
"377 692 CURVE SMOOTH",
"478 692 OFFCURVE",
"548 620 OFFCURVE",
"548 524 CURVE SMOOTH",
"548 410 OFFCURVE",
"439 275 OFFCURVE",
"294 275 CURVE SMOOTH"
);
}
);
width = 580;
},
{
layerId = "957254E3-B7AD-4837-9092-D4428001DE8E";
paths = (
{
closed = 1;
nodes = (
"259 0 LINE",
"505 296 LINE SMOOTH",
"579 386 OFFCURVE",
"600 454 OFFCURVE",
"600 508 CURVE SMOOTH",
"600 628 OFFCURVE",
"507 708 OFFCURVE",
"378 708 CURVE SMOOTH",
"199 708 OFFCURVE",
"62 560 OFFCURVE",
"62 409 CURVE SMOOTH",
"62 299 OFFCURVE",
"141 220 OFFCURVE",
"262 220 CURVE SMOOTH",
"279 220 OFFCURVE",
"298 222 OFFCURVE",
"316 225 CURVE",
"302 249 LINE",
"85 0 LINE"
);
},
{
closed = 1;
nodes = (
"255 353 OFFCURVE",
"218 383 OFFCURVE",
"218 435 CURVE SMOOTH",
"218 502 OFFCURVE",
"270 564 OFFCURVE",
"350 564 CURVE SMOOTH",
"404 564 OFFCURVE",
"443 535 OFFCURVE",
"443 482 CURVE SMOOTH",
"443 415 OFFCURVE",
"391 353 OFFCURVE",
"309 353 CURVE SMOOTH"
);
}
);
width = 580;
}
);
leftKerningGroup = nine;
note = nine;
rightKerningGroup = zero;
unicode = 0039;
},
{
color = 1;
glyphname = onesuperior;
lastChange = "2020-07-06 17:21:03 +0000";
layers = (
{
layerId = "F91D9E91-C1BC-4259-B0D8-112C0CBA2B8E";
paths = (
{
closed = 1;
nodes = (
"181 488 LINE",
"261 902 LINE",
"251 902 LINE",
"243 858 LINE SMOOTH",
"239 840 OFFCURVE",
"228 833 OFFCURVE",
"209 833 CURVE SMOOTH",
"128 833 LINE",
"126 823 LINE",
"241 823 LINE",
"237 831 LINE",
"171 488 LINE"
);
}
);
width = 216;
},
{
layerId = "957254E3-B7AD-4837-9092-D4428001DE8E";
paths = (
{
closed = 1;
nodes = (
"204 488 LINE",
"284 902 LINE",
"209 902 LINE",
"205 879 LINE SMOOTH",
"199 850 OFFCURVE",
"180 838 OFFCURVE",
"151 838 CURVE SMOOTH",
"98 838 LINE",
"86 777 LINE",
"204 777 LINE",
"188 814 LINE",
"125 488 LINE"
);
}
);
width = 201;
}
);
leftKerningGroup = onesuperior;
rightKerningGroup = onesuperior;
unicode = 00B9;
},
{
color = 1;
glyphname = twosuperior;
lastChange = "2020-07-06 17:21:03 +0000";
layers = (
{
layerId = "F91D9E91-C1BC-4259-B0D8-112C0CBA2B8E";
paths = (
{
closed = 1;
nodes = (
"362 488 LINE",
"363 498 LINE",
"93 498 LINE",
"95 503 LINE",
"227 578 OFFCURVE",
"372 665 OFFCURVE",
"396 788 CURVE SMOOTH",
"410 861 OFFCURVE",
"373 905 OFFCURVE",
"301 905 CURVE SMOOTH",
"222 905 OFFCURVE",
"169 855 OFFCURVE",
"153 772 CURVE",
"163 772 LINE",
"178 849 OFFCURVE",
"229 895 OFFCURVE",
"300 895 CURVE SMOOTH",
"368 895 OFFCURVE",
"399 855 OFFCURVE",
"386 790 CURVE SMOOTH",
"362 667 OFFCURVE",
"211 580 OFFCURVE",
"78 504 CURVE",
"76 488 LINE"
);
}
);
width = 349;
},
{
layerId = "957254E3-B7AD-4837-9092-D4428001DE8E";
paths = (
{
closed = 1;
nodes = (
"363 488 LINE",
"377 560 LINE",
"158 560 LINE",
"178 553 LINE",
"263 590 OFFCURVE",
"381 685 OFFCURVE",
"399 778 CURVE SMOOTH",
"415 862 OFFCURVE",
"366 908 OFFCURVE",
"290 908 CURVE SMOOTH",
"197 908 OFFCURVE",
"129 831 OFFCURVE",
"114 755 CURVE",
"191 749 LINE",
"201 789 OFFCURVE",
"224 836 OFFCURVE",
"276 836 CURVE SMOOTH",
"315 836 OFFCURVE",
"325 810 OFFCURVE",
"319 780 CURVE SMOOTH",
"300 682 OFFCURVE",
"136 591 OFFCURVE",
"59 550 CURVE",
"47 488 LINE"
);
}
);
width = 325;
}
);
leftKerningGroup = twosuperior;
rightKerningGroup = twosuperior;
unicode = 00B2;
},
{
color = 1;
glyphname = threesuperior;
lastChange = "2020-07-06 17:21:03 +0000";
layers = (
{
layerId = "F91D9E91-C1BC-4259-B0D8-112C0CBA2B8E";
paths = (
{
closed = 1;
nodes = (
"301 483 OFFCURVE",
"367 529 OFFCURVE",
"381 599 CURVE SMOOTH",
"395 675 OFFCURVE",
"333 700 OFFCURVE",
"285 706 CURVE",
"326 712 OFFCURVE",
"385 735 OFFCURVE",
"398 801 CURVE SMOOTH",
"409 861 OFFCURVE",
"367 903 OFFCURVE",
"300 903 CURVE SMOOTH",
"232 903 OFFCURVE",
"175 861 OFFCURVE",
"163 796 CURVE",
"173 796 LINE",
"184 853 OFFCURVE",
"237 893 OFFCURVE",
"300 893 CURVE SMOOTH",
"359 893 OFFCURVE",
"398 853 OFFCURVE",
"388 802 CURVE SMOOTH",
"373 727 OFFCURVE",
"296 710 OFFCURVE",
"243 710 CURVE",
"241 700 LINE",
"303 701 OFFCURVE",
"387 682 OFFCURVE",
"371 601 CURVE SMOOTH",
"358 534 OFFCURVE",
"295 493 OFFCURVE",
"222 493 CURVE SMOOTH",
"146 493 OFFCURVE",
"103 534 OFFCURVE",
"116 604 CURVE",
"106 603 LINE",
"92 529 OFFCURVE",
"138 483 OFFCURVE",
"222 483 CURVE SMOOTH"
);
}
);
width = 359;
},
{
layerId = "957254E3-B7AD-4837-9092-D4428001DE8E";
paths = (
{
closed = 1;
nodes = (
"280 480 OFFCURVE",
"363 523 OFFCURVE",
"379 609 CURVE SMOOTH",
"388 651 OFFCURVE",
"379 696 OFFCURVE",
"328 711 CURVE",
"372 732 OFFCURVE",
"387 763 OFFCURVE",
"393 792 CURVE SMOOTH",
"407 864 OFFCURVE",
"350 906 OFFCURVE",
"281 906 CURVE SMOOTH",
"209 906 OFFCURVE",
"138 861 OFFCURVE",
"123 782 CURVE",
"197 777 LINE",
"205 811 OFFCURVE",
"233 832 OFFCURVE",
"269 832 CURVE SMOOTH",
"298 832 OFFCURVE",
"321 819 OFFCURVE",
"313 775 CURVE SMOOTH",
"308 751 OFFCURVE",
"296 729 OFFCURVE",
"230 729 CURVE",
"220 677 LINE",
"263 677 OFFCURVE",
"316 672 OFFCURVE",
"305 617 CURVE SMOOTH",
"296 571 OFFCURVE",
"254 553 OFFCURVE",
"215 553 CURVE SMOOTH",
"170 553 OFFCURVE",
"139 578 OFFCURVE",
"148 623 CURVE",
"71 618 LINE",
"53 525 OFFCURVE",
"117 480 OFFCURVE",
"199 480 CURVE SMOOTH"
);
}
);
width = 319;
}
);
leftKerningGroup = threesuperior;
rightKerningGroup = threesuperior;
unicode = 00B3;
},
{
glyphname = foursuperior;
lastChange = "2020-07-09 19:49:50 +0000";
layers = (
{
guideLines = (
{
position = "{323, 902}";
}
);
layerId = "F91D9E91-C1BC-4259-B0D8-112C0CBA2B8E";
paths = (
{
closed = 1;
nodes = (
"330 484 LINE",
"349 585 LINE",
"419 585 LINE",
"420 594 LINE",
"352 594 LINE",
"411 902 LINE",
"398 902 LINE",
"118 595 LINE",
"116 585 LINE",
"340 585 LINE",
"321 484 LINE"
);
},
{
closed = 1;
nodes = (
"399 892 LINE",
"400 893 LINE",
"342 594 LINE",
"124 594 LINE",
"124 591 LINE"
);
}
);
width = 401;
},
{
guideLines = (
{
position = "{294, 902}";
}
);
layerId = "957254E3-B7AD-4837-9092-D4428001DE8E";
paths = (
{
closed = 1;
nodes = (
"341 484 LINE",
"360 582 LINE",
"426 582 LINE",
"443 668 LINE",
"377 668 LINE",
"423 902 LINE",
"345 902 LINE",
"93 634 LINE",
"82 582 LINE",
"270 582 LINE",
"250 484 LINE"
);
},
{
closed = 1;
nodes = (
"322 790 LINE",
"312 799 LINE",
"286 668 LINE",
"180 668 LINE",
"181 634 LINE"
);
}
);
width = 381;
}
);
leftMetricsKey = four;
rightMetricsKey = four;
unicode = 2074;
},
{
glyphname = fraction;
lastChange = "2020-07-06 17:21:03 +0000";
layers = (
{
layerId = "F91D9E91-C1BC-4259-B0D8-112C0CBA2B8E";
paths = (
{
closed = 1;
nodes = (
"-38 0 LINE",
"325 697 LINE",
"315 697 LINE",
"-48 0 LINE"
);
}
);
width = 237;
},
{
layerId = "957254E3-B7AD-4837-9092-D4428001DE8E";
paths = (
{
closed = 1;
nodes = (
"-32 0 LINE",
"404 697 LINE",
"318 697 LINE",
"-118 0 LINE"
);
}
);
width = 220;
}
);
note = fraction;
unicode = 2044;
},
{
color = 1;
glyphname = onehalf;
lastChange = "2020-07-06 17:21:03 +0000";
layers = (
{
layerId = "F91D9E91-C1BC-4259-B0D8-112C0CBA2B8E";
paths = (
{
closed = 1;
nodes = (
"192 0 LINE",
"555 697 LINE",
"545 697 LINE",
"182 0 LINE"
);
},
{
closed = 1;
nodes = (
"185 280 LINE",
"265 694 LINE",
"255 694 LINE",
"247 650 LINE SMOOTH",
"243 632 OFFCURVE",
"232 625 OFFCURVE",
"213 625 CURVE SMOOTH",
"132 625 LINE",
"130 615 LINE",
"245 615 LINE",
"241 623 LINE",
"175 280 LINE"
);
},
{
closed = 1;
nodes = (
"695 0 LINE",
"697 10 LINE",
"427 10 LINE",
"428 15 LINE",
"561 90 OFFCURVE",
"705 177 OFFCURVE",
"729 300 CURVE SMOOTH",
"744 373 OFFCURVE",
"707 417 OFFCURVE",
"634 417 CURVE SMOOTH",
"556 417 OFFCURVE",
"502 367 OFFCURVE",
"486 284 CURVE",
"496 284 LINE",
"511 361 OFFCURVE",
"563 407 OFFCURVE",
"634 407 CURVE SMOOTH",
"702 407 OFFCURVE",
"732 367 OFFCURVE",
"720 302 CURVE SMOOTH",
"696 179 OFFCURVE",
"545 92 OFFCURVE",
"412 16 CURVE",
"409 0 LINE"
);
}
);
width = 814;
},
{
layerId = "957254E3-B7AD-4837-9092-D4428001DE8E";
paths = (
{
closed = 1;
nodes = (
"180 0 LINE",
"616 697 LINE",
"530 697 LINE",
"94 0 LINE"
);
},
{
closed = 1;
nodes = (
"175 280 LINE",
"255 694 LINE",
"180 694 LINE",
"176 671 LINE SMOOTH",
"170 642 OFFCURVE",
"151 630 OFFCURVE",
"122 630 CURVE SMOOTH",
"69 630 LINE",
"57 569 LINE",
"175 569 LINE",
"159 606 LINE",
"96 280 LINE"
);
},
{
closed = 1;
nodes = (
"699 0 LINE",
"713 72 LINE",
"494 72 LINE",
"515 65 LINE",
"600 102 OFFCURVE",
"717 197 OFFCURVE",
"735 290 CURVE SMOOTH",
"752 374 OFFCURVE",
"703 420 OFFCURVE",
"627 420 CURVE SMOOTH",
"534 420 OFFCURVE",
"466 343 OFFCURVE",
"451 267 CURVE",
"528 261 LINE",
"538 301 OFFCURVE",
"561 348 OFFCURVE",
"613 348 CURVE SMOOTH",
"652 348 OFFCURVE",
"662 322 OFFCURVE",
"656 292 CURVE SMOOTH",
"637 194 OFFCURVE",
"472 103 OFFCURVE",
"395 62 CURVE",
"383 0 LINE"
);
}
);
width = 758;
}
);
unicode = 00BD;
},
{
color = 1;
glyphname = onequarter;
lastChange = "2020-07-06 17:21:03 +0000";
layers = (
{
layerId = "F91D9E91-C1BC-4259-B0D8-112C0CBA2B8E";
paths = (
{
closed = 1;
nodes = (
"192 0 LINE",
"555 697 LINE",
"545 697 LINE",
"182 0 LINE"
);
},
{
closed = 1;
nodes = (
"185 280 LINE",
"265 694 LINE",
"255 694 LINE",
"247 650 LINE SMOOTH",
"243 632 OFFCURVE",
"232 625 OFFCURVE",
"213 625 CURVE SMOOTH",
"132 625 LINE",
"130 615 LINE",
"245 615 LINE",
"241 623 LINE",
"175 280 LINE"
);
},
{
closed = 1;
nodes = (
"628 0 LINE",
"648 103 LINE",
"717 103 LINE",
"719 113 LINE",
"650 113 LINE",
"709 414 LINE",
"695 414 LINE",
"420 112 LINE",
"418 103 LINE",
"638 103 LINE",
"618 0 LINE"
);
},
{
closed = 1;
nodes = (
"694 399 LINE",
"696 399 LINE",
"640 113 LINE",
"433 113 LINE"
);
}
);
width = 810;
},
{
layerId = "957254E3-B7AD-4837-9092-D4428001DE8E";
paths = (
{
closed = 1;
nodes = (
"180 0 LINE",
"616 697 LINE",
"530 697 LINE",
"94 0 LINE"
);
},
{
closed = 1;
nodes = (
"175 280 LINE",
"255 694 LINE",
"180 694 LINE",
"176 671 LINE SMOOTH",
"170 642 OFFCURVE",
"151 630 OFFCURVE",
"122 630 CURVE SMOOTH",
"69 630 LINE",
"57 569 LINE",
"175 569 LINE",
"159 606 LINE",
"96 280 LINE"
);
},
{
closed = 1;
nodes = (
"630 0 LINE",
"649 97 LINE",
"714 97 LINE",
"728 170 LINE",
"663 170 LINE",
"711 414 LINE",
"644 414 LINE",
"390 143 LINE",
"381 97 LINE",
"570 97 LINE",
"551 0 LINE"
);
},
{
closed = 1;
nodes = (
"633 320 LINE",
"614 326 LINE",
"584 170 LINE",
"498 170 LINE"
);
}
);
width = 747;
}
);
unicode = 00BC;
},
{
color = 1;
glyphname = threequarters;
lastChange = "2020-07-06 17:21:03 +0000";
layers = (
{
layerId = "F91D9E91-C1BC-4259-B0D8-112C0CBA2B8E";
paths = (
{
closed = 1;
nodes = (
"328 0 LINE",
"691 697 LINE",
"681 697 LINE",
"318 0 LINE"
);
},
{
closed = 1;
nodes = (
"297 277 OFFCURVE",
"363 323 OFFCURVE",
"377 393 CURVE SMOOTH",
"391 469 OFFCURVE",
"329 494 OFFCURVE",
"281 500 CURVE",
"322 506 OFFCURVE",
"381 529 OFFCURVE",
"394 595 CURVE SMOOTH",
"405 655 OFFCURVE",
"363 697 OFFCURVE",
"296 697 CURVE SMOOTH",
"228 697 OFFCURVE",
"171 655 OFFCURVE",
"159 590 CURVE",
"169 590 LINE",
"180 647 OFFCURVE",
"233 687 OFFCURVE",
"296 687 CURVE SMOOTH",
"355 687 OFFCURVE",
"394 647 OFFCURVE",
"384 596 CURVE SMOOTH",
"369 521 OFFCURVE",
"292 504 OFFCURVE",
"239 504 CURVE",
"237 494 LINE",
"299 495 OFFCURVE",
"383 476 OFFCURVE",
"367 395 CURVE SMOOTH",
"354 328 OFFCURVE",
"291 287 OFFCURVE",
"218 287 CURVE SMOOTH",
"142 287 OFFCURVE",
"99 328 OFFCURVE",
"112 398 CURVE",
"102 397 LINE",
"88 323 OFFCURVE",
"134 277 OFFCURVE",
"218 277 CURVE SMOOTH"
);
},
{
closed = 1;
nodes = (
"764 0 LINE",
"784 103 LINE",
"853 103 LINE",
"855 113 LINE",
"786 113 LINE",
"845 414 LINE",
"831 414 LINE",
"556 112 LINE",
"554 103 LINE",
"774 103 LINE",
"754 0 LINE"
);
},
{
closed = 1;
nodes = (
"830 399 LINE",
"832 399 LINE",
"776 113 LINE",
"569 113 LINE"
);
}
);
width = 946;
},
{
layerId = "957254E3-B7AD-4837-9092-D4428001DE8E";
paths = (
{
closed = 1;
nodes = (
"293 0 LINE",
"729 697 LINE",
"643 697 LINE",
"207 0 LINE"
);
},
{
closed = 1;
nodes = (
"246 274 OFFCURVE",
"329 317 OFFCURVE",
"345 403 CURVE SMOOTH",
"354 445 OFFCURVE",
"345 490 OFFCURVE",
"294 505 CURVE",
"338 526 OFFCURVE",
"353 557 OFFCURVE",
"359 586 CURVE SMOOTH",
"373 658 OFFCURVE",
"316 700 OFFCURVE",
"247 700 CURVE SMOOTH",
"175 700 OFFCURVE",
"104 655 OFFCURVE",
"89 576 CURVE",
"163 571 LINE",
"171 605 OFFCURVE",
"199 626 OFFCURVE",
"235 626 CURVE SMOOTH",
"264 626 OFFCURVE",
"287 613 OFFCURVE",
"279 569 CURVE SMOOTH",
"274 545 OFFCURVE",
"262 523 OFFCURVE",
"196 523 CURVE",
"186 471 LINE",
"229 471 OFFCURVE",
"282 466 OFFCURVE",
"271 411 CURVE SMOOTH",
"262 365 OFFCURVE",
"220 347 OFFCURVE",
"181 347 CURVE SMOOTH",
"136 347 OFFCURVE",
"105 372 OFFCURVE",
"114 417 CURVE",
"37 412 LINE",
"19 319 OFFCURVE",
"83 274 OFFCURVE",
"165 274 CURVE SMOOTH"
);
},
{
closed = 1;
nodes = (
"743 0 LINE",
"762 97 LINE",
"827 97 LINE",
"841 170 LINE",
"776 170 LINE",
"824 414 LINE",
"757 414 LINE",
"503 143 LINE",
"494 97 LINE",
"683 97 LINE",
"664 0 LINE"
);
},
{
closed = 1;
nodes = (
"746 320 LINE",
"727 326 LINE",
"697 170 LINE",
"611 170 LINE"
);
}
);
width = 860;
}
);
unicode = 00BE;
},
{
color = 1;
glyphname = period;
lastChange = "2020-07-07 04:02:36 +0000";
layers = (
{
layerId = "F91D9E91-C1BC-4259-B0D8-112C0CBA2B8E";
paths = (
{
closed = 1;
nodes = (
"82 0 LINE",
"99 87 LINE",
"88 87 LINE",
"71 0 LINE"
);
}
);
width = 250;
},
{
layerId = "957254E3-B7AD-4837-9092-D4428001DE8E";
paths = (
{
closed = 1;
nodes = (
"182 0 LINE",
"210 142 LINE",
"0 142 LINE",
"-28 0 LINE"
);
}
);
width = 250;
},
{
associatedMasterId = "957254E3-B7AD-4837-9092-D4428001DE8E";
layerId = "53782A10-B294-4A84-BFA5-659AE24C21C0";
name = "Black [500]";
paths = (
{
closed = 1;
nodes = (
"147 0 LINE",
"175 142 LINE",
"35 142 LINE",
"7 0 LINE"
);
}
);
width = 250;
},
{
associatedMasterId = "F91D9E91-C1BC-4259-B0D8-112C0CBA2B8E";
layerId = "B14EE5ED-220E-4C1B-866C-D60BA5703612";
name = "Thin [500]";
paths = (
{
closed = 1;
nodes = (
"123 0 LINE",
"140 87 LINE",
"49 87 LINE",
"32 0 LINE"
);
}
);
width = 250;
}
);
leftKerningGroup = comma;
note = ellipsis;
rightKerningGroup = comma;
unicode = 002E;
},
{
color = 1;
glyphname = comma;
lastChange = "2020-07-07 03:55:17 +0000";
layers = (
{
layerId = "F91D9E91-C1BC-4259-B0D8-112C0CBA2B8E";
paths = (
{
closed = 1;
nodes = (
"-17 -162 LINE",
"178 128 LINE",
"167 128 LINE",
"-29 -162 LINE"
);
}
);
width = 250;
},
{
layerId = "957254E3-B7AD-4837-9092-D4428001DE8E";
paths = (
{
closed = 1;
nodes = (
"49 -145 LINE",
"232 162 LINE",
"63 162 LINE",
"-49 -145 LINE"
);
}
);
width = 250;
}
);
leftKerningGroup = comma;
note = comma;
rightKerningGroup = comma;
unicode = 002C;
},
{
color = 1;
glyphname = colon;
lastChange = "2020-07-07 04:02:25 +0000";
layers = (
{
layerId = "F91D9E91-C1BC-4259-B0D8-112C0CBA2B8E";
paths = (
{
closed = 1;
nodes = (
"157 384 LINE",
"174 471 LINE",
"163 471 LINE",
"146 384 LINE"
);
},
{
closed = 1;
nodes = (
"82 0 LINE",
"99 87 LINE",
"88 87 LINE",
"71 0 LINE"
);
}
);
width = 250;
},
{
layerId = "957254E3-B7AD-4837-9092-D4428001DE8E";
paths = (
{
closed = 1;
nodes = (
"219 327 LINE",
"247 471 LINE",
"91 471 LINE",
"63 327 LINE"
);
},
{
closed = 1;
nodes = (
"155 0 LINE",
"183 142 LINE",
"27 142 LINE",
"-1 0 LINE"
);
}
);
width = 250;
},
{
associatedMasterId = "F91D9E91-C1BC-4259-B0D8-112C0CBA2B8E";
layerId = "283CBF57-1801-4FBB-852C-60388FB7A97D";
name = "Thin [500]";
paths = (
{
closed = 1;
nodes = (
"197 384 LINE",
"214 471 LINE",
"123 471 LINE",
"106 384 LINE"
);
},
{
closed = 1;
nodes = (
"122 0 LINE",
"139 87 LINE",
"48 87 LINE",
"31 0 LINE"
);
}
);
width = 250;
}
);
leftKerningGroup = colon;
note = colon;
rightKerningGroup = colon;
unicode = 003A;
},
{
color = 1;
glyphname = semicolon;
lastChange = "2020-07-07 04:02:32 +0000";
layers = (
{
layerId = "F91D9E91-C1BC-4259-B0D8-112C0CBA2B8E";
paths = (
{
closed = 1;
nodes = (
"-34 -162 LINE",
"161 128 LINE",
"150 128 LINE",
"-46 -162 LINE"
);
},
{
closed = 1;
nodes = (
"191 384 LINE",
"208 471 LINE",
"198 471 LINE",
"181 384 LINE"
);
}
);
width = 250;
},
{
layerId = "957254E3-B7AD-4837-9092-D4428001DE8E";
paths = (
{
closed = 1;
nodes = (
"33 -145 LINE",
"209 131 LINE",
"40 131 LINE",
"-67 -145 LINE"
);
},
{
closed = 1;
nodes = (
"234 327 LINE",
"262 471 LINE",
"105 471 LINE",
"77 327 LINE"
);
}
);
width = 250;
},
{
associatedMasterId = "F91D9E91-C1BC-4259-B0D8-112C0CBA2B8E";
layerId = "8034D352-2478-4899-BD0A-8A98F4A42A0B";
name = "Thin [500]";
paths = (
{
closed = 1;
nodes = (
"-43 -162 LINE",
"152 128 LINE",
"141 128 LINE",
"-55 -162 LINE"
);
},
{
closed = 1;
nodes = (
"222 384 LINE",
"239 471 LINE",
"148 471 LINE",
"131 384 LINE"
);
}
);
width = 250;
}
);
leftKerningGroup = colon;
note = semicolon;
rightKerningGroup = colon;
unicode = 003B;
},
{
color = 1;
glyphname = ellipsis;
lastChange = "2020-07-07 05:23:09 +0000";
layers = (
{
layerId = "F91D9E91-C1BC-4259-B0D8-112C0CBA2B8E";
paths = (
{
closed = 1;
nodes = (
"390 0 LINE",
"407 87 LINE",
"397 87 LINE",
"380 0 LINE"
);
},
{
closed = 1;
nodes = (
"82 0 LINE",
"99 87 LINE",
"88 87 LINE",
"71 0 LINE"
);
},
{
closed = 1;
nodes = (
"236 0 LINE",
"253 87 LINE",
"242 87 LINE",
"225 0 LINE"
);
}
);
width = 558;
},
{
layerId = "957254E3-B7AD-4837-9092-D4428001DE8E";
paths = (
{
closed = 1;
nodes = (
"520 0 LINE",
"548 142 LINE",
"408 142 LINE",
"380 0 LINE"
);
},
{
closed = 1;
nodes = (
"112 0 LINE",
"140 142 LINE",
"0 142 LINE",
"-28 0 LINE"
);
},
{
closed = 1;
nodes = (
"316 0 LINE",
"344 142 LINE",
"204 142 LINE",
"176 0 LINE"
);
}
);
width = 588;
},
{
associatedMasterId = "F91D9E91-C1BC-4259-B0D8-112C0CBA2B8E";
layerId = "B14EE5ED-220E-4C1B-866C-D60BA5703612";
name = "Thin [500]";
paths = (
{
closed = 1;
nodes = (
"491 0 LINE",
"508 87 LINE",
"418 87 LINE",
"401 0 LINE"
);
},
{
closed = 1;
nodes = (
"123 0 LINE",
"140 87 LINE",
"49 87 LINE",
"32 0 LINE"
);
},
{
closed = 1;
nodes = (
"307 0 LINE",
"324 87 LINE",
"233 87 LINE",
"216 0 LINE"
);
}
);
width = 618;
}
);
leftKerningGroup = comma;
leftMetricsKey = "=period";
note = ellipsis;
rightKerningGroup = comma;
rightMetricsKey = "=period";
unicode = 2026;
},
{
color = 1;
glyphname = exclam;
lastChange = "2020-07-06 17:21:03 +0000";
layers = (
{
layerId = "F91D9E91-C1BC-4259-B0D8-112C0CBA2B8E";
paths = (
{
closed = 1;
nodes = (
"143 182 LINE",
"244 697 LINE",
"233 697 LINE",
"132 182 LINE"
);
},
{
closed = 1;
nodes = (
"108 0 LINE",
"125 87 LINE",
"114 87 LINE",
"97 0 LINE"
);
}
);
width = 301;
},
{
layerId = "957254E3-B7AD-4837-9092-D4428001DE8E";
paths = (
{
closed = 1;
nodes = (
"200 219 LINE",
"311 697 LINE",
"162 697 LINE",
"86 219 LINE"
);
},
{
closed = 1;
nodes = (
"178 0 LINE",
"206 142 LINE",
"50 142 LINE",
"22 0 LINE"
);
}
);
width = 296;
},
{
associatedMasterId = "F91D9E91-C1BC-4259-B0D8-112C0CBA2B8E";
layerId = "263D72D6-72B9-4744-AB78-B395BA0BACEE";
name = "Thin [500]";
paths = (
{
closed = 1;
nodes = (
"143 182 LINE",
"244 697 LINE",
"233 697 LINE",
"132 182 LINE"
);
},
{
closed = 1;
nodes = (
"148 0 LINE",
"165 87 LINE",
"74 87 LINE",
"57 0 LINE"
);
}
);
width = 301;
}
);
leftKerningGroup = exclam;
note = exclam;
rightKerningGroup = exclam;
unicode = 0021;
},
{
color = 1;
glyphname = exclamdown;
lastChange = "2020-07-06 17:21:03 +0000";
layers = (
{
layerId = "F91D9E91-C1BC-4259-B0D8-112C0CBA2B8E";
paths = (
{
closed = 1;
nodes = (
"68 -204 LINE",
"169 311 LINE",
"158 311 LINE",
"57 -204 LINE"
);
},
{
closed = 1;
nodes = (
"187 406 LINE",
"204 493 LINE",
"193 493 LINE",
"176 406 LINE"
);
}
);
width = 301;
},
{
layerId = "957254E3-B7AD-4837-9092-D4428001DE8E";
paths = (
{
closed = 1;
nodes = (
"134 -204 LINE",
"210 274 LINE",
"96 274 LINE",
"-15 -204 LINE"
);
},
{
closed = 1;
nodes = (
"246 351 LINE",
"274 493 LINE",
"118 493 LINE",
"90 351 LINE"
);
}
);
width = 296;
},
{
associatedMasterId = "F91D9E91-C1BC-4259-B0D8-112C0CBA2B8E";
layerId = "FE8274FF-14AD-43A2-8184-41BD18EF5A7B";
name = "Thin [500]";
paths = (
{
closed = 1;
nodes = (
"68 -204 LINE",
"169 311 LINE",
"158 311 LINE",
"57 -204 LINE"
);
},
{
closed = 1;
nodes = (
"227 406 LINE",
"244 493 LINE",
"153 493 LINE",
"136 406 LINE"
);
}
);
width = 301;
}
);
leftKerningGroup = exclamdown;
note = exclamdown;
rightKerningGroup = exclamdown;
unicode = 00A1;
},
{
color = 1;
glyphname = question;
lastChange = "2020-07-06 17:21:03 +0000";
layers = (
{
layerId = "F91D9E91-C1BC-4259-B0D8-112C0CBA2B8E";
paths = (
{
closed = 1;
nodes = (
"260 180 LINE",
"278 272 LINE SMOOTH",
"289 330 OFFCURVE",
"334 354 OFFCURVE",
"382 380 CURVE SMOOTH",
"465 424 OFFCURVE",
"519 469 OFFCURVE",
"519 572 CURVE SMOOTH",
"519 655 OFFCURVE",
"460 702 OFFCURVE",
"352 702 CURVE SMOOTH",
"239 702 OFFCURVE",
"151 635 OFFCURVE",
"130 532 CURVE",
"140 532 LINE",
"160 629 OFFCURVE",
"243 692 OFFCURVE",
"351 692 CURVE SMOOTH",
"455 692 OFFCURVE",
"510 648 OFFCURVE",
"510 570 CURVE SMOOTH",
"510 475 OFFCURVE",
"459 434 OFFCURVE",
"379 391 CURVE SMOOTH",
"329 363 OFFCURVE",
"281 337 OFFCURVE",
"268 272 CURVE SMOOTH",
"250 180 LINE"
);
},
{
closed = 1;
nodes = (
"225 0 LINE",
"242 87 LINE",
"232 87 LINE",
"215 0 LINE"
);
}
);
width = 542;
},
{
layerId = "957254E3-B7AD-4837-9092-D4428001DE8E";
paths = (
{
closed = 1;
nodes = (
"286 217 LINE",
"289 232 LINE SMOOTH",
"301 293 OFFCURVE",
"347 326 OFFCURVE",
"393 360 CURVE SMOOTH",
"452 403 OFFCURVE",
"513 447 OFFCURVE",
"513 551 CURVE SMOOTH",
"513 657 OFFCURVE",
"429 708 OFFCURVE",
"329 708 CURVE SMOOTH",
"188 708 OFFCURVE",
"75 625 OFFCURVE",
"46 477 CURVE",
"179 477 LINE",
"191 547 OFFCURVE",
"235 588 OFFCURVE",
"305 588 CURVE SMOOTH",
"354 588 OFFCURVE",
"378 566 OFFCURVE",
"378 532 CURVE SMOOTH",
"378 485 OFFCURVE",
"339 457 OFFCURVE",
"298 428 CURVE SMOOTH",
"246 391 OFFCURVE",
"184 348 OFFCURVE",
"164 243 CURVE SMOOTH",
"159 217 LINE"
);
},
{
closed = 1;
nodes = (
"260 0 LINE",
"288 142 LINE",
"133 142 LINE",
"105 0 LINE"
);
}
);
width = 465;
},
{
associatedMasterId = "F91D9E91-C1BC-4259-B0D8-112C0CBA2B8E";
layerId = "6FDE5857-C72C-4BFD-9452-FCE11D4E985F";
name = "Thin [500]";
paths = (
{
closed = 1;
nodes = (
"260 180 LINE",
"278 272 LINE SMOOTH",
"289 330 OFFCURVE",
"334 354 OFFCURVE",
"382 380 CURVE SMOOTH",
"465 424 OFFCURVE",
"519 469 OFFCURVE",
"519 572 CURVE SMOOTH",
"519 655 OFFCURVE",
"460 702 OFFCURVE",
"352 702 CURVE SMOOTH",
"239 702 OFFCURVE",
"151 635 OFFCURVE",
"130 532 CURVE",
"140 532 LINE",
"160 629 OFFCURVE",
"243 692 OFFCURVE",
"351 692 CURVE SMOOTH",
"455 692 OFFCURVE",
"510 648 OFFCURVE",
"510 570 CURVE SMOOTH",
"510 475 OFFCURVE",
"459 434 OFFCURVE",
"379 391 CURVE SMOOTH",
"329 363 OFFCURVE",
"281 337 OFFCURVE",
"268 272 CURVE SMOOTH",
"250 180 LINE"
);
},
{
closed = 1;
nodes = (
"266 0 LINE",
"283 87 LINE",
"192 87 LINE",
"175 0 LINE"
);
}
);
width = 542;
}
);
leftKerningGroup = question;
note = question;
rightKerningGroup = question;
unicode = 003F;
},
{
color = 1;
glyphname = bullet;
lastChange = "2020-07-06 17:21:03 +0000";
layers = (
{
layerId = "F91D9E91-C1BC-4259-B0D8-112C0CBA2B8E";
paths = (
{
closed = 1;
nodes = (
"212 166 LINE",
"244 328 LINE",
"82 328 LINE",
"50 166 LINE"
);
}
);
width = 294;
},
{
layerId = "957254E3-B7AD-4837-9092-D4428001DE8E";
paths = (
{
closed = 1;
nodes = (
"313 110 LINE",
"367 384 LINE",
"94 384 LINE",
"40 110 LINE"
);
}
);
width = 407;
}
);
leftKerningGroup = bullet;
note = bullet;
rightKerningGroup = bullet;
unicode = 2022;
},
{
color = 1;
glyphname = asterisk;
lastChange = "2020-07-06 17:21:03 +0000";
layers = (
{
layerId = "F91D9E91-C1BC-4259-B0D8-112C0CBA2B8E";
paths = (
{
closed = 1;
nodes = (
"294 548 LINE",
"331 421 LINE",
"374 449 LINE",
"301 556 LINE",
"439 575 LINE",
"433 623 LINE",
"300 565 LINE",
"346 697 LINE",
"301 697 LINE",
"293 565 LINE",
"184 623 LINE",
"160 575 LINE",
"289 556 LINE",
"174 449 LINE",
"206 421 LINE"
);
}
);
width = 472;
},
{
layerId = "957254E3-B7AD-4837-9092-D4428001DE8E";
paths = (
{
closed = 1;
nodes = (
"240 504 LINE",
"271 408 LINE",
"365 466 LINE",
"311 536 LINE",
"411 551 LINE",
"399 642 LINE",
"302 607 LINE",
"331 697 LINE",
"228 697 LINE",
"223 607 LINE",
"140 642 LINE",
"90 551 LINE",
"184 536 LINE",
"104 466 LINE",
"175 408 LINE"
);
}
);
width = 386;
}
);
leftKerningGroup = asterisk;
note = asterisk;
rightKerningGroup = asterisk;
unicode = 002A;
},
{
color = 1;
glyphname = numbersign;
lastChange = "2020-07-06 17:21:03 +0000";
layers = (
{
layerId = "F91D9E91-C1BC-4259-B0D8-112C0CBA2B8E";
paths = (
{
closed = 1;
nodes = (
"120 0 LINE",
"207 219 LINE",
"434 219 LINE",
"346 0 LINE",
"357 0 LINE",
"445 219 LINE",
"593 219 LINE",
"595 229 LINE",
"449 229 LINE",
"550 483 LINE",
"687 483 LINE",
"689 493 LINE",
"554 493 LINE",
"636 697 LINE",
"624 697 LINE",
"543 493 LINE",
"317 493 LINE",
"398 697 LINE",
"387 697 LINE",
"306 493 LINE",
"162 493 LINE",
"160 483 LINE",
"302 483 LINE",
"201 229 LINE",
"68 229 LINE",
"66 219 LINE",
"197 219 LINE",
"109 0 LINE"
);
},
{
closed = 1;
nodes = (
"313 483 LINE",
"539 483 LINE",
"438 229 LINE",
"211 229 LINE"
);
}
);
width = 712;
},
{
layerId = "957254E3-B7AD-4837-9092-D4428001DE8E";
paths = (
{
closed = 1;
nodes = (
"158 0 LINE",
"239 200 LINE",
"334 200 LINE",
"251 0 LINE",
"368 0 LINE",
"451 200 LINE",
"587 200 LINE",
"608 306 LINE",
"494 306 LINE",
"534 400 LINE",
"666 400 LINE",
"686 506 LINE",
"576 506 LINE",
"660 697 LINE",
"541 697 LINE",
"461 506 LINE",
"367 506 LINE",
"450 697 LINE",
"331 697 LINE",
"249 511 LINE",
"113 511 LINE",
"92 400 LINE",
"205 400 LINE",
"167 306 LINE",
"34 306 LINE",
"13 200 LINE",
"124 200 LINE",
"41 0 LINE"
);
},
{
closed = 1;
nodes = (
"322 400 LINE",
"416 400 LINE",
"380 306 LINE",
"286 306 LINE"
);
}
);
width = 658;
}
);
leftKerningGroup = numbersign;
note = numbersign;
rightKerningGroup = numbersign;
unicode = 0023;
},
{
color = 1;
glyphname = slash;
lastChange = "2020-07-06 17:21:03 +0000";
layers = (
{
layerId = "F91D9E91-C1BC-4259-B0D8-112C0CBA2B8E";
paths = (
{
closed = 1;
nodes = (
"-48 -209 LINE",
"477 697 LINE",
"464 697 LINE",
"-61 -209 LINE"
);
}
);
width = 417;
},
{
layerId = "957254E3-B7AD-4837-9092-D4428001DE8E";
paths = (
{
closed = 1;
nodes = (
"-10 -212 LINE",
"532 697 LINE",
"419 697 LINE",
"-122 -212 LINE"
);
}
);
width = 411;
}
);
leftKerningGroup = slash;
note = slash;
rightKerningGroup = slash;
unicode = 002F;
},
{
color = 1;
glyphname = backslash;
lastChange = "2020-07-06 17:21:03 +0000";
layers = (
{
layerId = "F91D9E91-C1BC-4259-B0D8-112C0CBA2B8E";
paths = (
{
closed = 1;
nodes = (
"300 -209 LINE",
"127 697 LINE",
"116 697 LINE",
"289 -209 LINE"
);
}
);
width = 417;
},
{
layerId = "957254E3-B7AD-4837-9092-D4428001DE8E";
paths = (
{
closed = 1;
nodes = (
"359 -212 LINE",
"172 697 LINE",
"59 697 LINE",
"247 -212 LINE"
);
}
);
width = 411;
}
);
leftKerningGroup = backslash;
note = backslash;
rightKerningGroup = backslash;
unicode = 005C;
},
{
color = 1;
glyphname = triangularbullet;
lastChange = "2020-07-06 17:21:03 +0000";
layers = (
{
layerId = "F91D9E91-C1BC-4259-B0D8-112C0CBA2B8E";
paths = (
{
closed = 1;
nodes = (
"334 236 LINE",
"162 343 LINE",
"120 128 LINE"
);
}
);
width = 425;
},
{
layerId = "957254E3-B7AD-4837-9092-D4428001DE8E";
paths = (
{
closed = 1;
nodes = (
"450 271 LINE",
"126 486 LINE",
"42 55 LINE"
);
}
);
width = 442;
}
);
note = uni2023;
unicode = 2023;
},
{
color = 1;
glyphname = twodotenleader;
lastChange = "2020-07-07 03:54:40 +0000";
layers = (
{
layerId = "F91D9E91-C1BC-4259-B0D8-112C0CBA2B8E";
paths = (
{
closed = 1;
nodes = (
"236 0 LINE",
"253 87 LINE",
"242 87 LINE",
"225 0 LINE"
);
},
{
closed = 1;
nodes = (
"82 0 LINE",
"99 87 LINE",
"88 87 LINE",
"71 0 LINE"
);
}
);
width = 404;
},
{
layerId = "957254E3-B7AD-4837-9092-D4428001DE8E";
paths = (
{
closed = 1;
nodes = (
"328 0 LINE",
"356 142 LINE",
"204 142 LINE",
"176 0 LINE"
);
},
{
closed = 1;
nodes = (
"124 0 LINE",
"152 142 LINE",
"0 142 LINE",
"-28 0 LINE"
);
}
);
width = 396;
},
{
associatedMasterId = "F91D9E91-C1BC-4259-B0D8-112C0CBA2B8E";
layerId = "BC50C434-2760-4B4E-9431-5FFCD4A2F81F";
name = "Thin [500]";
paths = (
{
closed = 1;
nodes = (
"336 0 LINE",
"353 87 LINE",
"262 87 LINE",
"245 0 LINE"
);
},
{
closed = 1;
nodes = (
"162 0 LINE",
"179 87 LINE",
"88 87 LINE",
"71 0 LINE"
);
}
);
width = 504;
}
);
leftMetricsKey = "=period";
note = twodotenleader;
rightMetricsKey = "=period";
unicode = 2025;
},
{
color = 1;
glyphname = period.ss03;
lastChange = "2020-07-07 08:31:09 +0000";
layers = (
{
layerId = "F91D9E91-C1BC-4259-B0D8-112C0CBA2B8E";
paths = (
{
closed = 1;
nodes = (
"88 -5 OFFCURVE",
"96 5 OFFCURVE",
"96 14 CURVE SMOOTH",
"96 21 OFFCURVE",
"92 27 OFFCURVE",
"82 27 CURVE SMOOTH",
"70 27 OFFCURVE",
"62 17 OFFCURVE",
"62 8 CURVE SMOOTH",
"62 1 OFFCURVE",
"66 -5 OFFCURVE",
"76 -5 CURVE SMOOTH"
);
}
);
width = 250;
},
{
layerId = "957254E3-B7AD-4837-9092-D4428001DE8E";
paths = (
{
closed = 1;
nodes = (
"128 -11 OFFCURVE",
"179 36 OFFCURVE",
"179 92 CURVE SMOOTH",
"179 131 OFFCURVE",
"150 160 OFFCURVE",
"108 160 CURVE SMOOTH",
"54 160 OFFCURVE",
"5 113 OFFCURVE",
"5 57 CURVE SMOOTH",
"5 18 OFFCURVE",
"34 -11 OFFCURVE",
"75 -11 CURVE SMOOTH"
);
}
);
width = 250;
}
);
leftKerningGroup = comma;
note = period;
rightKerningGroup = comma;
},
{
color = 1;
glyphname = colon.ss03;
lastChange = "2020-07-07 08:31:09 +0000";
layers = (
{
layerId = "F91D9E91-C1BC-4259-B0D8-112C0CBA2B8E";
paths = (
{
closed = 1;
nodes = (
"170 415 OFFCURVE",
"178 425 OFFCURVE",
"178 434 CURVE SMOOTH",
"178 441 OFFCURVE",
"174 447 OFFCURVE",
"164 447 CURVE SMOOTH",
"152 447 OFFCURVE",
"144 437 OFFCURVE",
"144 428 CURVE SMOOTH",
"144 421 OFFCURVE",
"148 415 OFFCURVE",
"158 415 CURVE SMOOTH"
);
},
{
closed = 1;
nodes = (
"88 -5 OFFCURVE",
"96 5 OFFCURVE",
"96 14 CURVE SMOOTH",
"96 21 OFFCURVE",
"92 27 OFFCURVE",
"82 27 CURVE SMOOTH",
"70 27 OFFCURVE",
"62 17 OFFCURVE",
"62 8 CURVE SMOOTH",
"62 1 OFFCURVE",
"66 -5 OFFCURVE",
"76 -5 CURVE SMOOTH"
);
}
);
width = 250;
},
{
layerId = "957254E3-B7AD-4837-9092-D4428001DE8E";
paths = (
{
closed = 1;
nodes = (
"190 301 OFFCURVE",
"239 349 OFFCURVE",
"239 405 CURVE SMOOTH",
"239 444 OFFCURVE",
"211 472 OFFCURVE",
"169 472 CURVE SMOOTH",
"116 472 OFFCURVE",
"65 426 OFFCURVE",
"65 371 CURVE SMOOTH",
"65 331 OFFCURVE",
"94 301 OFFCURVE",
"136 301 CURVE SMOOTH"
);
},
{
closed = 1;
nodes = (
"128 -11 OFFCURVE",
"179 36 OFFCURVE",
"179 92 CURVE SMOOTH",
"179 131 OFFCURVE",
"150 160 OFFCURVE",
"108 160 CURVE SMOOTH",
"54 160 OFFCURVE",
"5 113 OFFCURVE",
"5 57 CURVE SMOOTH",
"5 18 OFFCURVE",
"34 -11 OFFCURVE",
"75 -11 CURVE SMOOTH"
);
}
);
width = 250;
}
);
leftKerningGroup = colon;
note = colon;
rightKerningGroup = colon;
},
{
color = 1;
glyphname = semicolon.ss03;
lastChange = "2020-07-07 08:31:09 +0000";
layers = (
{
layerId = "F91D9E91-C1BC-4259-B0D8-112C0CBA2B8E";
paths = (
{
closed = 1;
nodes = (
"-35 -162 LINE",
"160 128 LINE",
"149 128 LINE",
"-47 -162 LINE"
);
},
{
closed = 1;
nodes = (
"211 415 OFFCURVE",
"219 425 OFFCURVE",
"219 434 CURVE SMOOTH",
"219 441 OFFCURVE",
"215 447 OFFCURVE",
"205 447 CURVE SMOOTH",
"193 447 OFFCURVE",
"185 437 OFFCURVE",
"185 428 CURVE SMOOTH",
"185 421 OFFCURVE",
"189 415 OFFCURVE",
"199 415 CURVE SMOOTH"
);
}
);
width = 250;
},
{
layerId = "957254E3-B7AD-4837-9092-D4428001DE8E";
paths = (
{
closed = 1;
nodes = (
"34 -145 LINE",
"210 131 LINE",
"41 131 LINE",
"-66 -145 LINE"
);
},
{
closed = 1;
nodes = (
"208 301 OFFCURVE",
"257 349 OFFCURVE",
"257 405 CURVE SMOOTH",
"257 444 OFFCURVE",
"229 472 OFFCURVE",
"187 472 CURVE SMOOTH",
"134 472 OFFCURVE",
"83 426 OFFCURVE",
"83 371 CURVE SMOOTH",
"83 331 OFFCURVE",
"112 301 OFFCURVE",
"154 301 CURVE SMOOTH"
);
}
);
width = 250;
}
);
leftKerningGroup = colon;
note = semicolon;
rightKerningGroup = colon;
},
{
color = 1;
glyphname = ellipsis.ss03;
lastChange = "2020-07-07 08:31:09 +0000";
layers = (
{
layerId = "F91D9E91-C1BC-4259-B0D8-112C0CBA2B8E";
paths = (
{
closed = 1;
nodes = (
"475 -5 OFFCURVE",
"483 5 OFFCURVE",
"483 14 CURVE SMOOTH",
"483 21 OFFCURVE",
"479 27 OFFCURVE",
"469 27 CURVE SMOOTH",
"457 27 OFFCURVE",
"449 17 OFFCURVE",
"449 8 CURVE SMOOTH",
"449 1 OFFCURVE",
"453 -5 OFFCURVE",
"463 -5 CURVE SMOOTH"
);
},
{
closed = 1;
nodes = (
"99 -5 OFFCURVE",
"107 5 OFFCURVE",
"107 14 CURVE SMOOTH",
"107 21 OFFCURVE",
"103 27 OFFCURVE",
"93 27 CURVE SMOOTH",
"81 27 OFFCURVE",
"73 17 OFFCURVE",
"73 8 CURVE SMOOTH",
"73 1 OFFCURVE",
"77 -5 OFFCURVE",
"87 -5 CURVE SMOOTH"
);
},
{
closed = 1;
nodes = (
"287 -5 OFFCURVE",
"295 5 OFFCURVE",
"295 14 CURVE SMOOTH",
"295 21 OFFCURVE",
"291 27 OFFCURVE",
"281 27 CURVE SMOOTH",
"269 27 OFFCURVE",
"261 17 OFFCURVE",
"261 8 CURVE SMOOTH",
"261 1 OFFCURVE",
"265 -5 OFFCURVE",
"275 -5 CURVE SMOOTH"
);
}
);
width = 648;
},
{
layerId = "957254E3-B7AD-4837-9092-D4428001DE8E";
paths = (
{
closed = 1;
nodes = (
"540 -11 OFFCURVE",
"591 36 OFFCURVE",
"591 91 CURVE SMOOTH",
"591 130 OFFCURVE",
"562 159 OFFCURVE",
"520 159 CURVE SMOOTH",
"466 159 OFFCURVE",
"418 112 OFFCURVE",
"418 57 CURVE SMOOTH",
"418 18 OFFCURVE",
"446 -11 OFFCURVE",
"487 -11 CURVE SMOOTH"
);
},
{
closed = 1;
nodes = (
"114 -11 OFFCURVE",
"158 44 OFFCURVE",
"158 92 CURVE SMOOTH",
"158 130 OFFCURVE",
"130 159 OFFCURVE",
"88 159 CURVE SMOOTH",
"34 159 OFFCURVE",
"-15 112 OFFCURVE",
"-15 57 CURVE SMOOTH",
"-15 18 OFFCURVE",
"14 -11 OFFCURVE",
"55 -11 CURVE SMOOTH"
);
},
{
closed = 1;
nodes = (
"330 -11 OFFCURVE",
"374 44 OFFCURVE",
"374 92 CURVE SMOOTH",
"374 130 OFFCURVE",
"346 159 OFFCURVE",
"304 159 CURVE SMOOTH",
"250 159 OFFCURVE",
"202 112 OFFCURVE",
"202 57 CURVE SMOOTH",
"202 18 OFFCURVE",
"230 -11 OFFCURVE",
"271 -11 CURVE SMOOTH"
);
}
);
width = 643;
}
);
leftKerningGroup = comma;
leftMetricsKey = "=period";
note = ellipsis;
rightKerningGroup = comma;
rightMetricsKey = "=period";
},
{
color = 1;
glyphname = exclam.ss03;
lastChange = "2020-07-07 08:31:09 +0000";
layers = (
{
layerId = "F91D9E91-C1BC-4259-B0D8-112C0CBA2B8E";
paths = (
{
closed = 1;
nodes = (
"143 182 LINE",
"244 697 LINE",
"233 697 LINE",
"132 182 LINE"
);
},
{
closed = 1;
nodes = (
"114 -5 OFFCURVE",
"122 5 OFFCURVE",
"122 14 CURVE SMOOTH",
"122 21 OFFCURVE",
"118 27 OFFCURVE",
"108 27 CURVE SMOOTH",
"96 27 OFFCURVE",
"88 17 OFFCURVE",
"88 8 CURVE SMOOTH",
"88 1 OFFCURVE",
"92 -5 OFFCURVE",
"102 -5 CURVE SMOOTH"
);
}
);
width = 301;
},
{
layerId = "957254E3-B7AD-4837-9092-D4428001DE8E";
paths = (
{
closed = 1;
nodes = (
"194 219 LINE",
"305 697 LINE",
"156 697 LINE",
"80 219 LINE"
);
},
{
closed = 1;
nodes = (
"152 -11 OFFCURVE",
"196 43 OFFCURVE",
"196 93 CURVE SMOOTH",
"196 132 OFFCURVE",
"168 161 OFFCURVE",
"125 161 CURVE SMOOTH",
"70 161 OFFCURVE",
"22 114 OFFCURVE",
"22 58 CURVE SMOOTH",
"22 18 OFFCURVE",
"51 -11 OFFCURVE",
"92 -11 CURVE SMOOTH"
);
}
);
width = 286;
}
);
leftKerningGroup = exclam;
note = exclam;
rightKerningGroup = exclam;
},
{
color = 1;
glyphname = exclamdown.ss03;
lastChange = "2020-07-07 08:31:09 +0000";
layers = (
{
layerId = "F91D9E91-C1BC-4259-B0D8-112C0CBA2B8E";
paths = (
{
closed = 1;
nodes = (
"68 -204 LINE",
"169 311 LINE",
"158 311 LINE",
"57 -204 LINE"
);
},
{
closed = 1;
nodes = (
"205 466 OFFCURVE",
"213 476 OFFCURVE",
"213 485 CURVE SMOOTH",
"213 492 OFFCURVE",
"209 498 OFFCURVE",
"199 498 CURVE SMOOTH",
"187 498 OFFCURVE",
"179 488 OFFCURVE",
"179 479 CURVE SMOOTH",
"179 472 OFFCURVE",
"183 466 OFFCURVE",
"193 466 CURVE SMOOTH"
);
}
);
width = 301;
},
{
layerId = "957254E3-B7AD-4837-9092-D4428001DE8E";
paths = (
{
closed = 1;
nodes = (
"130 -204 LINE",
"206 274 LINE",
"92 274 LINE",
"-19 -204 LINE"
);
},
{
closed = 1;
nodes = (
"215 333 OFFCURVE",
"264 380 OFFCURVE",
"264 436 CURVE SMOOTH",
"264 475 OFFCURVE",
"235 504 OFFCURVE",
"194 504 CURVE SMOOTH",
"141 504 OFFCURVE",
"90 457 OFFCURVE",
"90 401 CURVE SMOOTH",
"90 362 OFFCURVE",
"119 333 OFFCURVE",
"161 333 CURVE SMOOTH"
);
}
);
width = 288;
}
);
leftKerningGroup = exclamdown;
note = exclamdown;
rightKerningGroup = exclamdown;
},
{
color = 1;
glyphname = question.ss03;
lastChange = "2020-07-07 08:31:09 +0000";
layers = (
{
layerId = "F91D9E91-C1BC-4259-B0D8-112C0CBA2B8E";
paths = (
{
closed = 1;
nodes = (
"259 176 LINE",
"277 268 LINE SMOOTH",
"290 332 OFFCURVE",
"336 358 OFFCURVE",
"387 386 CURVE SMOOTH",
"470 430 OFFCURVE",
"524 474 OFFCURVE",
"524 563 CURVE SMOOTH",
"524 654 OFFCURVE",
"466 702 OFFCURVE",
"357 702 CURVE SMOOTH",
"244 702 OFFCURVE",
"158 637 OFFCURVE",
"136 535 CURVE",
"146 533 LINE",
"166 630 OFFCURVE",
"249 692 OFFCURVE",
"357 692 CURVE SMOOTH",
"461 692 OFFCURVE",
"514 648 OFFCURVE",
"514 563 CURVE SMOOTH",
"514 478 OFFCURVE",
"464 438 OFFCURVE",
"383 394 CURVE SMOOTH",
"332 366 OFFCURVE",
"280 338 OFFCURVE",
"267 270 CURVE SMOOTH",
"249 176 LINE"
);
},
{
closed = 1;
nodes = (
"232 -5 OFFCURVE",
"240 5 OFFCURVE",
"240 14 CURVE SMOOTH",
"240 21 OFFCURVE",
"236 27 OFFCURVE",
"226 27 CURVE SMOOTH",
"214 27 OFFCURVE",
"206 17 OFFCURVE",
"206 8 CURVE SMOOTH",
"206 1 OFFCURVE",
"210 -5 OFFCURVE",
"220 -5 CURVE SMOOTH"
);
}
);
width = 543;
},
{
layerId = "957254E3-B7AD-4837-9092-D4428001DE8E";
paths = (
{
closed = 1;
nodes = (
"286 217 LINE",
"289 232 LINE SMOOTH",
"301 293 OFFCURVE",
"347 326 OFFCURVE",
"393 360 CURVE SMOOTH",
"452 403 OFFCURVE",
"513 447 OFFCURVE",
"513 551 CURVE SMOOTH",
"513 657 OFFCURVE",
"429 708 OFFCURVE",
"329 708 CURVE SMOOTH",
"188 708 OFFCURVE",
"75 625 OFFCURVE",
"46 477 CURVE",
"179 477 LINE",
"191 547 OFFCURVE",
"235 588 OFFCURVE",
"305 588 CURVE SMOOTH",
"354 588 OFFCURVE",
"378 566 OFFCURVE",
"378 532 CURVE SMOOTH",
"378 485 OFFCURVE",
"339 457 OFFCURVE",
"298 428 CURVE SMOOTH",
"246 391 OFFCURVE",
"184 348 OFFCURVE",
"164 243 CURVE SMOOTH",
"159 217 LINE"
);
},
{
closed = 1;
nodes = (
"235 -11 OFFCURVE",
"286 36 OFFCURVE",
"286 92 CURVE SMOOTH",
"286 131 OFFCURVE",
"257 160 OFFCURVE",
"215 160 CURVE SMOOTH",
"161 160 OFFCURVE",
"112 113 OFFCURVE",
"112 57 CURVE SMOOTH",
"112 18 OFFCURVE",
"141 -11 OFFCURVE",
"182 -11 CURVE SMOOTH"
);
}
);
width = 464;
}
);
leftKerningGroup = question;
note = question;
rightKerningGroup = question;
},
{
color = 1;
glyphname = periodcentered.ss03;
lastChange = "2020-07-07 08:31:09 +0000";
layers = (
{
layerId = "F91D9E91-C1BC-4259-B0D8-112C0CBA2B8E";
paths = (
{
closed = 1;
nodes = (
"165 333 OFFCURVE",
"173 343 OFFCURVE",
"173 352 CURVE SMOOTH",
"173 359 OFFCURVE",
"169 365 OFFCURVE",
"159 365 CURVE SMOOTH",
"147 365 OFFCURVE",
"139 355 OFFCURVE",
"139 346 CURVE SMOOTH",
"139 339 OFFCURVE",
"143 333 OFFCURVE",
"153 333 CURVE SMOOTH"
);
}
);
width = 273;
},
{
layerId = "957254E3-B7AD-4837-9092-D4428001DE8E";
paths = (
{
closed = 1;
nodes = (
"161 264 OFFCURVE",
"212 311 OFFCURVE",
"212 367 CURVE SMOOTH",
"212 406 OFFCURVE",
"183 435 OFFCURVE",
"141 435 CURVE SMOOTH",
"87 435 OFFCURVE",
"38 388 OFFCURVE",
"38 332 CURVE SMOOTH",
"38 293 OFFCURVE",
"67 264 OFFCURVE",
"108 264 CURVE SMOOTH"
);
}
);
width = 210;
}
);
leftKerningGroup = periodcentered;
leftMetricsKey = "=periodcentered";
note = periodcentered;
rightKerningGroup = periodcentered;
rightMetricsKey = "=periodcentered";
},
{
color = 1;
glyphname = bullet.ss03;
lastChange = "2020-07-07 08:31:09 +0000";
layers = (
{
layerId = "F91D9E91-C1BC-4259-B0D8-112C0CBA2B8E";
paths = (
{
closed = 1;
nodes = (
"174 161 OFFCURVE",
"220 205 OFFCURVE",
"220 252 CURVE SMOOTH",
"220 287 OFFCURVE",
"193 314 OFFCURVE",
"156 314 CURVE SMOOTH",
"110 314 OFFCURVE",
"63 271 OFFCURVE",
"63 223 CURVE SMOOTH",
"63 188 OFFCURVE",
"90 161 OFFCURVE",
"127 161 CURVE SMOOTH"
);
}
);
width = 286;
},
{
layerId = "957254E3-B7AD-4837-9092-D4428001DE8E";
paths = (
{
closed = 1;
nodes = (
"232 120 OFFCURVE",
"301 187 OFFCURVE",
"301 260 CURVE SMOOTH",
"301 314 OFFCURVE",
"261 355 OFFCURVE",
"205 355 CURVE SMOOTH",
"133 355 OFFCURVE",
"63 288 OFFCURVE",
"63 215 CURVE SMOOTH",
"63 161 OFFCURVE",
"102 120 OFFCURVE",
"159 120 CURVE SMOOTH"
);
}
);
width = 368;
}
);
leftKerningGroup = bullet;
leftMetricsKey = "=bullet";
note = bullet;
rightKerningGroup = bullet;
rightMetricsKey = "=bullet";
},
{
color = 1;
glyphname = twodotenleader.ss03;
lastChange = "2020-07-07 08:31:09 +0000";
layers = (
{
layerId = "F91D9E91-C1BC-4259-B0D8-112C0CBA2B8E";
paths = (
{
closed = 1;
nodes = (
"287 -5 OFFCURVE",
"295 5 OFFCURVE",
"295 14 CURVE SMOOTH",
"295 21 OFFCURVE",
"291 27 OFFCURVE",
"281 27 CURVE SMOOTH",
"269 27 OFFCURVE",
"261 17 OFFCURVE",
"261 8 CURVE SMOOTH",
"261 1 OFFCURVE",
"265 -5 OFFCURVE",
"275 -5 CURVE SMOOTH"
);
},
{
closed = 1;
nodes = (
"99 -5 OFFCURVE",
"107 5 OFFCURVE",
"107 14 CURVE SMOOTH",
"107 21 OFFCURVE",
"103 27 OFFCURVE",
"93 27 CURVE SMOOTH",
"81 27 OFFCURVE",
"73 17 OFFCURVE",
"73 8 CURVE SMOOTH",
"73 1 OFFCURVE",
"77 -5 OFFCURVE",
"87 -5 CURVE SMOOTH"
);
}
);
width = 460;
},
{
layerId = "957254E3-B7AD-4837-9092-D4428001DE8E";
paths = (
{
closed = 1;
nodes = (
"326 -11 OFFCURVE",
"377 36 OFFCURVE",
"377 92 CURVE SMOOTH",
"377 131 OFFCURVE",
"348 160 OFFCURVE",
"306 160 CURVE SMOOTH",
"251 160 OFFCURVE",
"203 113 OFFCURVE",
"203 57 CURVE SMOOTH",
"203 18 OFFCURVE",
"231 -11 OFFCURVE",
"273 -11 CURVE SMOOTH"
);
},
{
closed = 1;
nodes = (
"110 -11 OFFCURVE",
"159 36 OFFCURVE",
"159 92 CURVE SMOOTH",
"159 131 OFFCURVE",
"131 160 OFFCURVE",
"88 160 CURVE SMOOTH",
"34 160 OFFCURVE",
"-15 113 OFFCURVE",
"-15 57 CURVE SMOOTH",
"-15 18 OFFCURVE",
"14 -11 OFFCURVE",
"55 -11 CURVE SMOOTH"
);
}
);
width = 429;
}
);
leftMetricsKey = "=period";
note = twodotenleader;
rightMetricsKey = "=period";
},
{
color = 1;
glyphname = parenleft;
lastChange = "2020-07-07 04:01:28 +0000";
layers = (
{
layerId = "F91D9E91-C1BC-4259-B0D8-112C0CBA2B8E";
paths = (
{
closed = 1;
nodes = (
"64 -204 LINE",
"13 -97 OFFCURVE",
"12 113 OFFCURVE",
"38 244 CURVE SMOOTH",
"64 382 OFFCURVE",
"134 568 OFFCURVE",
"241 697 CURVE",
"227 697 LINE",
"121 565 OFFCURVE",
"54 382 OFFCURVE",
"28 246 CURVE SMOOTH",
"2 114 OFFCURVE",
"2 -92 OFFCURVE",
"52 -204 CURVE"
);
}
);
width = 250;
},
{
layerId = "957254E3-B7AD-4837-9092-D4428001DE8E";
paths = (
{
closed = 1;
nodes = (
"200 -204 LINE",
"129 -87 OFFCURVE",
"115 80 OFFCURVE",
"147 247 CURVE SMOOTH",
"179 413 OFFCURVE",
"259 580 OFFCURVE",
"376 697 CURVE",
"241 697 LINE",
"136 587 OFFCURVE",
"62 417 OFFCURVE",
"29 246 CURVE SMOOTH",
"-4 76 OFFCURVE",
"4 -95 OFFCURVE",
"65 -204 CURVE"
);
}
);
width = 274;
}
);
leftKerningGroup = parenleft;
note = parenleft;
rightKerningGroup = parenleft;
unicode = 0028;
},
{
color = 1;
glyphname = parenright;
lastChange = "2020-07-07 04:01:28 +0000";
layers = (
{
layerId = "F91D9E91-C1BC-4259-B0D8-112C0CBA2B8E";
paths = (
{
closed = 1;
nodes = (
"14 -92 OFFCURVE",
"94 114 OFFCURVE",
"120 244 CURVE SMOOTH",
"146 382 OFFCURVE",
"151 565 OFFCURVE",
"95 697 CURVE",
"83 697 LINE",
"140 568 OFFCURVE",
"136 382 OFFCURVE",
"110 246 CURVE SMOOTH",
"84 113 OFFCURVE",
"1 -97 OFFCURVE",
"-92 -204 CURVE",
"-78 -204 LINE"
);
}
);
width = 250;
},
{
layerId = "957254E3-B7AD-4837-9092-D4428001DE8E";
paths = (
{
closed = 1;
nodes = (
"138 -95 OFFCURVE",
"212 76 OFFCURVE",
"245 246 CURVE SMOOTH",
"278 417 OFFCURVE",
"270 587 OFFCURVE",
"209 697 CURVE",
"74 697 LINE",
"145 580 OFFCURVE",
"159 413 OFFCURVE",
"127 247 CURVE SMOOTH",
"95 80 OFFCURVE",
"15 -87 OFFCURVE",
"-102 -204 CURVE",
"33 -204 LINE"
);
}
);
width = 274;
}
);
leftKerningGroup = parenright;
note = parenright;
unicode = 0029;
},
{
color = 1;
glyphname = braceleft;
lastChange = "2020-07-07 04:01:28 +0000";
layers = (
{
layerId = "F91D9E91-C1BC-4259-B0D8-112C0CBA2B8E";
paths = (
{
closed = 1;
nodes = (
"73 -244 LINE",
"75 -234 LINE",
"47 -234 LINE SMOOTH",
"-18 -234 OFFCURVE",
"-41 -206 OFFCURVE",
"-28 -139 CURVE SMOOTH",
"31 162 LINE SMOOTH",
"39 208 OFFCURVE",
"28 233 OFFCURVE",
"-8 243 CURVE",
"-6 250 LINE",
"34 260 OFFCURVE",
"54 285 OFFCURVE",
"63 331 CURVE SMOOTH",
"122 632 LINE SMOOTH",
"135 699 OFFCURVE",
"170 727 OFFCURVE",
"235 727 CURVE SMOOTH",
"261 727 LINE",
"263 737 LINE",
"236 737 LINE SMOOTH",
"165 737 OFFCURVE",
"126 704 OFFCURVE",
"112 632 CURVE SMOOTH",
"53 331 LINE SMOOTH",
"45 287 OFFCURVE",
"25 266 OFFCURVE",
"-15 258 CURVE",
"-19 235 LINE",
"19 227 OFFCURVE",
"29 206 OFFCURVE",
"21 162 CURVE SMOOTH",
"-38 -139 LINE SMOOTH",
"-52 -211 OFFCURVE",
"-25 -244 OFFCURVE",
"46 -244 CURVE SMOOTH"
);
}
);
width = 250;
},
{
layerId = "957254E3-B7AD-4837-9092-D4428001DE8E";
paths = (
{
closed = 1;
nodes = (
"180 -249 LINE",
"198 -154 LINE",
"158 -154 LINE SMOOTH",
"126 -154 OFFCURVE",
"128 -123 OFFCURVE",
"133 -98 CURVE SMOOTH",
"175 116 LINE SMOOTH",
"189 190 OFFCURVE",
"165 220 OFFCURVE",
"126 244 CURVE",
"126 249 LINE",
"175 273 OFFCURVE",
"211 303 OFFCURVE",
"225 377 CURVE SMOOTH",
"267 591 LINE SMOOTH",
"272 616 OFFCURVE",
"282 647 OFFCURVE",
"314 647 CURVE SMOOTH",
"354 647 LINE",
"372 742 LINE",
"280 742 LINE SMOOTH",
"209 742 OFFCURVE",
"157 685 OFFCURVE",
"140 594 CURVE SMOOTH",
"98 380 LINE SMOOTH",
"85 311 OFFCURVE",
"39 296 OFFCURVE",
"13 295 CURVE",
"-5 198 LINE",
"19 197 OFFCURVE",
"59 182 OFFCURVE",
"46 113 CURVE SMOOTH",
"4 -101 LINE SMOOTH",
"-13 -192 OFFCURVE",
"17 -249 OFFCURVE",
"88 -249 CURVE SMOOTH"
);
}
);
width = 287;
}
);
leftKerningGroup = braceleft;
note = braceleft;
rightKerningGroup = bracketleft;
unicode = 007B;
},
{
color = 1;
glyphname = braceright;
lastChange = "2020-07-07 04:01:28 +0000";
layers = (
{
layerId = "F91D9E91-C1BC-4259-B0D8-112C0CBA2B8E";
paths = (
{
closed = 1;
nodes = (
"-34 -244 OFFCURVE",
"5 -211 OFFCURVE",
"19 -139 CURVE SMOOTH",
"78 162 LINE SMOOTH",
"86 206 OFFCURVE",
"106 227 OFFCURVE",
"146 235 CURVE",
"150 258 LINE",
"112 266 OFFCURVE",
"102 287 OFFCURVE",
"110 331 CURVE SMOOTH",
"169 632 LINE SMOOTH",
"183 704 OFFCURVE",
"156 737 OFFCURVE",
"85 737 CURVE SMOOTH",
"58 737 LINE",
"56 727 LINE",
"84 727 LINE SMOOTH",
"149 727 OFFCURVE",
"172 699 OFFCURVE",
"159 632 CURVE SMOOTH",
"100 331 LINE SMOOTH",
"92 285 OFFCURVE",
"103 260 OFFCURVE",
"139 250 CURVE",
"137 243 LINE",
"97 233 OFFCURVE",
"77 208 OFFCURVE",
"68 162 CURVE SMOOTH",
"9 -139 LINE SMOOTH",
"-4 -206 OFFCURVE",
"-39 -234 OFFCURVE",
"-104 -234 CURVE SMOOTH",
"-130 -234 LINE",
"-132 -244 LINE",
"-105 -244 LINE SMOOTH"
);
}
);
width = 250;
},
{
layerId = "957254E3-B7AD-4837-9092-D4428001DE8E";
paths = (
{
closed = 1;
nodes = (
"78 -249 OFFCURVE",
"130 -192 OFFCURVE",
"147 -101 CURVE SMOOTH",
"189 113 LINE SMOOTH",
"202 182 OFFCURVE",
"248 197 OFFCURVE",
"274 198 CURVE",
"292 295 LINE",
"268 296 OFFCURVE",
"228 311 OFFCURVE",
"241 380 CURVE SMOOTH",
"283 594 LINE SMOOTH",
"300 685 OFFCURVE",
"270 742 OFFCURVE",
"199 742 CURVE SMOOTH",
"107 742 LINE",
"89 647 LINE",
"129 647 LINE SMOOTH",
"161 647 OFFCURVE",
"159 616 OFFCURVE",
"154 591 CURVE SMOOTH",
"112 377 LINE SMOOTH",
"98 303 OFFCURVE",
"122 273 OFFCURVE",
"161 249 CURVE",
"161 244 LINE",
"112 220 OFFCURVE",
"76 190 OFFCURVE",
"62 116 CURVE SMOOTH",
"20 -98 LINE SMOOTH",
"15 -123 OFFCURVE",
"5 -154 OFFCURVE",
"-27 -154 CURVE SMOOTH",
"-67 -154 LINE",
"-85 -249 LINE",
"7 -249 LINE SMOOTH"
);
}
);
width = 287;
}
);
leftKerningGroup = braceright;
note = braceright;
rightKerningGroup = braceright;
unicode = 007D;
},
{
color = 1;
glyphname = bracketleft;
lastChange = "2020-07-07 04:01:28 +0000";
layers = (
{
layerId = "F91D9E91-C1BC-4259-B0D8-112C0CBA2B8E";
paths = (
{
closed = 1;
nodes = (
"17 -245 LINE",
"19 -235 LINE",
"-126 -235 LINE",
"62 728 LINE",
"207 728 LINE",
"209 738 LINE",
"54 738 LINE",
"-138 -245 LINE"
);
}
);
width = 250;
},
{
layerId = "957254E3-B7AD-4837-9092-D4428001DE8E";
paths = (
{
closed = 1;
nodes = (
"201 -249 LINE",
"220 -149 LINE",
"113 -149 LINE",
"267 642 LINE",
"374 642 LINE",
"393 742 LINE",
"164 742 LINE",
"-28 -249 LINE"
);
}
);
width = 294;
}
);
leftKerningGroup = bracketleft;
note = bracketleft;
rightKerningGroup = bracketleft;
unicode = 005B;
},
{
color = 1;
glyphname = bracketright;
lastChange = "2020-07-07 04:01:28 +0000";
layers = (
{
layerId = "F91D9E91-C1BC-4259-B0D8-112C0CBA2B8E";
paths = (
{
closed = 1;
nodes = (
"5 -245 LINE",
"197 738 LINE",
"42 738 LINE",
"40 728 LINE",
"185 728 LINE",
"-3 -235 LINE",
"-148 -235 LINE",
"-150 -245 LINE"
);
}
);
width = 250;
},
{
layerId = "957254E3-B7AD-4837-9092-D4428001DE8E";
paths = (
{
closed = 1;
nodes = (
"130 -249 LINE",
"322 742 LINE",
"93 742 LINE",
"74 642 LINE",
"181 642 LINE",
"27 -149 LINE",
"-80 -149 LINE",
"-99 -249 LINE"
);
}
);
width = 294;
}
);
leftKerningGroup = bracketright;
note = bracketright;
unicode = 005D;
},
{
color = 1;
glyphname = hyphen;
lastChange = "2020-07-06 17:21:03 +0000";
layers = (
{
layerId = "F91D9E91-C1BC-4259-B0D8-112C0CBA2B8E";
paths = (
{
closed = 1;
nodes = (
"353 313 LINE",
"355 323 LINE",
"111 323 LINE",
"109 313 LINE"
);
}
);
width = 436;
},
{
layerId = "957254E3-B7AD-4837-9092-D4428001DE8E";
paths = (
{
closed = 1;
nodes = (
"353 234 LINE",
"374 346 LINE",
"73 346 LINE",
"52 234 LINE"
);
}
);
width = 409;
}
);
leftKerningGroup = hyphen;
note = hyphen;
rightKerningGroup = hyphen;
unicode = 002D;
},
{
color = 1;
glyphname = softhyphen;
lastChange = "2020-07-06 17:21:03 +0000";
layers = (
{
layerId = "F91D9E91-C1BC-4259-B0D8-112C0CBA2B8E";
paths = (
{
closed = 1;
nodes = (
"424 313 LINE",
"426 323 LINE",
"111 323 LINE",
"109 313 LINE"
);
}
);
width = 507;
},
{
layerId = "957254E3-B7AD-4837-9092-D4428001DE8E";
paths = (
{
closed = 1;
nodes = (
"422 234 LINE",
"443 346 LINE",
"73 346 LINE",
"52 234 LINE"
);
}
);
width = 478;
}
);
note = uni00AD;
unicode = 00AD;
},
{
color = 1;
glyphname = endash;
lastChange = "2020-07-06 17:21:03 +0000";
layers = (
{
layerId = "F91D9E91-C1BC-4259-B0D8-112C0CBA2B8E";
paths = (
{
closed = 1;
nodes = (
"348 313 LINE",
"350 323 LINE",
"15 323 LINE",
"13 313 LINE"
);
}
);
width = 335;
},
{
layerId = "957254E3-B7AD-4837-9092-D4428001DE8E";
paths = (
{
closed = 1;
nodes = (
"388 234 LINE",
"409 346 LINE",
"19 346 LINE",
"-2 234 LINE"
);
}
);
width = 390;
}
);
leftKerningGroup = hyphen;
leftMetricsKey = space;
note = endash;
rightKerningGroup = hyphen;
rightMetricsKey = space;
unicode = 2013;
},
{
color = 1;
glyphname = emdash;
lastChange = "2020-07-06 17:21:03 +0000";
layers = (
{
layerId = "F91D9E91-C1BC-4259-B0D8-112C0CBA2B8E";
paths = (
{
closed = 1;
nodes = (
"1021 313 LINE",
"1023 323 LINE",
"13 323 LINE",
"11 313 LINE"
);
}
);
width = 1006;
},
{
layerId = "957254E3-B7AD-4837-9092-D4428001DE8E";
paths = (
{
closed = 1;
nodes = (
"1006 234 LINE",
"1027 346 LINE",
"17 346 LINE",
"-4 234 LINE"
);
}
);
width = 1006;
}
);
leftKerningGroup = hyphen;
note = emdash;
rightKerningGroup = hyphen;
unicode = 2014;
},
{
color = 1;
glyphname = horizontalbar;
lastChange = "2020-07-06 17:21:03 +0000";
layers = (
{
layerId = "F91D9E91-C1BC-4259-B0D8-112C0CBA2B8E";
paths = (
{
closed = 1;
nodes = (
"591 313 LINE",
"593 323 LINE",
"15 323 LINE",
"13 313 LINE"
);
}
);
width = 578;
},
{
layerId = "957254E3-B7AD-4837-9092-D4428001DE8E";
paths = (
{
closed = 1;
nodes = (
"631 234 LINE",
"652 346 LINE",
"19 346 LINE",
"-2 234 LINE"
);
}
);
width = 633;
}
);
leftMetricsKey = space;
note = uni2015;
rightMetricsKey = space;
unicode = 2015;
},
{
color = 1;
glyphname = underscore;
lastChange = "2020-07-06 17:21:03 +0000";
layers = (
{
layerId = "F91D9E91-C1BC-4259-B0D8-112C0CBA2B8E";
paths = (
{
closed = 1;
nodes = (
"422 -10 LINE",
"424 0 LINE",
"48 0 LINE",
"46 -10 LINE"
);
}
);
width = 568;
},
{
layerId = "957254E3-B7AD-4837-9092-D4428001DE8E";
paths = (
{
closed = 1;
nodes = (
"415 -114 LINE",
"437 0 LINE",
"6 0 LINE",
"-16 -114 LINE"
);
}
);
width = 539;
}
);
leftKerningGroup = underscore;
note = underscore;
rightKerningGroup = underscore;
unicode = 005F;
},
{
color = 1;
glyphname = quotesinglbase;
lastChange = "2020-07-07 03:55:46 +0000";
layers = (
{
layerId = "F91D9E91-C1BC-4259-B0D8-112C0CBA2B8E";
paths = (
{
closed = 1;
nodes = (
"-17 -162 LINE",
"178 128 LINE",
"167 128 LINE",
"-29 -162 LINE"
);
}
);
width = 250;
},
{
layerId = "957254E3-B7AD-4837-9092-D4428001DE8E";
paths = (
{
closed = 1;
nodes = (
"49 -145 LINE",
"226 131 LINE",
"51 131 LINE",
"-49 -145 LINE"
);
}
);
width = 250;
}
);
leftKerningGroup = quotesinglbase;
leftMetricsKey = comma;
note = quotesinglbase;
rightKerningGroup = quotesinglbase;
rightMetricsKey = comma;
unicode = 201A;
},
{
color = 1;
glyphname = quotedblbase;
lastChange = "2020-07-07 03:56:05 +0000";
layers = (
{
layerId = "F91D9E91-C1BC-4259-B0D8-112C0CBA2B8E";
paths = (
{
closed = 1;
nodes = (
"-17 -162 LINE",
"178 128 LINE",
"167 128 LINE",
"-29 -162 LINE"
);
},
{
closed = 1;
nodes = (
"124 -162 LINE",
"319 128 LINE",
"308 128 LINE",
"112 -162 LINE"
);
}
);
width = 391;
},
{
layerId = "957254E3-B7AD-4837-9092-D4428001DE8E";
paths = (
{
closed = 1;
nodes = (
"49 -145 LINE",
"226 131 LINE",
"51 131 LINE",
"-49 -145 LINE"
);
},
{
closed = 1;
nodes = (
"268 -145 LINE",
"444 131 LINE",
"269 131 LINE",
"170 -145 LINE"
);
}
);
width = 468;
}
);
leftKerningGroup = quotesinglbase;
leftMetricsKey = "=comma";
note = quotedblbase;
rightKerningGroup = quotesinglbase;
rightMetricsKey = "=comma";
unicode = 201E;
},
{
color = 1;
glyphname = quotedblleft;
lastChange = "2020-07-06 17:21:03 +0000";
layers = (
{
layerId = "F91D9E91-C1BC-4259-B0D8-112C0CBA2B8E";
paths = (
{
closed = 1;
nodes = (
"108 407 LINE",
"304 697 LINE",
"292 697 LINE",
"97 407 LINE"
);
},
{
closed = 1;
nodes = (
"249 407 LINE",
"446 697 LINE",
"433 697 LINE",
"238 407 LINE"
);
}
);
width = 424;
},
{
layerId = "957254E3-B7AD-4837-9092-D4428001DE8E";
paths = (
{
closed = 1;
nodes = (
"218 420 LINE",
"318 697 LINE",
"219 697 LINE",
"43 420 LINE"
);
},
{
closed = 1;
nodes = (
"424 420 LINE",
"523 697 LINE",
"424 697 LINE",
"249 420 LINE"
);
}
);
width = 480;
}
);
leftKerningGroup = quoteleft;
note = quotedblleft;
rightKerningGroup = quoteleft;
unicode = 201C;
},
{
color = 1;
glyphname = quotedblright;
lastChange = "2020-07-06 17:21:03 +0000";
layers = (
{
layerId = "F91D9E91-C1BC-4259-B0D8-112C0CBA2B8E";
paths = (
{
closed = 1;
nodes = (
"109 407 LINE",
"305 697 LINE",
"293 697 LINE",
"98 407 LINE"
);
},
{
closed = 1;
nodes = (
"250 407 LINE",
"446 697 LINE",
"434 697 LINE",
"239 407 LINE"
);
}
);
width = 424;
},
{
layerId = "957254E3-B7AD-4837-9092-D4428001DE8E";
paths = (
{
closed = 1;
nodes = (
"176 421 LINE",
"353 697 LINE",
"178 697 LINE",
"78 421 LINE"
);
},
{
closed = 1;
nodes = (
"383 421 LINE",
"558 697 LINE",
"384 697 LINE",
"284 421 LINE"
);
}
);
width = 480;
}
);
leftKerningGroup = quoteright;
note = quotedblright;
rightKerningGroup = quoteright;
unicode = 201D;
},
{
color = 1;
glyphname = quoteleft;
lastChange = "2020-07-06 17:21:03 +0000";
layers = (
{
layerId = "F91D9E91-C1BC-4259-B0D8-112C0CBA2B8E";
paths = (
{
closed = 1;
nodes = (
"108 407 LINE",
"304 697 LINE",
"292 697 LINE",
"97 407 LINE"
);
}
);
width = 282;
},
{
layerId = "957254E3-B7AD-4837-9092-D4428001DE8E";
paths = (
{
closed = 1;
nodes = (
"218 420 LINE",
"318 697 LINE",
"219 697 LINE",
"43 420 LINE"
);
}
);
width = 275;
}
);
leftKerningGroup = quoteleft;
note = quoteleft;
rightKerningGroup = quoteleft;
unicode = 2018;
},
{
color = 1;
glyphname = quoteright;
lastChange = "2020-07-06 17:21:03 +0000";
layers = (
{
layerId = "F91D9E91-C1BC-4259-B0D8-112C0CBA2B8E";
paths = (
{
closed = 1;
nodes = (
"108 407 LINE",
"304 697 LINE",
"292 697 LINE",
"97 407 LINE"
);
}
);
width = 282;
},
{
layerId = "957254E3-B7AD-4837-9092-D4428001DE8E";
paths = (
{
closed = 1;
nodes = (
"176 421 LINE",
"353 697 LINE",
"178 697 LINE",
"78 421 LINE"
);
}
);
width = 274;
}
);
leftKerningGroup = quoteright;
note = quoteright;
rightKerningGroup = quoteright;
unicode = 2019;
},
{
color = 1;
glyphname = guillemetleft;
lastChange = "2020-07-06 17:21:03 +0000";
layers = (
{
layerId = "F91D9E91-C1BC-4259-B0D8-112C0CBA2B8E";
paths = (
{
closed = 1;
nodes = (
"365 104 LINE",
"230 253 LINE",
"423 400 LINE",
"425 413 LINE",
"215 253 LINE",
"363 91 LINE"
);
},
{
closed = 1;
nodes = (
"209 104 LINE",
"73 253 LINE",
"267 400 LINE",
"269 413 LINE",
"59 253 LINE",
"207 91 LINE"
);
}
);
width = 466;
},
{
layerId = "957254E3-B7AD-4837-9092-D4428001DE8E";
paths = (
{
closed = 1;
nodes = (
"526 192 LINE",
"444 252 LINE",
"550 312 LINE",
"581 472 LINE",
"267 252 LINE",
"495 32 LINE"
);
},
{
closed = 1;
nodes = (
"243 192 LINE",
"161 252 LINE",
"267 312 LINE",
"298 472 LINE",
"-16 252 LINE",
"212 32 LINE"
);
}
);
width = 597;
}
);
note = guillemotleft;
unicode = 00AB;
},
{
color = 1;
glyphname = guillemetright;
lastChange = "2020-07-06 17:21:03 +0000";
layers = (
{
layerId = "F91D9E91-C1BC-4259-B0D8-112C0CBA2B8E";
paths = (
{
closed = 1;
nodes = (
"408 253 LINE",
"260 413 LINE",
"258 400 LINE",
"394 253 LINE",
"200 104 LINE",
"198 91 LINE"
);
},
{
closed = 1;
nodes = (
"252 253 LINE",
"104 413 LINE",
"102 400 LINE",
"237 253 LINE",
"44 104 LINE",
"42 91 LINE"
);
}
);
width = 466;
},
{
layerId = "957254E3-B7AD-4837-9092-D4428001DE8E";
paths = (
{
closed = 1;
nodes = (
"620 252 LINE",
"392 472 LINE",
"361 312 LINE",
"443 252 LINE",
"337 192 LINE",
"306 32 LINE"
);
},
{
closed = 1;
nodes = (
"337 252 LINE",
"109 472 LINE",
"78 312 LINE",
"160 252 LINE",
"54 192 LINE",
"23 32 LINE"
);
}
);
width = 599;
}
);
note = guillemotright;
unicode = 00BB;
},
{
color = 1;
glyphname = guilsinglleft;
lastChange = "2020-07-06 17:21:03 +0000";
layers = (
{
layerId = "F91D9E91-C1BC-4259-B0D8-112C0CBA2B8E";
paths = (
{
closed = 1;
nodes = (
"209 104 LINE",
"74 253 LINE",
"267 400 LINE",
"269 413 LINE",
"59 253 LINE",
"207 91 LINE"
);
}
);
width = 310;
},
{
layerId = "957254E3-B7AD-4837-9092-D4428001DE8E";
paths = (
{
closed = 1;
nodes = (
"243 192 LINE",
"161 252 LINE",
"267 312 LINE",
"298 472 LINE",
"-16 252 LINE",
"212 32 LINE"
);
}
);
width = 314;
}
);
leftKerningGroup = guillemetleft;
note = guilsinglleft;
rightKerningGroup = guillemetleft;
unicode = 2039;
},
{
color = 1;
glyphname = guilsinglright;
lastChange = "2020-07-06 17:21:03 +0000";
layers = (
{
layerId = "F91D9E91-C1BC-4259-B0D8-112C0CBA2B8E";
paths = (
{
closed = 1;
nodes = (
"252 253 LINE",
"104 413 LINE",
"102 400 LINE",
"237 253 LINE",
"44 104 LINE",
"42 91 LINE"
);
}
);
width = 310;
},
{
layerId = "957254E3-B7AD-4837-9092-D4428001DE8E";
paths = (
{
closed = 1;
nodes = (
"332 252 LINE",
"104 472 LINE",
"73 312 LINE",
"155 252 LINE",
"49 192 LINE",
"18 32 LINE"
);
}
);
width = 316;
}
);
leftKerningGroup = guillemetright;
note = guilsinglright;
rightKerningGroup = guillemetright;
unicode = 203A;
},
{
color = 1;
glyphname = quotedbl;
lastChange = "2020-07-07 03:56:21 +0000";
layers = (
{
layerId = "F91D9E91-C1BC-4259-B0D8-112C0CBA2B8E";
paths = (
{
closed = 1;
nodes = (
"182 500 LINE",
"221 697 LINE",
"210 697 LINE",
"171 500 LINE"
);
},
{
closed = 1;
nodes = (
"324 500 LINE",
"363 697 LINE",
"353 697 LINE",
"314 500 LINE"
);
}
);
width = 397;
},
{
layerId = "957254E3-B7AD-4837-9092-D4428001DE8E";
paths = (
{
closed = 1;
nodes = (
"224 407 LINE",
"281 697 LINE",
"155 697 LINE",
"98 407 LINE"
);
},
{
closed = 1;
nodes = (
"405 407 LINE",
"462 697 LINE",
"335 697 LINE",
"278 407 LINE"
);
}
);
width = 441;
}
);
leftKerningGroup = quotedbl;
note = quotedbl;
rightKerningGroup = quotedbl;
unicode = 0022;
},
{
color = 1;
glyphname = quotesingle;
lastChange = "2020-07-06 17:21:03 +0000";
layers = (
{
layerId = "F91D9E91-C1BC-4259-B0D8-112C0CBA2B8E";
paths = (
{
closed = 1;
nodes = (
"185 514 LINE",
"221 697 LINE",
"210 697 LINE",
"174 514 LINE"
);
}
);
width = 255;
},
{
layerId = "957254E3-B7AD-4837-9092-D4428001DE8E";
paths = (
{
closed = 1;
nodes = (
"227 421 LINE",
"281 697 LINE",
"155 697 LINE",
"101 421 LINE"
);
}
);
width = 260;
}
);
leftKerningGroup = quotedbl;
note = quotesingle;
rightKerningGroup = quotedbl;
unicode = 0027;
},
{
color = 1;
glyphname = anoteleia;
lastChange = "2020-07-06 17:21:03 +0000";
layers = (
{
layerId = "F91D9E91-C1BC-4259-B0D8-112C0CBA2B8E";
paths = (
{
closed = 1;
nodes = (
"252 158 OFFCURVE",
"298 203 OFFCURVE",
"298 252 CURVE SMOOTH",
"298 289 OFFCURVE",
"271 317 OFFCURVE",
"232 317 CURVE SMOOTH",
"185 317 OFFCURVE",
"137 272 OFFCURVE",
"137 223 CURVE SMOOTH",
"137 187 OFFCURVE",
"164 158 OFFCURVE",
"202 158 CURVE SMOOTH"
);
}
);
width = 438;
},
{
layerId = "957254E3-B7AD-4837-9092-D4428001DE8E";
paths = (
{
closed = 1;
nodes = (
"213 120 OFFCURVE",
"282 187 OFFCURVE",
"282 260 CURVE SMOOTH",
"282 314 OFFCURVE",
"242 355 OFFCURVE",
"186 355 CURVE SMOOTH",
"114 355 OFFCURVE",
"44 288 OFFCURVE",
"44 215 CURVE SMOOTH",
"44 161 OFFCURVE",
"83 120 OFFCURVE",
"140 120 CURVE SMOOTH"
);
}
);
width = 330;
}
);
note = anoteleia;
unicode = 0387;
},
{
color = 1;
glyphname = questiongreek;
lastChange = "2020-07-07 04:02:48 +0000";
layers = (
{
layerId = "F91D9E91-C1BC-4259-B0D8-112C0CBA2B8E";
paths = (
{
closed = 1;
nodes = (
"-34 -162 LINE",
"161 128 LINE",
"150 128 LINE",
"-46 -162 LINE"
);
},
{
closed = 1;
nodes = (
"191 384 LINE",
"208 471 LINE",
"198 471 LINE",
"181 384 LINE"
);
}
);
width = 250;
},
{
layerId = "957254E3-B7AD-4837-9092-D4428001DE8E";
paths = (
{
closed = 1;
nodes = (
"33 -145 LINE",
"209 131 LINE",
"40 131 LINE",
"-67 -145 LINE"
);
},
{
closed = 1;
nodes = (
"234 327 LINE",
"262 471 LINE",
"105 471 LINE",
"77 327 LINE"
);
}
);
width = 250;
},
{
associatedMasterId = "F91D9E91-C1BC-4259-B0D8-112C0CBA2B8E";
layerId = "985548F9-FE97-42B7-B5EC-D5FCAAA6AF66";
name = "Thin [500]";
paths = (
{
closed = 1;
nodes = (
"-43 -162 LINE",
"152 128 LINE",
"141 128 LINE",
"-55 -162 LINE"
);
},
{
closed = 1;
nodes = (
"222 384 LINE",
"239 471 LINE",
"148 471 LINE",
"131 384 LINE"
);
}
);
width = 250;
}
);
leftKerningGroup = questiongreek;
note = uni037E;
unicode = 037E;
},
{
color = 1;
glyphname = questiongreek.ss03;
lastChange = "2020-07-07 08:31:09 +0000";
layers = (
{
layerId = "F91D9E91-C1BC-4259-B0D8-112C0CBA2B8E";
paths = (
{
closed = 1;
nodes = (
"-35 -162 LINE",
"160 128 LINE",
"149 128 LINE",
"-47 -162 LINE"
);
},
{
closed = 1;
nodes = (
"211 415 OFFCURVE",
"219 425 OFFCURVE",
"219 434 CURVE SMOOTH",
"219 441 OFFCURVE",
"215 447 OFFCURVE",
"205 447 CURVE SMOOTH",
"193 447 OFFCURVE",
"185 437 OFFCURVE",
"185 428 CURVE SMOOTH",
"185 421 OFFCURVE",
"189 415 OFFCURVE",
"199 415 CURVE SMOOTH"
);
}
);
width = 250;
},
{
layerId = "957254E3-B7AD-4837-9092-D4428001DE8E";
paths = (
{
closed = 1;
nodes = (
"33 -145 LINE",
"209 131 LINE",
"40 131 LINE",
"-67 -145 LINE"
);
},
{
closed = 1;
nodes = (
"207 301 OFFCURVE",
"256 349 OFFCURVE",
"256 405 CURVE SMOOTH",
"256 444 OFFCURVE",
"228 472 OFFCURVE",
"186 472 CURVE SMOOTH",
"133 472 OFFCURVE",
"82 426 OFFCURVE",
"82 371 CURVE SMOOTH",
"82 331 OFFCURVE",
"111 301 OFFCURVE",
"153 301 CURVE SMOOTH"
);
}
);
width = 250;
}
);
},
{
glyphname = .notdef;
lastChange = "2020-07-07 08:31:09 +0000";
layers = (
{
layerId = "F91D9E91-C1BC-4259-B0D8-112C0CBA2B8E";
paths = (
{
closed = 1;
nodes = (
"519 0 LINE",
"519 476 LINE",
"105 476 LINE",
"105 0 LINE"
);
},
{
closed = 1;
nodes = (
"115 466 LINE",
"509 466 LINE",
"509 10 LINE",
"115 10 LINE"
);
}
);
width = 624;
},
{
layerId = "957254E3-B7AD-4837-9092-D4428001DE8E";
paths = (
{
closed = 1;
nodes = (
"483 0 LINE",
"483 471 LINE",
"79 471 LINE",
"79 0 LINE"
);
},
{
closed = 1;
nodes = (
"129 420 LINE",
"432 420 LINE",
"432 51 LINE",
"129 51 LINE"
);
}
);
width = 562;
}
);
note = .notdef;
},
{
color = 1;
glyphname = austral;
lastChange = "2020-07-06 19:56:06 +0000";
layers = (
{
layerId = "F91D9E91-C1BC-4259-B0D8-112C0CBA2B8E";
paths = (
{
closed = 1;
nodes = (
"5 0 LINE",
"377 691 LINE",
"479 0 LINE",
"491 0 LINE",
"386 697 LINE",
"367 697 LINE",
"-7 0 LINE"
);
},
{
closed = 1;
nodes = (
"553 200 LINE",
"555 210 LINE",
"11 210 LINE",
"9 200 LINE"
);
},
{
closed = 1;
nodes = (
"584 360 LINE",
"586 370 LINE",
"42 370 LINE",
"40 360 LINE"
);
}
);
width = 580;
},
{
layerId = "957254E3-B7AD-4837-9092-D4428001DE8E";
paths = (
{
closed = 1;
nodes = (
"133 0 LINE",
"333 463 LINE",
"353 0 LINE",
"525 0 LINE",
"437 697 LINE",
"323 697 LINE",
"-39 0 LINE"
);
},
{
closed = 1;
nodes = (
"551 113 LINE",
"573 213 LINE",
"-3 213 LINE",
"-29 113 LINE"
);
},
{
closed = 1;
nodes = (
"578 260 LINE",
"601 360 LINE",
"24 360 LINE",
"2 260 LINE"
);
}
);
width = 580;
}
);
note = uni20B3;
unicode = 20B3;
},
